<svg width="1159" height="704" viewBox="0 0 1159 704" fill="none" xmlns="http://www.w3.org/2000/svg">
<path d="M530.631 700.116C32.2274 682.743 -22.3967 314.941 68.8631 182.335C198.909 -6.64634 443.429 315.832 660.885 105.94C899.959 -124.839 1215.05 140.722 1130.07 432.001C1079.83 604.233 927.797 713.964 530.631 700.116Z" fill="#E7F1F8"/>
<path d="M49.2785 504.893C48.9294 504.891 48.589 504.784 48.3019 504.585C48.0148 504.387 47.7944 504.106 47.6695 503.78C47.5446 503.454 47.521 503.098 47.6018 502.758C47.6826 502.419 47.8641 502.111 48.1225 501.876C56.7814 494.026 66.0046 486.82 75.7178 480.319C76.101 480.063 76.5703 479.969 77.0223 480.059C77.4744 480.149 77.8721 480.415 78.1282 480.798C78.3842 481.182 78.4775 481.651 78.3875 482.103C78.2975 482.555 78.0316 482.952 77.6484 483.208C68.0739 489.612 58.9821 496.709 50.4461 504.443C50.1261 504.732 49.7101 504.893 49.2785 504.893Z" fill="#DAE8F1"/>
<path d="M532.044 515.158C488.746 515.15 445.947 505.905 406.507 488.04C344.195 460.055 285.236 444.878 231.247 442.959C176.912 440.994 128.438 452.484 87.2823 477.128C87.087 477.259 86.8671 477.349 86.6359 477.392C86.4048 477.436 86.1672 477.432 85.9377 477.38C85.7082 477.329 85.4915 477.231 85.3009 477.094C85.1102 476.956 84.9495 476.781 84.8286 476.579C84.7078 476.378 84.6292 476.153 84.5977 475.92C84.5662 475.687 84.5824 475.45 84.6454 475.224C84.7084 474.997 84.8168 474.786 84.964 474.602C85.1113 474.419 85.2943 474.268 85.502 474.157C127.248 449.166 176.323 437.503 231.374 439.48C285.802 441.456 345.212 456.738 407.929 484.907C466.044 511.209 531.007 518.393 593.466 505.425C640.865 495.646 671.061 477.741 671.362 477.556L671.489 477.486C759.755 434.139 844.24 419.69 922.598 434.602C991.303 447.664 1042.04 481.174 1072.51 506.985C1072.68 507.133 1072.82 507.313 1072.93 507.515C1073.03 507.718 1073.09 507.939 1073.11 508.166C1073.13 508.393 1073.11 508.621 1073.04 508.838C1072.97 509.055 1072.85 509.256 1072.71 509.43C1072.56 509.604 1072.38 509.747 1072.18 509.851C1071.97 509.955 1071.75 510.019 1071.53 510.038C1071.3 510.056 1071.07 510.03 1070.85 509.961C1070.64 509.891 1070.44 509.78 1070.26 509.632C1040.12 484.087 989.916 450.923 921.951 437.965C844.367 423.216 760.633 437.538 673.073 480.526C671.431 481.486 641.131 499.021 594.298 508.754C573.819 513 552.959 515.145 532.044 515.158Z" fill="#DAE8F1"/>
<path d="M1100.88 538.357C1100.63 538.357 1100.4 538.307 1100.17 538.209C1099.95 538.112 1099.76 537.969 1099.59 537.791C1092.39 529.937 1084.79 522.453 1076.83 515.366C1076.49 515.059 1076.28 514.629 1076.25 514.169C1076.23 513.71 1076.38 513.259 1076.69 512.915C1077 512.572 1077.43 512.364 1077.89 512.338C1078.35 512.312 1078.8 512.47 1079.14 512.777C1087.18 519.946 1094.86 527.516 1102.14 535.456C1102.36 535.704 1102.51 536.013 1102.57 536.345C1102.62 536.677 1102.58 537.017 1102.44 537.324C1102.3 537.632 1102.08 537.893 1101.8 538.076C1101.52 538.26 1101.19 538.357 1100.85 538.357H1100.88Z" fill="#DAE8F1"/>
<path d="M1116.2 556.828C1115.92 556.83 1115.65 556.763 1115.4 556.634C1115.15 556.505 1114.94 556.318 1114.78 556.089C1114.78 556.089 1111.38 551.257 1104.86 543.72C1104.71 543.548 1104.59 543.348 1104.52 543.13C1104.45 542.913 1104.41 542.683 1104.43 542.454C1104.44 542.225 1104.5 542.001 1104.6 541.795C1104.71 541.589 1104.85 541.404 1105.02 541.252C1105.19 541.101 1105.39 540.984 1105.61 540.91C1105.83 540.836 1106.06 540.805 1106.28 540.819C1106.51 540.834 1106.74 540.893 1106.94 540.994C1107.15 541.096 1107.33 541.236 1107.49 541.409C1114.15 549.095 1117.49 553.858 1117.63 554.054C1117.81 554.314 1117.91 554.619 1117.94 554.936C1117.96 555.252 1117.89 555.568 1117.74 555.85C1117.6 556.131 1117.37 556.367 1117.1 556.531C1116.83 556.696 1116.52 556.782 1116.2 556.782V556.828Z" fill="#DAE8F1"/>
<path d="M1046.18 622.623C1045.84 622.623 1045.51 622.527 1045.23 622.346C1039.17 618.37 1031.71 614.07 1023.04 609.55C1022.66 609.326 1022.37 608.963 1022.25 608.535C1022.12 608.107 1022.17 607.647 1022.37 607.252C1022.58 606.856 1022.93 606.555 1023.35 606.41C1023.77 606.266 1024.23 606.289 1024.64 606.475C1033.41 611.099 1040.99 615.399 1047.14 619.445C1047.45 619.651 1047.68 619.951 1047.81 620.301C1047.94 620.652 1047.95 621.034 1047.84 621.391C1047.73 621.747 1047.51 622.06 1047.21 622.282C1046.91 622.504 1046.55 622.624 1046.18 622.623Z" fill="#DAE8F1"/>
<path d="M1016.58 606.071C1016.32 606.071 1016.06 606.008 1015.82 605.886C932.191 564.434 785.37 521.989 646.943 538.842C646.715 538.87 646.484 538.852 646.263 538.79C646.043 538.728 645.836 538.623 645.656 538.482C645.475 538.34 645.325 538.164 645.212 537.964C645.1 537.764 645.028 537.544 645.001 537.316C644.973 537.089 644.991 536.858 645.053 536.637C645.115 536.416 645.22 536.21 645.362 536.03C645.503 535.849 645.679 535.699 645.879 535.586C646.079 535.474 646.299 535.402 646.527 535.375C785.671 518.429 933.231 561.082 1017.37 602.753C1017.72 602.928 1018 603.216 1018.16 603.569C1018.33 603.922 1018.37 604.321 1018.28 604.7C1018.19 605.079 1017.97 605.418 1017.67 605.66C1017.36 605.902 1016.99 606.035 1016.6 606.036L1016.58 606.071Z" fill="#DAE8F1"/>
<path d="M605.024 545.813C604.564 545.86 604.104 545.723 603.745 545.431C603.387 545.14 603.158 544.718 603.111 544.258C603.063 543.798 603.2 543.338 603.492 542.979C603.784 542.621 604.206 542.392 604.666 542.345C613.683 540.414 622.989 538.727 632.307 537.317C632.767 537.248 633.236 537.364 633.61 537.64C633.984 537.917 634.233 538.33 634.302 538.79C634.371 539.25 634.254 539.719 633.978 540.093C633.701 540.466 633.287 540.715 632.828 540.784C623.579 542.183 614.33 543.871 605.383 545.789C605.264 545.809 605.144 545.816 605.024 545.813Z" fill="#DAE8F1"/>
<path d="M328.632 609.77C301.498 609.733 274.399 607.802 247.534 603.99C187.569 595.563 139.061 579.103 121.789 571.624C121.577 571.533 121.386 571.4 121.226 571.234C121.066 571.067 120.941 570.871 120.858 570.655C120.775 570.44 120.736 570.21 120.743 569.98C120.75 569.749 120.803 569.522 120.899 569.312C120.988 569.098 121.119 568.905 121.285 568.743C121.451 568.582 121.648 568.455 121.864 568.372C122.08 568.289 122.311 568.25 122.543 568.259C122.774 568.268 123.002 568.323 123.211 568.422C123.708 568.63 173.662 590.142 248.159 600.592C290.997 606.695 334.395 607.858 377.499 604.059C429.176 599.547 479.82 586.923 527.568 566.654C548.946 557.559 571.051 550.278 593.649 544.888C594.085 544.807 594.535 544.896 594.907 545.136C595.279 545.377 595.545 545.751 595.65 546.182C595.755 546.612 595.692 547.066 595.472 547.451C595.253 547.836 594.894 548.123 594.47 548.252C572.054 553.612 550.128 560.842 528.921 569.867C480.809 590.303 429.78 603.039 377.707 607.608C361.538 609.049 345.18 609.77 328.632 609.77Z" fill="#DAE8F1"/>
<path d="M901.753 620.555C901.175 617.006 901.001 613.515 898.285 610.556C897.123 609.33 895.639 608.455 894.004 608.032C892.368 607.609 890.647 607.655 889.036 608.163C882.909 610.764 879.556 619.098 874.238 608.417C872.227 604.372 872.204 601.632 872.146 596.766C871.279 581.577 870.793 566.897 866.689 552.945C865.614 549.269 860.273 530.578 854.215 533.294C849.66 535.34 851.418 543.305 847.892 546.553C845.221 549.026 842.111 548.784 839.973 546.553C823.788 529.468 834.065 495.299 818.007 478.111C816.4 476.389 812.516 473.857 808.539 475.926C806.227 477.082 804.47 480.619 804.285 483.197C803.973 487.381 804.666 491.173 803.129 495.265C802.458 497.079 801.464 499.091 799.788 499.796C798.111 500.501 796.32 499.414 794.967 498.224C788.77 492.618 786.088 483.509 781.094 476.678C776.1 469.846 770.354 464.367 759.718 463.604C756.967 463.408 752.955 465.188 748.921 468.228C743.429 472.331 738.771 480.48 738.909 487.115C739.048 493.935 742.505 501.137 746.192 505.992C753.869 516.141 764.944 523.33 772.62 533.514C773.869 535.167 775.163 537.409 774.065 539.606C772.1 543.559 764.239 541.686 761.244 544.888C758.25 548.09 759.938 555.476 763.846 559.464C773.094 569.116 780.031 573.139 792.181 580.155C795.21 581.901 797.106 587.091 794.181 590.05C792.724 591.518 788.273 591.506 786.967 593.136C783.499 597.459 786.874 600.696 788.77 602.846C799.175 614.648 812.967 621.919 822.215 634.657C824.4 637.662 825.938 642.887 822.62 645.592C819.776 647.904 814.955 645.927 811.059 647.43C807.372 648.863 802.736 651.649 807.869 663.497C817.117 684.847 830.181 694.776 853.071 701.11C854.493 701.503 889.915 691.181 891.452 690.765C894.019 690.071 898.909 685.748 899.545 683.24C905.984 659.336 905.533 643.5 901.753 620.555Z" fill="#A2D9DD"/>
<g opacity="0.65">
<g opacity="0.5">
<path opacity="0.5" d="M852.481 613.63L849.406 612.787C854.125 595.826 855.634 578.134 853.857 560.62L853.429 556.979L856.597 556.563C859.077 575.668 857.678 595.078 852.481 613.63Z" fill="#51BCC3"/>
</g>
<g opacity="0.5">
<path opacity="0.5" d="M879.48 689.724C874.517 672.207 868.336 655.058 860.983 638.401C859.272 634.518 857.4 630.449 855.111 625.617C826.741 565.914 795.839 521.515 760.637 489.866L762.775 487.485C798.29 519.423 829.434 564.157 857.989 624.241C860.301 629.108 862.186 633.2 863.908 637.107C871.305 653.899 877.521 671.188 882.509 688.846L879.48 689.724Z" fill="#51BCC3"/>
</g>
<g opacity="0.5">
<path opacity="0.5" d="M796.705 560.955C789.088 561.081 781.479 560.383 774.012 558.874L774.728 555.765C787.052 558.608 805.942 558.077 818.301 556.366L818.74 559.533C811.434 560.488 804.073 560.962 796.705 560.955Z" fill="#51BCC3"/>
</g>
<g opacity="0.5">
<path opacity="0.5" d="M790.277 570.388C787.768 570.407 785.266 570.135 782.82 569.578L783.537 566.469C790.89 568.168 798.393 566.608 807.075 564.816C812.341 563.625 817.671 562.741 823.04 562.169L823.329 565.359C818.081 565.921 812.87 566.785 807.722 567.949C801.71 569.185 795.93 570.388 790.277 570.388Z" fill="#51BCC3"/>
</g>
<g opacity="0.5">
<path opacity="0.5" d="M843.269 613.584C828.24 613.584 813.211 611.839 801.801 603.181L803.743 600.638C815.766 609.827 832.529 610.74 848.829 610.347L848.899 613.549C847.049 613.561 845.165 613.584 843.269 613.584Z" fill="#51BCC3"/>
</g>
<g opacity="0.5">
<path opacity="0.5" d="M830.106 623.166C823.439 623.414 816.895 621.32 811.609 617.248L813.552 614.717C822.164 621.294 830.696 620.311 841.482 619.074C845.517 618.612 849.69 618.138 854.199 618.022L854.28 621.224C849.898 621.328 845.806 621.791 841.841 622.253C837.949 622.773 834.032 623.078 830.106 623.166Z" fill="#51BCC3"/>
</g>
<g opacity="0.5">
<path opacity="0.5" d="M874.706 670.825C860.105 670.131 845.192 665.866 830.359 658.11L831.839 655.278C846.255 662.791 860.741 666.941 874.856 667.611L874.706 670.825Z" fill="#51BCC3"/>
</g>
<g opacity="0.5">
<path opacity="0.5" d="M877.086 672.871L874.254 671.391C877.534 664.856 879.427 657.713 879.815 650.411C880.148 643.313 879.951 636.2 879.225 629.131L882.404 628.888C883.149 636.114 883.346 643.387 882.994 650.643C882.58 658.38 880.568 665.948 877.086 672.871Z" fill="#51BCC3"/>
</g>
<g opacity="0.5">
<path opacity="0.5" d="M879.378 680.13L876.707 678.373C882.233 669.958 886.094 662.398 888.187 655.902C891.123 646.817 892.21 632.148 891.655 625.629L894.846 625.386C895.447 633.05 894.002 648.146 891.181 656.885C889.054 663.647 885.065 671.472 879.378 680.13Z" fill="#51BCC3"/>
</g>
<g opacity="0.5">
<path opacity="0.5" d="M819.547 554.239L816.402 553.696C818.006 545.353 818.704 536.862 818.483 528.37C818.044 513.609 817.766 503.506 817.766 503.506L820.957 503.413C820.957 503.413 821.235 513.516 821.674 528.277C821.905 536.982 821.192 545.687 819.547 554.239Z" fill="#51BCC3"/>
</g>
<g opacity="0.5">
<path opacity="0.5" d="M816.371 550.818L813.215 550.274C814.279 544.021 813.724 537.721 813.215 531.63C812.949 528.728 812.695 525.734 812.602 522.775C812.175 508.234 810.961 493.184 810.949 493.033L814.128 492.768C814.128 492.929 815.365 508.06 815.793 522.683C815.886 525.549 816.14 528.462 816.394 531.352C816.926 537.64 817.504 544.148 816.371 550.818Z" fill="#51BCC3"/>
</g>
</g>
<path d="M847.127 580.826C847.994 575.531 848.283 570.295 852.398 565.88C856.791 561.256 863.277 561.025 866.271 562.296C875.439 566.192 880.444 578.652 888.398 562.678C891.415 556.632 891.45 552.529 891.531 545.246C892.826 522.544 893.554 500.593 899.624 479.729C901.242 474.238 909.219 446.288 918.282 450.357C925.092 453.409 922.467 465.326 927.739 470.193C931.728 473.88 936.41 473.522 939.577 470.193C963.797 444.658 948.41 393.555 972.467 367.848C974.883 365.27 980.687 361.49 986.641 364.588C990.109 366.391 992.721 371.604 992.999 375.465C993.461 381.719 992.421 387.383 994.675 393.498C995.681 396.226 997.172 399.277 999.669 400.283C1002.39 401.439 1004.93 399.705 1006.88 397.971C1016.13 389.579 1020.15 375.951 1027.53 365.756C1035.09 355.352 1043.6 347.342 1059.51 346.197C1063.61 345.908 1069.61 348.567 1075.69 353.133C1083.89 359.271 1090.86 371.466 1090.65 381.384C1090.44 391.567 1085.28 402.34 1079.76 409.611C1068.28 424.788 1051.73 435.596 1040.25 450.773C1038.37 453.235 1036.44 456.553 1038.09 459.87C1041.02 465.789 1052.78 462.98 1057.25 467.765C1061.48 472.296 1059.1 483.601 1053.31 489.612C1039.44 504.026 1029.18 510.049 1010.94 520.544C1006.41 523.157 1003.57 530.948 1007.95 535.34C1010.13 537.536 1016.79 537.525 1018.74 539.964C1023.91 546.425 1018.88 551.269 1016.05 554.482C1000.49 572.133 979.855 582.999 966.04 602.048C962.768 606.545 960.467 614.359 965.427 618.416C969.681 621.884 976.883 618.901 982.675 621.144C988.201 623.294 995.115 627.455 987.45 645.187C973.658 677.102 954.074 691.944 919.855 701.434C917.739 702.023 864.757 702.07 862.468 701.434C858.629 700.405 836.583 680.442 835.577 676.686C826.063 640.818 841.485 615.145 847.127 580.826Z" fill="#A2D9DD"/>
<g opacity="0.65">
<g opacity="0.5">
<path opacity="0.5" d="M920.8 570.48C912.997 541.975 910.881 512.476 914.684 485.139L919.424 485.751L918.777 491.196C916.111 517.391 918.37 543.855 925.436 569.22L920.8 570.48Z" fill="#51BCC3"/>
</g>
<g opacity="0.5">
<path opacity="0.5" d="M880.429 684.303L875.805 682.997C883.272 656.59 892.57 630.735 903.631 605.62C906.198 599.84 909.018 593.679 912.475 586.397C955.169 496.536 1001.75 429.655 1054.87 381.892L1058.06 385.441C1005.45 432.729 959.238 499.125 916.822 588.362C913.354 595.61 910.579 601.69 908.024 607.469C897.054 632.409 887.833 658.083 880.429 684.303Z" fill="#51BCC3"/>
</g>
<g opacity="0.5">
<path opacity="0.5" d="M1004.23 491.716C993.208 491.726 982.201 491.012 971.277 489.577L971.936 484.838C990.433 487.393 1018.64 488.202 1037.08 483.937L1038.16 488.56C1028.53 490.826 1016.35 491.716 1004.23 491.716Z" fill="#51BCC3"/>
</g>
<g opacity="0.5">
<path opacity="0.5" d="M1013.84 505.806C1005.38 505.806 996.741 504.015 987.747 502.165C980.049 500.421 972.255 499.124 964.406 498.281L964.846 493.531C972.874 494.38 980.845 495.7 988.718 497.484C1001.7 500.165 1012.91 502.489 1023.9 499.946L1024.97 504.57C1021.32 505.407 1017.59 505.822 1013.84 505.806Z" fill="#51BCC3"/>
</g>
<g opacity="0.5">
<path opacity="0.5" d="M934.583 570.399C931.747 570.399 928.922 570.364 926.109 570.295L926.225 565.521C950.63 566.087 975.705 564.735 993.693 550.991L996.595 554.794C979.589 567.798 957.115 570.399 934.583 570.399Z" fill="#51BCC3"/>
</g>
<g opacity="0.5">
<path opacity="0.5" d="M954.271 584.732C948.385 584.605 942.51 584.146 936.676 583.357C930.756 582.686 924.618 581.981 918.086 581.819L918.19 577.046C924.953 577.207 931.196 577.924 937.23 578.618C953.415 580.467 966.132 581.935 978.999 572.087L981.901 575.89C972.837 582.814 963.831 584.732 954.271 584.732Z" fill="#51BCC3"/>
</g>
<g opacity="0.5">
<path opacity="0.5" d="M887.575 656.006L887.344 651.233C908.488 650.227 930.118 644.02 951.679 632.738L953.887 636.98C931.714 648.574 909.413 654.966 887.575 656.006Z" fill="#51BCC3"/>
</g>
<g opacity="0.5">
<path opacity="0.5" d="M884.016 659.07C879.057 649.614 876.086 638.425 875.184 625.814C874.386 614.694 875.184 603.852 876.062 593.287L880.825 593.657C880.016 604.06 879.172 614.717 879.947 625.467C880.802 637.419 883.6 647.973 888.247 656.839L884.016 659.07Z" fill="#51BCC3"/>
</g>
<g opacity="0.5">
<path opacity="0.5" d="M880.578 669.912C872.092 656.966 866.127 645.268 862.867 635.165C858.647 622.092 856.497 599.505 857.398 588.05L862.161 588.42C861.398 598.164 863.028 620.104 867.41 633.697C870.543 643.395 876.323 654.7 884.578 667.288L880.578 669.912Z" fill="#51BCC3"/>
</g>
<g opacity="0.5">
<path opacity="0.5" d="M970.046 481.659C967.734 467.973 966.451 457.235 966.867 442.832C967.526 420.766 967.942 405.669 967.942 405.669L972.728 405.797C972.728 405.797 972.3 420.904 971.653 442.971C971.237 456.981 972.474 467.476 974.763 480.85L970.046 481.659Z" fill="#51BCC3"/>
</g>
<g opacity="0.5">
<path opacity="0.5" d="M974.827 476.55C973.128 466.575 973.983 456.9 974.827 447.433C975.197 443.167 975.59 438.763 975.717 434.475C976.365 412.605 978.191 389.972 978.214 389.752L982.977 390.134C982.977 390.365 981.139 412.871 980.492 434.614C980.365 439.041 979.972 443.526 979.59 447.849C978.781 456.957 977.948 466.344 979.59 475.741L974.827 476.55Z" fill="#51BCC3"/>
</g>
</g>
<path d="M202.988 348.009H245.855V516.981H264.444V552.711H245.855V598.08H207.334V552.711H131.52V516.981L202.988 348.009ZM207.334 422.982L167.67 516.935H207.334V422.982Z" fill="#245E63"/>
<path d="M338.762 345.142C377.352 345.142 398.438 368.006 398.438 408.024V538.065C398.438 578.083 377.352 600.947 338.762 600.947C300.173 600.947 279.098 578.083 279.098 538.065V408.024C279.098 368.006 300.173 345.142 338.762 345.142ZM338.762 565.217C351.271 565.217 359.132 558.432 359.132 540.562V405.527C359.132 387.657 351.271 380.872 338.762 380.872C326.254 380.872 318.392 387.657 318.392 405.527V540.562C318.392 558.432 326.254 565.217 338.762 565.217Z" fill="#245E63"/>
<path d="M485.949 348.009H528.839V516.981H547.428V552.711H528.839V598.08H490.249V552.711H414.504V516.981L485.949 348.009ZM490.226 423.028L450.573 516.981H490.226V423.028Z" fill="#245E63"/>
<path d="M76.3813 703.954H16.5896C16.1297 703.954 15.6886 703.771 15.3634 703.446C15.0382 703.121 14.8555 702.68 14.8555 702.22C14.8555 701.76 15.0382 701.319 15.3634 700.994C15.6886 700.669 16.1297 700.486 16.5896 700.486H76.3813C76.8412 700.486 77.2823 700.669 77.6075 700.994C77.9327 701.319 78.1154 701.76 78.1154 702.22C78.1154 702.68 77.9327 703.121 77.6075 703.446C77.2823 703.771 76.8412 703.954 76.3813 703.954Z" fill="#A2D9DD"/>
<path d="M118.124 703.954H94.6677C94.2078 703.954 93.7667 703.771 93.4415 703.446C93.1163 703.121 92.9336 702.68 92.9336 702.22C92.9336 701.76 93.1163 701.319 93.4415 700.994C93.7667 700.669 94.2078 700.486 94.6677 700.486H118.124C118.584 700.486 119.025 700.669 119.35 700.994C119.676 701.319 119.858 701.76 119.858 702.22C119.858 702.68 119.676 703.121 119.35 703.446C119.025 703.771 118.584 703.954 118.124 703.954Z" fill="#A2D9DD"/>
<path d="M1096.99 703.954H125.812C125.352 703.954 124.911 703.771 124.586 703.446C124.261 703.121 124.078 702.68 124.078 702.22C124.078 701.76 124.261 701.319 124.586 700.994C124.911 700.669 125.352 700.486 125.812 700.486H1096.99C1097.45 700.486 1097.89 700.669 1098.22 700.994C1098.54 701.319 1098.72 701.76 1098.72 702.22C1098.72 702.68 1098.54 703.121 1098.22 703.446C1097.89 703.771 1097.45 703.954 1096.99 703.954Z" fill="#A2D9DD"/>
<path d="M1156.86 312.225H1097.07C1096.61 312.225 1096.17 312.042 1095.84 311.717C1095.52 311.392 1095.34 310.951 1095.34 310.491C1095.34 310.031 1095.52 309.59 1095.84 309.265C1096.17 308.94 1096.61 308.757 1097.07 308.757H1156.86C1157.32 308.757 1157.76 308.94 1158.09 309.265C1158.41 309.59 1158.6 310.031 1158.6 310.491C1158.6 310.951 1158.41 311.392 1158.09 311.717C1157.76 312.042 1157.32 312.225 1156.86 312.225Z" fill="#D7DCE7"/>
<path d="M1089.77 312.225H1085.45C1084.99 312.225 1084.55 312.042 1084.22 311.717C1083.9 311.392 1083.71 310.951 1083.71 310.491C1083.71 310.031 1083.9 309.59 1084.22 309.265C1084.55 308.94 1084.99 308.757 1085.45 308.757H1089.77C1090.23 308.757 1090.67 308.94 1091 309.265C1091.32 309.59 1091.51 310.031 1091.51 310.491C1091.51 310.951 1091.32 311.392 1091 311.717C1090.67 312.042 1090.23 312.225 1089.77 312.225Z" fill="#D7DCE7"/>
<path d="M73.5338 246.569H13.7536C13.2937 246.569 12.8526 246.386 12.5274 246.061C12.2022 245.736 12.0195 245.295 12.0195 244.835C12.0195 244.375 12.2022 243.934 12.5274 243.609C12.8526 243.284 13.2937 243.101 13.7536 243.101H73.5338C73.9937 243.101 74.4348 243.284 74.76 243.609C75.0852 243.934 75.2679 244.375 75.2679 244.835C75.2679 245.295 75.0852 245.736 74.76 246.061C74.4348 246.386 73.9937 246.569 73.5338 246.569Z" fill="#D7DCE7"/>
<path d="M6.46013 246.569H2.13644C1.67653 246.569 1.23546 246.386 0.91025 246.061C0.585043 245.736 0.402344 245.295 0.402344 244.835C0.402344 244.375 0.585043 243.934 0.91025 243.609C1.23546 243.284 1.67653 243.101 2.13644 243.101H6.46013C6.92004 243.101 7.36112 243.284 7.68633 243.609C8.01153 243.934 8.19423 244.375 8.19423 244.835C8.19423 245.295 8.01153 245.736 7.68633 246.061C7.36112 246.386 6.92004 246.569 6.46013 246.569Z" fill="#D7DCE7"/>
<path d="M741.905 70.2334H682.125C681.665 70.2334 681.224 70.0507 680.899 69.7255C680.573 69.4004 680.391 68.9593 680.391 68.4995C680.391 68.0396 680.573 67.5986 680.899 67.2735C681.224 66.9483 681.665 66.7656 682.125 66.7656H741.905C742.365 66.7656 742.806 66.9483 743.131 67.2735C743.456 67.5986 743.639 68.0396 743.639 68.4995C743.639 68.9593 743.456 69.4004 743.131 69.7255C742.806 70.0507 742.365 70.2334 741.905 70.2334Z" fill="#D7DCE7"/>
<path d="M674.816 70.2334H670.504C670.044 70.2334 669.603 70.0507 669.277 69.7255C668.952 69.4004 668.77 68.9593 668.77 68.4995C668.77 68.0396 668.952 67.5986 669.277 67.2735C669.603 66.9483 670.044 66.7656 670.504 66.7656H674.816C675.276 66.7656 675.717 66.9483 676.042 67.2735C676.367 67.5986 676.55 68.0396 676.55 68.4995C676.55 68.9593 676.367 69.4004 676.042 69.7255C675.717 70.0507 675.276 70.2334 674.816 70.2334Z" fill="#D7DCE7"/>
<path d="M414.273 149.946H629.383C629.383 149.946 624.238 83.2955 555.707 81.2264C509.973 79.8393 497.973 112.795 497.973 112.795C497.973 112.795 460.979 107.362 458.111 147.195C458.111 147.195 453.614 130.122 435.21 130.688C427.626 130.931 414.724 137.716 414.273 149.946Z" fill="#DAE8F1"/>
<path d="M984.746 170.694H1150.88C1150.88 170.694 1146.91 119.233 1093.99 117.626C1058.66 116.551 1049.4 142.004 1049.4 142.004C1049.4 142.004 1020.86 137.808 1018.61 168.591C1018.61 168.591 1015.14 155.413 1000.93 155.875C995.07 156.049 985.104 161.25 984.746 170.694Z" fill="#DAE8F1"/>
<path d="M132.832 285.743H293.317C293.317 285.743 289.479 236.038 238.358 234.478C204.242 233.438 195.294 258.024 195.294 258.024C195.294 258.024 172.173 253.4 165.549 273.583C165.549 273.583 160.601 269.075 150.416 269.41C144.751 269.606 133.653 273.952 132.832 285.743Z" fill="white"/>
<path d="M613.117 359.652H717.348C717.348 359.652 714.851 327.367 681.649 326.35C659.487 325.68 653.684 341.654 653.684 341.654C653.684 341.654 638.655 338.626 634.366 351.757C634.366 351.757 631.152 348.833 624.539 349.041C620.898 349.168 613.684 351.965 613.117 359.652Z" fill="white"/>
<path d="M362.25 79.3539H328.609C328.213 79.3539 327.834 79.1968 327.554 78.9171C327.274 78.6375 327.117 78.2582 327.117 77.8627C327.117 77.4672 327.274 77.088 327.554 76.8083C327.834 76.5287 328.213 76.3716 328.609 76.3716H362.25C362.646 76.3716 363.025 76.5287 363.305 76.8083C363.584 77.088 363.741 77.4672 363.741 77.8627C363.741 78.2582 363.584 78.6375 363.305 78.9171C363.025 79.1968 362.646 79.3539 362.25 79.3539Z" fill="#EFBC59"/>
<path d="M322.327 79.3539H318.616C318.221 79.3539 317.841 79.1968 317.562 78.9171C317.282 78.6375 317.125 78.2582 317.125 77.8627C317.125 77.4672 317.282 77.088 317.562 76.8083C317.841 76.5287 318.221 76.3716 318.616 76.3716H322.327C322.723 76.3716 323.102 76.5287 323.382 76.8083C323.661 77.088 323.819 77.4672 323.819 77.8627C323.819 78.2582 323.661 78.6375 323.382 78.9171C323.102 79.1968 322.723 79.3539 322.327 79.3539Z" fill="#EFBC59"/>
<path d="M342.031 120.678C341.718 120.675 341.414 120.573 341.162 120.388C340.91 120.202 340.722 119.942 340.626 119.644C340.531 119.346 340.531 119.025 340.627 118.728C340.724 118.43 340.911 118.17 341.164 117.985L368.389 98.2533C368.696 98.1162 369.041 98.0869 369.367 98.1703C369.693 98.2537 369.981 98.4448 370.184 98.7126C370.388 98.9805 370.495 99.3092 370.488 99.6455C370.481 99.9818 370.361 100.306 370.146 100.565L342.909 120.343C342.662 120.549 342.353 120.667 342.031 120.678Z" fill="#EFBC59"/>
<path d="M333.953 126.55C333.64 126.547 333.336 126.445 333.084 126.259C332.831 126.074 332.644 125.814 332.548 125.516C332.452 125.218 332.453 124.897 332.549 124.599C332.646 124.302 332.833 124.042 333.086 123.857L336.08 121.672C336.4 121.439 336.8 121.343 337.191 121.405C337.583 121.466 337.934 121.681 338.167 122.001C338.4 122.322 338.496 122.722 338.434 123.113C338.372 123.504 338.158 123.855 337.837 124.088L334.831 126.261C334.578 126.45 334.269 126.552 333.953 126.55Z" fill="#EFBC59"/>
<path d="M469.242 79.3539H435.577C435.182 79.3539 434.802 79.1968 434.523 78.9171C434.243 78.6375 434.086 78.2582 434.086 77.8627C434.086 77.4672 434.243 77.088 434.523 76.8083C434.802 76.5287 435.182 76.3716 435.577 76.3716H469.242C469.637 76.3716 470.017 76.5287 470.296 76.8083C470.576 77.088 470.733 77.4672 470.733 77.8627C470.733 78.2582 470.576 78.6375 470.296 78.9171C470.017 79.1968 469.637 79.3539 469.242 79.3539Z" fill="#EFBC59"/>
<path d="M479.234 79.3539H475.546C475.151 79.3539 474.771 79.1968 474.491 78.9171C474.212 78.6375 474.055 78.2582 474.055 77.8627C474.055 77.4672 474.212 77.088 474.491 76.8083C474.771 76.5287 475.151 76.3716 475.546 76.3716H479.257C479.653 76.3716 480.032 76.5287 480.312 76.8083C480.591 77.088 480.748 77.4672 480.748 77.8627C480.748 78.2582 480.591 78.6375 480.312 78.9171C480.032 79.1968 479.653 79.3539 479.257 79.3539H479.234Z" fill="#EFBC59"/>
<path d="M428.589 57.7959C428.275 57.7952 427.969 57.6953 427.715 57.5106C427.462 57.3259 427.272 57.0657 427.175 56.7672C427.078 56.4687 427.077 56.1471 427.173 55.8482C427.269 55.5493 427.457 55.2884 427.711 55.1027L454.947 35.3133C455.268 35.0982 455.661 35.016 456.041 35.0842C456.421 35.1523 456.76 35.3655 456.987 35.6787C457.213 35.9919 457.309 36.3807 457.254 36.7632C457.199 37.1457 456.998 37.4921 456.693 37.7292L429.468 57.5185C429.212 57.7021 428.904 57.7993 428.589 57.7959Z" fill="#EFBC59"/>
<path d="M460.898 34.331C460.584 34.3302 460.278 34.2303 460.024 34.0456C459.77 33.8609 459.581 33.6007 459.484 33.3022C459.386 33.0037 459.386 32.6821 459.482 32.3832C459.578 32.0844 459.766 31.8234 460.019 31.6377L463.025 29.453C463.346 29.2378 463.738 29.1557 464.118 29.2238C464.499 29.292 464.838 29.5051 465.064 29.8183C465.291 30.1315 465.386 30.5204 465.332 30.9029C465.277 31.2854 465.076 31.6317 464.771 31.8689L461.765 34.0535C461.512 34.2341 461.209 34.3311 460.898 34.331Z" fill="#EFBC59"/>
<path d="M410.246 44.4914C410.094 44.491 409.942 44.4676 409.796 44.422C409.609 44.3617 409.435 44.2651 409.286 44.1377C409.136 44.0102 409.013 43.8545 408.924 43.6794C408.835 43.5043 408.781 43.3133 408.766 43.1174C408.751 42.9215 408.775 42.7245 408.836 42.5379L419.241 10.5305C419.365 10.1546 419.633 9.84301 419.986 9.66337C420.338 9.48372 420.748 9.45056 421.125 9.57109C421.5 9.69294 421.812 9.95837 421.991 10.3093C422.171 10.6602 422.205 11.0681 422.085 11.4437L411.68 43.4626C411.58 43.7633 411.388 44.0247 411.13 44.2095C410.873 44.3942 410.563 44.4929 410.246 44.4914Z" fill="#EFBC59"/>
<path d="M422.598 6.50796C422.441 6.50751 422.285 6.48414 422.135 6.4386C421.78 6.30975 421.487 6.05063 421.315 5.71369C421.143 5.37676 421.106 4.98718 421.211 4.62381L422.367 1.0867C422.494 0.712631 422.762 0.402945 423.114 0.223707C423.466 0.0444694 423.874 0.0098707 424.251 0.127292C424.438 0.187562 424.611 0.284196 424.761 0.411642C424.911 0.539088 425.033 0.694831 425.123 0.86992C425.212 1.04501 425.265 1.23599 425.281 1.43189C425.296 1.62779 425.272 1.82475 425.211 2.01144L424.055 5.53699C423.945 5.8317 423.745 6.08429 423.484 6.25867C423.222 6.43305 422.912 6.5203 422.598 6.50796Z" fill="#EFBC59"/>
<path d="M387.594 44.4913C387.281 44.4897 386.976 44.3895 386.722 44.2048C386.469 44.0201 386.281 43.7604 386.184 43.4625L375.779 11.4436C375.687 11.0767 375.738 10.6886 375.922 10.358C376.106 10.0273 376.408 9.77884 376.768 9.66278C377.128 9.54671 377.519 9.57176 377.861 9.73285C378.203 9.89394 378.471 10.179 378.611 10.5304L389.016 42.5378C389.077 42.7245 389.101 42.9214 389.086 43.1173C389.071 43.3132 389.017 43.5042 388.928 43.6793C388.839 43.8544 388.716 44.0101 388.566 44.1376C388.417 44.265 388.243 44.3616 388.056 44.4219C387.907 44.4683 387.751 44.4917 387.594 44.4913Z" fill="#EFBC59"/>
<path d="M375.256 6.50789C374.937 6.51371 374.624 6.4169 374.364 6.2317C374.104 6.04651 373.91 5.78271 373.811 5.47913L372.655 1.95358C372.584 1.76504 372.551 1.56401 372.56 1.36264C372.569 1.16127 372.618 0.963734 372.705 0.781975C372.792 0.600216 372.915 0.438005 373.067 0.305141C373.218 0.172277 373.395 0.0715199 373.587 0.00895672C373.779 -0.0536065 373.981 -0.0766767 374.182 -0.05886C374.383 -0.0410432 374.578 0.0172906 374.755 0.112617C374.933 0.207943 375.089 0.338283 375.215 0.495761C375.341 0.653239 375.434 0.834585 375.487 1.02884L376.643 4.56595C376.764 4.94151 376.73 5.34938 376.55 5.70032C376.37 6.05125 376.059 6.31669 375.684 6.43854C375.545 6.48086 375.401 6.50419 375.256 6.50789Z" fill="#EFBC59"/>
<path d="M369.269 57.7959C368.953 57.7959 368.645 57.6946 368.39 57.5069L341.165 37.7407C340.999 37.6292 340.856 37.4854 340.747 37.3178C340.637 37.1501 340.563 36.9622 340.527 36.7651C340.492 36.568 340.497 36.3658 340.541 36.1706C340.586 35.9754 340.669 35.7912 340.786 35.6289C340.904 35.4666 341.052 35.3295 341.224 35.226C341.395 35.1224 341.586 35.0544 341.784 35.026C341.982 34.9977 342.184 35.0095 342.378 35.0608C342.571 35.1122 342.752 35.202 342.91 35.3248L370.147 55.1141C370.401 55.2999 370.589 55.5608 370.685 55.8597C370.781 56.1586 370.78 56.4802 370.683 56.7787C370.585 57.0772 370.396 57.3373 370.142 57.5221C369.889 57.7068 369.583 57.8066 369.269 57.8074V57.7959Z" fill="#EFBC59"/>
<path d="M336.953 34.331C336.639 34.3297 336.332 34.233 336.074 34.0535L333.08 31.8689C332.775 31.6317 332.574 31.2854 332.519 30.9029C332.464 30.5204 332.56 30.1315 332.786 29.8183C333.013 29.5051 333.352 29.292 333.732 29.2238C334.113 29.1557 334.505 29.2378 334.826 29.453L337.831 31.6377C337.99 31.7522 338.125 31.8972 338.227 32.0642C338.33 32.2312 338.398 32.4168 338.428 32.6104C338.458 32.8039 338.45 33.0015 338.403 33.1917C338.356 33.3819 338.272 33.5609 338.155 33.7183C338.018 33.9091 337.838 34.0643 337.628 34.1709C337.419 34.2775 337.188 34.3324 336.953 34.331Z" fill="#EFBC59"/>
<path d="M420.996 99.9392C433.185 87.7511 433.185 67.9901 420.996 55.802C408.806 43.6138 389.042 43.6138 376.853 55.802C364.663 67.9901 364.663 87.7511 376.853 99.9392C389.042 112.127 408.806 112.127 420.996 99.9392Z" fill="#EFBC59"/>
<path d="M782.766 293.511C744.87 293.511 698.373 286.644 644.778 265.549C622.556 256.718 599.471 250.236 575.9 246.21C575.44 246.135 575.028 245.881 574.756 245.502C574.484 245.124 574.374 244.653 574.449 244.193C574.524 243.734 574.779 243.322 575.157 243.05C575.535 242.778 576.006 242.668 576.466 242.743C600.277 246.798 623.599 253.334 646.05 262.243C734.13 296.921 802.974 292.794 845.217 283.2C890.997 272.797 916.28 253.978 916.535 253.793C916.902 253.535 917.355 253.43 917.799 253.5C918.243 253.569 918.642 253.808 918.913 254.166C919.184 254.524 919.306 254.973 919.253 255.419C919.199 255.864 918.975 256.272 918.627 256.556C918.373 256.752 892.616 275.964 846.188 286.54C825.374 291.222 804.101 293.56 782.766 293.511Z" fill="#B5E0E3"/>
<path d="M385.695 276.542C385.305 276.546 384.925 276.419 384.616 276.181C384.308 275.943 384.088 275.608 383.994 275.23C383.899 274.852 383.934 274.453 384.094 274.098C384.253 273.742 384.528 273.451 384.874 273.271C437.046 245.712 496.182 234.133 554.897 239.98C555.124 240.002 555.344 240.068 555.546 240.175C555.747 240.282 555.925 240.428 556.07 240.604C556.215 240.78 556.324 240.983 556.39 241.202C556.457 241.42 556.48 241.649 556.457 241.876C556.408 242.331 556.181 242.749 555.826 243.039C555.472 243.328 555.017 243.467 554.561 243.425C496.531 237.649 438.086 249.099 386.527 276.345C386.268 276.474 385.983 276.541 385.695 276.542Z" fill="#B5E0E3"/>
<path d="M375.752 282.044C375.368 282.047 374.995 281.923 374.69 281.692C374.385 281.46 374.165 281.134 374.064 280.765C373.964 280.395 373.989 280.002 374.135 279.648C374.282 279.294 374.541 278.999 374.873 278.808C376.561 277.814 378.341 276.796 380.226 275.756C380.629 275.534 381.104 275.481 381.546 275.609C381.765 275.672 381.969 275.778 382.147 275.92C382.326 276.062 382.474 276.238 382.584 276.438C382.694 276.638 382.764 276.857 382.789 277.083C382.814 277.31 382.795 277.539 382.731 277.758C382.668 277.977 382.562 278.182 382.42 278.36C382.277 278.538 382.101 278.686 381.902 278.796C380.052 279.825 378.295 280.819 376.619 281.801C376.357 281.959 376.057 282.043 375.752 282.044Z" fill="#B5E0E3"/>
<path d="M353.578 296.874C353.322 296.878 353.069 296.824 352.836 296.716C352.604 296.608 352.399 296.449 352.237 296.25C352.091 296.075 351.981 295.873 351.913 295.656C351.846 295.438 351.822 295.209 351.844 294.982C351.865 294.756 351.931 294.535 352.039 294.334C352.146 294.133 352.292 293.955 352.469 293.811C358.218 289.305 364.25 285.17 370.526 281.431C370.919 281.191 371.391 281.116 371.839 281.223C372.286 281.33 372.673 281.611 372.914 282.004C373.154 282.396 373.229 282.868 373.122 283.316C373.015 283.763 372.734 284.15 372.341 284.391C366.211 288.055 360.312 292.093 354.677 296.481C354.367 296.735 353.979 296.874 353.578 296.874Z" fill="#B5E0E3"/>
<path d="M675.012 223.948C674.781 223.946 674.554 223.899 674.341 223.809C659.104 217.44 651.104 211.429 650.769 211.175C650.578 211.041 650.417 210.87 650.293 210.672C650.17 210.475 650.088 210.254 650.052 210.024C650.016 209.794 650.027 209.559 650.084 209.333C650.14 209.107 650.242 208.895 650.383 208.709C650.524 208.523 650.7 208.368 650.902 208.252C651.105 208.136 651.328 208.062 651.559 208.034C651.791 208.006 652.025 208.026 652.249 208.091C652.473 208.156 652.681 208.265 652.862 208.412C652.943 208.412 660.954 214.423 675.682 220.607C676.057 220.759 676.366 221.037 676.558 221.392C676.749 221.748 676.811 222.159 676.731 222.555C676.652 222.951 676.436 223.307 676.122 223.561C675.809 223.815 675.416 223.952 675.012 223.948Z" fill="#B5E0E3"/>
<path d="M1066.02 240.824C1065.6 240.838 1065.19 240.698 1064.86 240.431C1064.64 240.258 1042.53 222.306 1005.42 210.62C971.197 199.847 916.862 192.345 852.272 217.787C813.51 233.056 779.591 238.501 750.966 238.501C726.865 238.671 702.931 234.501 680.308 226.19C680.092 226.113 679.893 225.993 679.724 225.838C679.554 225.683 679.417 225.496 679.321 225.288C679.224 225.08 679.17 224.854 679.161 224.625C679.153 224.395 679.19 224.167 679.27 223.952C679.35 223.737 679.472 223.54 679.63 223.372C679.787 223.205 679.975 223.07 680.185 222.977C680.394 222.883 680.62 222.831 680.85 222.825C681.079 222.819 681.307 222.859 681.521 222.942C716.203 235.911 773.741 244.997 851.001 214.562C916.608 188.715 971.833 196.379 1006.61 207.36C1044.31 219.255 1066.84 237.576 1067.07 237.761C1067.25 237.905 1067.39 238.083 1067.5 238.284C1067.61 238.485 1067.67 238.705 1067.69 238.932C1067.72 239.159 1067.69 239.388 1067.62 239.606C1067.56 239.823 1067.45 240.025 1067.3 240.2C1067.14 240.391 1066.95 240.545 1066.73 240.653C1066.51 240.761 1066.26 240.819 1066.02 240.824Z" fill="#B5E0E3"/>
<path d="M1015.35 284.425C1015.04 284.426 1014.73 284.344 1014.47 284.188C1014.2 284.031 1013.98 283.806 1013.83 283.535C1013.83 283.443 1010.26 277.34 1005.18 276.6C1002.53 276.241 999.785 277.455 997.022 280.218C996.864 280.388 996.672 280.525 996.459 280.62C996.247 280.714 996.017 280.765 995.784 280.769C995.551 280.774 995.32 280.731 995.104 280.643C994.888 280.556 994.692 280.426 994.527 280.262C994.363 280.097 994.233 279.901 994.146 279.685C994.059 279.469 994.016 279.238 994.02 279.005C994.024 278.772 994.075 278.543 994.17 278.33C994.264 278.117 994.401 277.926 994.572 277.767C998.144 274.195 1001.87 272.647 1005.67 273.144C1012.47 274.091 1016.68 281.455 1016.85 281.767C1017 282.03 1017.08 282.328 1017.07 282.631C1017.07 282.933 1016.99 283.231 1016.84 283.492C1016.69 283.754 1016.47 283.972 1016.21 284.123C1015.95 284.275 1015.65 284.355 1015.35 284.356V284.425Z" fill="#B5E0E3"/>
<path d="M1015.33 284.425C1015.02 284.424 1014.71 284.339 1014.45 284.178C1014.18 284.018 1013.96 283.788 1013.81 283.514C1013.66 283.239 1013.59 282.93 1013.61 282.619C1013.62 282.307 1013.72 282.005 1013.89 281.744C1016.8 277.282 1020.25 274.808 1024.12 274.334C1029.74 273.664 1033.99 277.605 1034.16 277.802C1034.33 277.957 1034.47 278.143 1034.56 278.351C1034.66 278.558 1034.71 278.782 1034.72 279.01C1034.73 279.238 1034.69 279.466 1034.61 279.679C1034.53 279.892 1034.4 280.087 1034.25 280.253C1033.93 280.585 1033.5 280.781 1033.04 280.796C1032.58 280.811 1032.13 280.645 1031.79 280.333C1031.79 280.333 1028.48 277.317 1024.5 277.802C1021.7 278.149 1019.11 280.114 1016.79 283.663C1016.63 283.9 1016.41 284.093 1016.16 284.226C1015.9 284.359 1015.62 284.428 1015.33 284.425Z" fill="#B5E0E3"/>
<path d="M931.729 96.103C931.423 96.1044 931.122 96.0237 930.858 95.8692C930.593 95.7146 930.375 95.492 930.226 95.2245C930.226 95.1552 926.666 89.0288 921.567 88.289C918.92 87.9191 916.169 89.1444 913.475 91.8955C913.146 92.2017 912.711 92.3685 912.262 92.3606C911.813 92.3526 911.384 92.1707 911.066 91.853C910.749 91.5353 910.567 91.1067 910.559 90.6575C910.551 90.2083 910.718 89.7736 911.024 89.4449C914.596 85.8731 918.319 84.3358 922.111 84.8213C928.92 85.7575 933.128 93.1323 933.302 93.4444C933.452 93.7077 933.531 94.0062 933.529 94.3097C933.527 94.6131 933.445 94.9106 933.292 95.1723C933.138 95.4339 932.918 95.6503 932.654 95.7995C932.39 95.9487 932.091 96.0255 931.787 96.0221L931.729 96.103Z" fill="#51BCC3"/>
<path d="M931.727 96.1031C931.392 96.1025 931.063 96.0063 930.78 95.8257C930.589 95.7007 930.425 95.5392 930.296 95.3506C930.168 95.1621 930.078 94.95 930.032 94.7267C929.986 94.5033 929.984 94.2731 930.027 94.0491C930.07 93.8251 930.157 93.6118 930.282 93.4214C933.196 88.9596 936.641 86.4859 940.514 86.012C946.109 85.3415 950.386 89.2832 950.56 89.4797C950.82 89.8022 950.957 90.2074 950.944 90.6219C950.932 91.0363 950.771 91.4325 950.492 91.7387C950.212 92.0449 949.832 92.2407 949.42 92.2907C949.008 92.3407 948.592 92.2415 948.248 92.0112C948.19 92.0112 944.918 89.0058 940.953 89.4797C938.155 89.8265 935.566 91.7916 933.242 95.3402C933.075 95.5856 932.849 95.7844 932.584 95.9179C932.319 96.0514 932.024 96.1151 931.727 96.1031Z" fill="#51BCC3"/>
<path d="M91.2674 372.367C90.9612 372.369 90.6602 372.288 90.3959 372.134C90.1315 371.979 89.9135 371.756 89.7645 371.489C89.7645 371.42 86.2038 365.293 81.1056 364.553C78.4582 364.184 75.7068 365.409 72.9553 368.16C72.6266 368.466 72.1918 368.633 71.7426 368.625C71.2933 368.617 70.8647 368.435 70.547 368.117C70.2293 367.8 70.0473 367.371 70.0393 366.922C70.0314 366.473 70.1982 366.038 70.5045 365.709C74.0767 362.138 77.7993 360.589 81.5912 361.086C88.4004 362.022 92.6085 369.397 92.7819 369.709C92.9921 370.105 93.041 370.566 92.9181 370.997C92.7953 371.428 92.5103 371.795 92.1229 372.021C91.8732 372.209 91.5781 372.329 91.2674 372.367Z" fill="#51BCC3"/>
<path d="M91.2665 372.367C90.9306 372.367 90.6017 372.27 90.3185 372.09C90.1278 371.965 89.9635 371.803 89.8353 371.615C89.707 371.426 89.6172 371.214 89.5711 370.991C89.5249 370.767 89.5232 370.537 89.5662 370.313C89.6091 370.089 89.6959 369.876 89.8214 369.686C92.7347 365.224 96.1798 362.75 100.053 362.276C105.648 361.606 109.925 365.547 110.099 365.744C110.266 365.899 110.402 366.085 110.496 366.293C110.591 366.5 110.644 366.724 110.652 366.952C110.659 367.18 110.621 367.407 110.54 367.621C110.459 367.834 110.337 368.029 110.18 368.194C109.864 368.527 109.43 368.722 108.971 368.738C108.512 368.753 108.066 368.587 107.729 368.275C107.729 368.218 104.399 365.258 100.434 365.744C97.6364 366.091 95.0468 368.056 92.7231 371.604C92.5617 371.841 92.3443 372.035 92.0903 372.168C91.8362 372.301 91.5533 372.37 91.2665 372.367Z" fill="#51BCC3"/>
<path d="M151.382 92.6352C151.075 92.6367 150.774 92.5559 150.51 92.4014C150.246 92.2469 150.028 92.0242 149.879 91.7567C149.879 91.6874 146.318 85.561 141.22 84.8212C138.572 84.4513 135.821 85.6766 133.127 88.4277C132.798 88.734 132.364 88.9007 131.914 88.8928C131.465 88.8849 131.037 88.7029 130.719 88.3852C130.401 88.0675 130.219 87.639 130.211 87.1898C130.203 86.7406 130.37 86.3058 130.676 85.9772C134.249 82.4054 137.971 80.868 141.763 81.3535C148.572 82.2898 152.78 89.6645 152.954 89.9766C153.164 90.3724 153.213 90.8342 153.09 91.2653C152.967 91.6963 152.682 92.063 152.295 92.2885C152.029 92.4869 151.712 92.6071 151.382 92.6352Z" fill="#A5A7AA"/>
<path d="M151.384 92.6353C151.048 92.6347 150.719 92.5385 150.436 92.3578C150.245 92.2328 150.081 92.0714 149.952 91.8828C149.824 91.6942 149.734 91.4822 149.688 91.2588C149.642 91.0355 149.64 90.8052 149.683 90.5812C149.726 90.3573 149.813 90.1439 149.939 89.9535C152.852 85.4917 156.297 83.018 160.17 82.5441C165.777 81.8852 170.043 85.8154 170.216 86.0119C170.477 86.3344 170.613 86.7396 170.6 87.154C170.588 87.5684 170.427 87.9647 170.148 88.2708C169.868 88.577 169.488 88.7728 169.076 88.8228C168.665 88.8728 168.249 88.7736 167.904 88.5433C167.846 88.5433 164.563 85.5264 160.609 86.0119C157.811 86.3586 155.222 88.3237 152.898 91.8724C152.731 92.1177 152.505 92.3166 152.24 92.45C151.975 92.5835 151.68 92.6473 151.384 92.6353Z" fill="#A5A7AA"/>
</svg>
