<svg width="346" height="176" viewBox="0 0 346 176" fill="none" xmlns="http://www.w3.org/2000/svg">
<circle opacity="0.4" cx="46" cy="130" r="46" fill="#C9DCE9"/>
<circle opacity="0.4" cx="158" cy="35" r="35" fill="#C9DCE9"/>
<path d="M45.6469 122.827C46.1549 123.026 46.6533 122.539 46.4849 122.02C45.3291 118.458 41.1445 117.129 37.2545 120.289C35.2082 121.952 34.4393 122.305 34.4199 122.314C35.7689 123.662 37.31 128.188 40.6733 128.689C44.3782 129.361 47.6572 125.716 44.9745 124.048C43.2101 122.951 41.1328 122.314 38.9062 122.314C41.2405 121.787 43.5709 122.013 45.6469 122.827Z" fill="#B1C9D9"/>
<path d="M62.4229 120.289C55.7079 114.835 51.4255 123.436 54.0874 122.584C55.978 121.978 58.0448 121.846 60.118 122.314C56.6054 122.314 53.3674 123.923 51.2086 126.544C51.3859 122.426 51.654 119.848 51.965 117.931C53.7593 117.869 56.1508 116.42 57.4641 113.885C59.7282 109.833 58.6783 105.678 58.3403 103.057C56.5712 104.78 48.843 102.761 45.7793 108.011C44.426 110.33 44.8193 113.152 46.243 115.217C46.6936 115.871 47.7712 115.557 47.8019 114.764C47.9356 111.312 49.6534 108.705 52.8556 107.261C51.4187 109.122 50.4752 111.207 49.9878 113.361C49.2302 116.717 48.4388 118.919 48.1483 129.616C48.1187 130.7 48.9975 131.598 50.0827 131.585C50.8682 131.575 51.5412 131.076 51.8433 130.351C52.3027 129.248 53.0506 128.107 54.2675 127.061C55.424 128.339 57.1838 129.019 59.0046 128.689C62.3535 128.191 63.9164 123.655 65.2578 122.314C65.2382 122.305 64.4691 121.952 62.4229 120.289Z" fill="#B1C9D9"/>
<path d="M72.2946 133.617C70.1953 132.193 67.9106 133.208 66.8613 133.814L53.694 143.451L45.9842 143.453L44.0568 141.525H51.1372C53.2667 141.525 55.6516 140.138 55.6516 137.67C55.6516 135.049 53.2667 133.814 51.1372 133.814H48.4839C46.5128 133.814 44.2094 133.99 42.5853 133.12C41.0423 132.335 39.2654 131.888 37.3687 131.888C34.1837 131.888 31.3331 133.158 29.3798 135.16L19 145.378L30.5647 156.943L34.4196 151.161H52.6358C54.5786 151.161 56.4539 150.448 57.9062 149.158L72.4263 136.259C73.2336 135.542 73.188 134.224 72.2946 133.617Z" fill="#B1C9D9"/>
<circle opacity="0.4" cx="299" cy="94" r="47" fill="#C9DCE9"/>
<g clip-path="url(#clip0)">
<path d="M165.049 22.7915C166.423 21.6587 168.103 20.9222 169.869 20.6736C169.831 20.4349 169.78 20.1962 169.717 19.96L169.074 17.5608C168.898 16.9046 168.223 16.515 167.567 16.6905L165.168 17.3336C164.931 17.3967 164.7 17.4722 164.474 17.5583C165.14 19.1996 165.35 21.014 165.049 22.7915Z" fill="#B1C9D9"/>
<path d="M178.64 34.1282L176.883 32.3729C176.71 32.1999 176.529 32.0366 176.341 31.884C175.252 33.2826 173.785 34.3719 172.094 35.0002C173.784 35.6276 175.251 36.7169 176.341 38.1146C176.528 37.9621 176.71 37.7988 176.883 37.6257C177.806 36.703 178.64 35.868 178.64 35.868C179.12 35.3873 179.12 34.6089 178.64 34.1282Z" fill="#B1C9D9"/>
<path d="M143.906 35C142.215 34.3717 140.748 33.2816 139.658 31.8831C139.47 32.0365 139.289 32.1989 139.116 32.372L137.36 34.1281C136.88 34.6088 136.88 35.3872 137.36 35.8678C137.36 35.8678 138.193 36.702 139.116 37.6248C139.29 37.7987 139.471 37.9619 139.659 38.1145C140.749 36.7168 142.215 35.6275 143.906 35Z" fill="#B1C9D9"/>
<path d="M151.527 17.5583C151.301 17.4722 151.069 17.3967 150.833 17.3336L148.434 16.6914C147.777 16.515 147.102 16.9046 146.927 17.5608L146.284 19.9601C146.22 20.1963 146.17 20.435 146.132 20.6736C147.897 20.9222 149.578 21.6588 150.951 22.7915C150.651 21.014 150.861 19.1996 151.527 17.5583Z" fill="#B1C9D9"/>
<path d="M165.049 47.2085C165.35 48.986 165.14 50.8004 164.474 52.4417C164.7 52.5278 164.931 52.6033 165.168 52.6664L167.567 53.3087C168.223 53.4842 168.898 53.0954 169.074 52.4392L169.717 50.04C169.78 49.8037 169.831 49.565 169.869 49.3256C169.205 49.2329 168.554 49.0704 167.926 48.844C166.884 48.4684 165.907 47.9156 165.049 47.2085Z" fill="#B1C9D9"/>
<path d="M150.951 47.2085C149.578 48.3413 147.897 49.0778 146.132 49.3256C146.17 49.5651 146.22 49.8038 146.284 50.04L146.927 52.4392C147.102 53.0954 147.777 53.485 148.434 53.3087L150.833 52.6664C151.069 52.6033 151.301 52.5278 151.527 52.4417C150.861 50.7996 150.651 48.986 150.951 47.2085Z" fill="#B1C9D9"/>
<path d="M175.667 42.1673C175.007 39.7041 173.067 37.7642 170.603 37.1048L165.608 35.7661C165.385 38.0013 164.196 39.9559 162.464 41.2044L166.123 44.8635C167.926 46.6664 170.577 47.3768 173.041 46.7165L175.44 46.0742C176.097 45.8979 176.486 45.2237 176.31 44.5674C176.31 44.5674 176.005 43.4281 175.667 42.1673Z" fill="#B1C9D9"/>
<path d="M154.86 28.032C155.818 27.5981 156.881 27.357 158 27.357C159.119 27.357 160.183 27.5982 161.141 28.0328L162.481 23.0334C163.14 20.5702 162.43 17.92 160.627 16.1171C159.704 15.1951 158.87 14.3609 158.87 14.3609C158.64 14.1296 158.327 14 158 14C157.674 14 157.36 14.1296 157.13 14.3609C157.13 14.3609 156.296 15.1951 155.373 16.1171C153.57 17.9208 152.86 20.571 153.52 23.0334L154.86 28.032Z" fill="#B1C9D9"/>
<path d="M162.462 28.7973C164.194 30.0458 165.384 31.9996 165.607 34.234L170.603 32.8953C173.066 32.2358 175.007 30.2959 175.667 27.8327C176.005 26.572 176.31 25.4327 176.31 25.4327C176.486 24.7765 176.096 24.1014 175.439 23.9258L173.041 23.2836C170.577 22.6233 167.926 23.3337 166.123 25.1365L162.462 28.7973Z" fill="#B1C9D9"/>
<path d="M140.334 27.8328C140.993 30.296 142.934 32.2359 145.398 32.8953L150.394 34.234C150.617 31.9996 151.807 30.0458 153.539 28.7974L149.878 25.1366C148.075 23.3337 145.424 22.6233 142.961 23.2836L140.561 23.9259C139.904 24.1014 139.514 24.7765 139.691 25.4327C139.691 25.4327 139.996 26.572 140.334 27.8328Z" fill="#B1C9D9"/>
<path d="M153.536 41.2044C151.804 39.9559 150.615 38.0013 150.392 35.7661L145.397 37.1048C142.933 37.7642 140.993 39.7042 140.333 42.1673C139.995 43.4281 139.69 44.5674 139.69 44.5674C139.514 45.2236 139.903 45.8979 140.56 46.0742L142.96 46.7165C145.423 47.3759 148.074 46.6664 149.877 44.8635L153.536 41.2044Z" fill="#B1C9D9"/>
<path d="M161.142 41.9705C160.183 42.4044 159.12 42.6463 158 42.6463C156.881 42.6463 155.817 42.4051 154.859 41.9705L153.52 46.9658C152.86 49.429 153.57 52.0792 155.373 53.8821C156.296 54.8048 157.13 55.639 157.13 55.639C157.36 55.8703 157.674 55.9999 158 55.9999C158.327 55.9999 158.64 55.8703 158.87 55.639C158.87 55.639 159.704 54.8048 160.627 53.8829C162.43 52.0792 163.14 49.4289 162.481 46.9666L161.142 41.9705Z" fill="#B1C9D9"/>
<path d="M158 29.8174C155.141 29.8174 152.815 32.1429 152.815 35.0013C152.815 37.8598 155.141 40.1853 158 40.1853C160.859 40.1853 163.184 37.8598 163.184 35.0013C163.184 32.1429 160.859 29.8174 158 29.8174Z" fill="#B1C9D9"/>
</g>
<g clip-path="url(#clip1)">
<path d="M293.377 70.0002C292.6 70.0002 291.971 70.6299 291.971 71.4065V89.3127C291.971 89.5712 291.76 89.7815 291.502 89.7815H287.752V71.4065C287.752 70.6299 287.122 70.0002 286.346 70.0002C285.569 70.0002 284.939 70.6299 284.939 71.4065V89.7815H281.189C280.931 89.7815 280.721 89.5712 280.721 89.3127V71.4065C280.721 70.6299 280.091 70.0002 279.314 70.0002C278.538 70.0002 277.908 70.6299 277.908 71.4065V89.3127C277.908 91.122 279.38 92.594 281.189 92.594H284.939V95.5002H283.533C282.757 95.5002 282.127 96.1299 282.127 96.9065V110.542C282.097 110.674 280.521 113.03 282.176 115.687C284.094 118.769 288.586 118.775 290.508 115.685C292.131 113.076 290.577 110.636 290.555 110.542V96.9065C290.555 96.1299 289.925 95.5002 289.149 95.5002H287.752V92.594H291.502C293.311 92.594 294.783 91.122 294.783 89.3127V71.4065C294.783 70.6299 294.154 70.0002 293.377 70.0002Z" fill="#B1C9D9"/>
<path d="M311.037 70.2456C310.559 69.9189 309.93 69.9181 309.452 70.2434C303.789 74.0936 300.408 80.4805 300.408 87.3285V94.9492C300.408 96.7585 301.88 98.2305 303.689 98.2305H308.846V88.378C308.846 87.6014 309.475 86.9718 310.252 86.9718C311.029 86.9718 311.658 87.6014 311.658 88.378V98.2306H316.81C318.619 98.2306 320.091 96.7586 320.091 94.9493V87.338C320.091 80.4837 316.705 74.0934 311.037 70.2456Z" fill="#B1C9D9"/>
<path d="M308.845 101.125H307.434C306.658 101.125 306.028 101.755 306.028 102.531V110.549C305.998 110.682 304.426 113.036 306.08 115.689C308.002 118.774 312.491 118.768 314.409 115.685C316.028 113.082 314.477 110.637 314.456 110.547V102.531C314.456 101.755 313.827 101.125 313.05 101.125H311.658V98.2305H308.845V101.125Z" fill="#B1C9D9"/>
</g>
<defs>
<clipPath id="clip0">
<rect width="42" height="42" fill="white" transform="translate(137 14)"/>
</clipPath>
<clipPath id="clip1">
<rect width="48" height="48" fill="white" transform="translate(275 70)"/>
</clipPath>
</defs>
</svg>
