<svg width="1920" height="729" viewBox="0 0 1920 729" fill="none" xmlns="http://www.w3.org/2000/svg">

<path d="M0 270L386.402 138.5L1297.85 291L1739.31 204L1901.49 50.5L1922 21V760H0V270Z" fill="#245E63"/>
<path d="M874 648.5C1408.8 822.5 1943.83 454.333 2107 272.5V1061.5H-55L101 787.5C111.162 791.195 194.232 509.38 733.5 634L778.537 638.648C808.798 639.252 840.106 637.473 874 648.5Z" fill="#5DD6C7"/>
<path d="M-53.0228 282.993C70.6146 190.077 460.955 42.1585 1033.22 193.813C1605.48 345.468 1889.52 98.4604 1960 -44C1879.52 177.894 1516.61 482.795 883.255 282.993C209.342 70.3947 -71.3177 349.709 -144.513 557.537L-149 571C-147.602 566.55 -146.107 562.06 -144.513 557.537L-53.0228 282.993Z" fill="#B5E0E3"/>

</svg>
