<svg width="152" height="152" viewBox="0 0 152 152" fill="none" xmlns="http://www.w3.org/2000/svg">
<g filter="url(#filter0_d)">
<circle cx="74" cy="74" r="68" fill="white"/>
</g>
<g clip-path="url(#clip0)">
<path d="M79.784 34.9528C79.4117 34.8111 79.154 34.4993 79.1254 34.1024C79.0681 33.4221 79.6408 32.8835 80.2707 32.9686C80.8434 33.0536 81.2442 33.5638 81.1583 34.1024C81.1011 34.7544 80.4425 35.1796 79.784 34.9528Z" fill="#245E63"/>
<path d="M100.6 32.1748C99.9991 31.9763 99.5696 31.4094 99.5123 30.7858C99.4551 29.7086 100.371 28.8866 101.402 29C102.29 29.1134 102.948 29.9354 102.834 30.8141C102.691 31.863 101.631 32.5149 100.6 32.1748Z" fill="#245E63"/>
<path d="M90.922 33.2803C90.3207 33.0819 89.8912 32.5149 89.8339 31.8913C89.748 30.8142 90.6643 29.9921 91.6951 30.1338C92.5827 30.2472 93.2412 31.0693 93.1267 31.948C92.9835 32.9685 91.9528 33.6205 90.922 33.2803Z" fill="#245E63"/>
<path d="M101.86 39.3749C100.915 39.2615 100.228 38.3827 100.371 37.4473C100.486 36.5119 101.373 35.8316 102.318 35.9733C103.263 36.0867 103.95 36.9654 103.807 37.9009C103.664 38.8363 102.805 39.4883 101.86 39.3749Z" fill="#245E63"/>
<path d="M79.5267 38.326C79.3263 39.7433 78.0092 40.7638 76.5776 40.5653C75.1459 40.3953 74.1151 39.0913 74.3156 37.6457C74.516 36.2283 75.8045 35.2079 77.2648 35.4063C78.6964 35.6047 79.6985 36.8803 79.5267 38.326Z" fill="#245E63"/>
<path d="M86.8848 49.3811C86.3694 51.5354 84.3651 53.0661 82.1317 53.0094C79.2112 52.9527 77.0351 50.4299 77.4073 47.6236C77.7509 45.0157 80.1561 43.1449 82.8189 43.485C85.6249 43.8535 87.572 46.5748 86.8848 49.3811Z" fill="#245E63"/>
<path d="M90.5497 38.7228C90.3779 40.1401 89.0608 41.1322 87.6578 40.9338C86.2261 40.7637 85.224 39.4598 85.4244 38.0424C85.5962 36.6251 86.9133 35.633 88.3163 35.8314C89.748 36.0298 90.7501 37.3338 90.5497 38.7228Z" fill="#245E63"/>
<path d="M92.4398 68.9968C89.9201 68.685 88.1449 66.3889 88.4598 63.8944C88.7748 61.4 91.0941 59.6425 93.6137 59.9543C96.1334 60.2661 97.9087 62.5622 97.5937 65.0567C97.2501 67.5511 94.9595 69.3086 92.4398 68.9968Z" fill="#245E63"/>
<path d="M112.569 37.6457C113.485 37.7591 114.115 38.5812 114 39.4599C113.857 40.4804 112.826 41.1323 111.796 40.7922C111.194 40.5938 110.765 40.0268 110.707 39.4032C110.622 38.3544 111.538 37.5323 112.569 37.6457Z" fill="#245E63"/>
<path d="M63.2063 42.6064C65.8405 42.6064 68.3888 42.9749 70.8226 43.6268C71.2807 42.6064 72.3688 41.926 73.5714 42.0961C75.003 42.2945 76.0338 43.5985 75.8334 45.0158C75.7475 45.7528 75.318 46.4331 75.2034 47.3686C74.7167 51.167 77.4368 54.6819 81.2736 55.1638C85.1104 55.6457 86.0266 53.1796 87.3437 51.1953C88.0309 50.1749 89.2908 48.956 91.7245 49.2394C94.4733 49.5796 96.3917 52.0741 96.0481 54.767C95.6759 57.5449 94.0724 58.2252 92.5835 58.5087C89.9779 59.0189 86.8283 59.3591 86.2557 63.5827C85.7403 67.5512 88.5463 70.641 92.4404 71.1512C93.872 71.3497 94.9028 72.6252 94.7024 74.0709C94.5306 75.4315 93.2993 76.4237 91.9536 76.3386C91.4096 79.0032 90.4647 81.526 89.2621 83.9355C84.3946 93.5733 70.8513 108.88 63.5499 118.773C63.4067 119.028 63.0631 119.028 62.92 118.773C55.59 108.88 42.0753 93.5733 37.2077 83.9355C35.2607 80.0804 34.0295 75.9701 34.0295 71.463C34.0009 55.6174 47.3724 42.6064 63.2063 42.6064ZM44.051 71.5764C44.5091 81.2993 52.469 89.2079 62.2901 89.6331C73.285 90.1434 82.3616 81.441 82.3616 70.6693C82.3616 60.1812 73.7718 51.6772 63.1777 51.6772C52.3258 51.6772 43.5642 60.663 44.051 71.5764Z" fill="#245E63"/>
<path d="M95.9616 48.9276C94.0146 48.6724 92.6402 46.915 92.8979 44.9874C93.1556 43.0598 94.9309 41.6992 96.8779 41.9543C98.8249 42.2095 100.199 43.9669 99.9416 45.8945C99.6839 47.822 97.9087 49.1827 95.9616 48.9276Z" fill="#245E63"/>
<path d="M102.805 52.0173C104.237 52.2157 105.267 53.4913 105.067 54.937C104.866 56.3826 103.521 57.4031 102.06 57.1763C100.715 56.9779 99.7125 55.7023 99.8557 54.3417C99.9989 52.8677 101.345 51.8188 102.805 52.0173Z" fill="#245E63"/>
<path d="M108.445 43.9954C109.504 44.1371 110.277 45.1009 110.134 46.1781C109.991 47.2269 109.018 47.9922 107.93 47.8505C106.87 47.7088 106.097 46.745 106.24 45.6678C106.412 44.619 107.386 43.882 108.445 43.9954Z" fill="#245E63"/>
<path d="M63.2053 54.6536C72.1387 54.6536 79.3828 61.8252 79.3828 70.6693C79.3828 79.5134 72.1387 86.6851 63.2053 86.6851C54.2719 86.6851 47.0278 79.5134 47.0278 70.6693C47.0278 61.8252 54.2719 54.6536 63.2053 54.6536ZM67.6434 78.8047C68.7314 78.8047 69.6477 77.926 69.6477 76.8205C69.619 75.7433 68.7314 74.8362 67.6434 74.8362C66.5553 74.8362 65.6391 75.715 65.6391 76.8205C65.6391 77.8977 66.5267 78.8047 67.6434 78.8047ZM60.7715 78.7764H60.8001C61.8882 78.7197 62.7758 77.8126 62.7185 76.7071C62.6899 75.6583 61.8023 74.8079 60.7142 74.8079C59.5975 74.8646 58.7386 75.7717 58.7672 76.8772C58.8531 77.926 59.7121 78.7764 60.7715 78.7764ZM55.3885 64.0646H56.9633C57.0492 64.0646 57.1351 64.1496 57.1638 64.2347L58.3663 72.3134C58.5095 73.3339 59.3971 74.0992 60.4565 74.0992H68.4737C69.4759 74.0992 70.3349 73.3906 70.5639 72.4268L71.8238 66.2189C71.9097 65.8221 71.6233 65.4252 71.1938 65.3402C71.1652 65.3402 71.1079 65.3118 71.0507 65.3118H58.8817L58.6813 64.0362C58.5668 63.1858 57.8223 62.5622 56.9633 62.5622H55.3885C54.959 62.5622 54.6154 62.9024 54.6154 63.3276C54.6154 63.7528 54.959 64.0646 55.3885 64.0646Z" fill="#245E63"/>
</g>
<defs>
<filter id="filter0_d" x="0" y="0" width="152" height="152" filterUnits="userSpaceOnUse" color-interpolation-filters="sRGB">
<feFlood flood-opacity="0" result="BackgroundImageFix"/>
<feColorMatrix in="SourceAlpha" type="matrix" values="0 0 0 0 0 0 0 0 0 0 0 0 0 0 0 0 0 0 127 0"/>
<feOffset dx="2" dy="2"/>
<feGaussianBlur stdDeviation="4"/>
<feColorMatrix type="matrix" values="0 0 0 0 0.362198 0 0 0 0 0.4283 0 0 0 0 0.454167 0 0 0 0.1 0"/>
<feBlend mode="normal" in2="BackgroundImageFix" result="effect1_dropShadow"/>
<feBlend mode="normal" in="SourceGraphic" in2="effect1_dropShadow" result="shape"/>
</filter>
<clipPath id="clip0">
<rect width="80" height="90" fill="white" transform="matrix(-1 0 0 1 114 29)"/>
</clipPath>
</defs>
</svg>
