<svg width="159" height="103" viewBox="0 0 159 103" fill="none" xmlns="http://www.w3.org/2000/svg">
<path d="M117.595 103C108.934 103 101.681 97.0198 99.6391 88.9993H58.4455C56.4035 97.0198 49.0802 103 40.4894 103C31.8282 103 24.5049 97.0198 22.4628 88.9993H7.39371C5.49247 88.9993 3.73206 88.2958 2.32374 87.0997C0.844996 85.8333 0 83.9337 0 81.9638V0H116.187V17.1667C122.384 17.3074 129.073 17.5184 132.242 18.0109C138.298 18.9255 145.058 22.7247 150.902 28.5642C156.113 33.7705 159.07 40.806 159.07 48.1933V77.7425C159.07 80.7678 157.873 83.6523 155.761 85.763C153.648 87.8736 150.761 89.0697 147.733 89.0697H135.622C133.509 97.0902 126.186 103 117.595 103Z" fill="white"/>
<path d="M40.419 68.1037C46.2636 68.1037 51.3336 71.129 54.2911 75.7724H103.723C105.554 72.8175 108.371 70.4958 111.61 69.2294V4.573H4.57715V75.7724H26.6175C29.4341 71.1994 34.5745 68.1037 40.419 68.1037Z" fill="#245E63"/>
<path d="M4.57715 81.9636C4.57715 82.5968 4.85881 83.23 5.42214 83.7929C5.98547 84.2854 6.68964 84.5668 7.46422 84.5668H24.0825C24.0825 82.3154 24.505 80.2048 25.35 78.3052H4.57715V81.9636Z" fill="#245E63"/>
<path d="M56.7557 84.4965H101.118C101.118 82.2451 101.54 80.1345 102.385 78.2349H55.5586C56.3332 80.1345 56.7557 82.2451 56.7557 84.4965Z" fill="#245E63"/>
<path d="M147.592 31.8004C143.086 27.2976 137.171 23.3578 131.467 22.5135C125.834 21.6692 114.778 21.5989 114.778 21.5989V68.3147C115.694 68.174 116.539 68.1037 117.525 68.1037C126.538 68.1037 133.932 75.4206 133.932 84.4964H147.663C149.423 84.4964 151.113 83.8632 152.451 82.5265C153.789 81.1897 154.423 79.5012 154.423 77.7423V48.1931C154.423 42.2129 152.169 36.3031 147.592 31.8004ZM149.634 53.7512C149.634 54.4548 149.353 55.1583 148.719 55.6508C148.156 56.1433 147.381 56.284 146.747 56.1433L122.524 51.2888C121.961 51.2184 121.468 50.937 121.116 50.4445C120.764 50.0224 120.552 49.4595 120.552 48.8967V28.2123C120.552 28.2123 128.65 28.2123 132.805 28.8455C136.959 29.4787 141.325 32.2929 144.635 35.6699C147.944 38.9766 149.634 43.3386 149.634 47.7007V53.7512Z" fill="#245E63"/>
<path d="M52.0378 76.6871C51.8265 76.4057 51.6153 76.0539 51.3336 75.7725C48.7986 72.5361 44.8553 70.4958 40.4191 70.4958C35.9829 70.4958 32.0396 72.5361 29.5046 75.7725C29.2933 76.0539 29.0821 76.4057 28.8004 76.6871C28.4483 77.1796 28.1667 77.6721 27.885 78.2349C26.8992 80.1345 26.4062 82.2452 26.4062 84.4965C26.4062 92.2356 32.6733 98.4972 40.4191 98.4972C48.1649 98.4972 54.4319 92.2356 54.4319 84.4965C54.4319 82.2452 53.8686 80.1345 52.9532 78.2349C52.6715 77.6721 52.3899 77.1796 52.0378 76.6871ZM40.4191 91.7431C36.4054 91.7431 33.1662 88.5068 33.1662 84.4965C33.1662 81.823 34.645 79.5013 36.8279 78.2349C37.8841 77.6017 39.1516 77.25 40.4191 77.25C41.757 77.25 42.9541 77.6017 44.0103 78.2349C46.1932 79.5013 47.672 81.823 47.672 84.4965C47.672 88.5068 44.4328 91.7431 40.4191 91.7431Z" fill="#245E63"/>
<path d="M117.525 70.4958C116.609 70.4958 115.694 70.5662 114.778 70.7773C113.652 70.9883 112.525 71.3401 111.539 71.8326C109.215 72.8879 107.314 74.5765 105.906 76.6871C104.427 78.9385 103.512 81.612 103.512 84.4965C103.512 92.2356 109.779 98.4972 117.525 98.4972C125.27 98.4972 131.537 92.2356 131.537 84.4965C131.537 76.7575 125.27 70.4958 117.525 70.4958ZM117.525 91.7431C113.511 91.7431 110.272 88.5068 110.272 84.4965C110.272 82.9487 110.765 81.5416 111.539 80.3456C112.314 79.2199 113.44 78.3053 114.778 77.7424C115.623 77.3907 116.539 77.1796 117.525 77.1796C121.538 77.1796 124.777 80.4159 124.777 84.4262C124.777 88.5068 121.538 91.7431 117.525 91.7431Z" fill="#245E63"/>
<path d="M111.61 10.6941H4.57715V12.5233H111.61V10.6941Z" fill="white"/>
<path d="M22.1812 23.4986V23.9911C22.1812 25.4686 21.6883 26.4535 20.7024 26.946C21.9699 27.4385 22.3924 28.5642 22.3924 30.112V31.3081C22.3924 33.5594 21.1953 34.8258 18.8716 34.8258H15.21V20.1216H18.7308C21.1953 20.1216 22.1812 21.2473 22.1812 23.4986ZM17.6041 22.2322V26.1018H18.5195C19.3645 26.1018 19.9279 25.75 19.9279 24.554V23.7097C19.9279 22.6544 19.5758 22.1619 18.7308 22.1619H17.6041V22.2322ZM17.6041 28.2124V32.7152H18.942C19.7166 32.7152 20.1391 32.3634 20.1391 31.2377V29.9713C20.1391 28.6346 19.7166 28.2124 18.6604 28.2124H17.6041Z" fill="white"/>
<path d="M26.1245 26.3128H29.2933V28.4235H26.1245V32.7152H30.1382V34.8258H23.8008V20.1216H30.1382V22.2322H26.1245V26.3128Z" fill="white"/>
<path d="M36.0536 23.7801C36.0536 22.4434 35.5607 22.0916 34.8565 22.0916C34.1524 22.0916 33.6595 22.5137 33.6595 23.5691V24.7651H31.547V23.6394C31.547 21.3177 32.6736 19.981 34.927 19.981C37.1803 19.981 38.3774 21.3177 38.3774 23.7098V24.0616C38.3774 25.6094 37.8844 26.5943 36.7578 27.0868C37.8844 27.5793 38.3774 28.705 38.3774 30.1825V31.3081C38.3774 33.6299 37.1803 35.037 34.927 35.037C32.6736 35.037 31.4766 33.7002 31.4766 31.3081V29.69H33.6595V31.4489C33.6595 32.5042 34.1524 32.9263 34.8565 32.9263C35.5607 32.9263 36.0536 32.5745 36.0536 31.2378V30.1121C36.0536 28.7754 35.5607 28.2125 34.5045 28.2125H33.9411V26.1019H34.6453C35.4903 26.1019 36.0536 25.7501 36.0536 24.554V23.7801Z" fill="white"/>
<path d="M42.1792 26.3128H45.3479V28.4235H42.1792V32.7152H46.1929V34.8258H39.8555V20.1216H46.1929V22.2322H42.1792V26.3128ZM42.4609 17.3074V19.3477H40.4188V17.3074H42.4609ZM45.6296 17.3074V19.3477H43.5875V17.3074H45.6296Z" fill="white"/>
<path d="M52.5307 30.6045L54.0799 20.1919H57.319V34.8962H55.1361V24.3429L53.5165 34.8962H51.3336L49.6436 24.4836V34.8962H47.6016V20.1216H50.8407L52.5307 30.6045Z" fill="white"/>
<path d="M15.2803 60.0834V45.3792H21.7586V47.4898H17.604V51.2186H18.9419C21.2657 51.2186 22.4627 52.485 22.4627 54.8771V56.4249C22.4627 58.7466 21.2657 60.0834 18.9419 60.0834H15.2803ZM18.9419 57.9727C19.6461 57.9727 20.139 57.621 20.139 56.5656V54.666C20.139 53.6107 19.7165 53.2589 18.9419 53.2589H17.604V57.9024H18.9419V57.9727Z" fill="white"/>
<path d="M26.3355 51.5704H29.5042V53.6811H26.3355V57.9727H30.3492V60.0834H24.0117V45.3792H30.3492V47.4898H26.3355V51.5704Z" fill="white"/>
<path d="M38.4477 54.5956V56.5655C38.4477 58.8872 37.2506 60.2943 34.9973 60.2943C32.744 60.2943 31.5469 58.9576 31.5469 56.5655V48.8968C31.5469 46.5751 32.744 45.168 34.9973 45.168C37.2506 45.168 38.4477 46.5047 38.4477 48.8968V50.3039H36.2648V48.7561C36.2648 47.7008 35.7719 47.2786 35.0677 47.2786C34.3635 47.2786 33.8706 47.7008 33.8706 48.7561V56.7062C33.8706 57.7615 34.3635 58.1133 35.0677 58.1133C35.7719 58.1133 36.2648 57.7615 36.2648 56.7062V54.5956H38.4477Z" fill="white"/>
<path d="M42.1792 60.0834H39.8555V45.3792H47.1788V60.0834H44.855V47.4195H42.2496V60.0834H42.1792Z" fill="white"/>
<path d="M48.2355 57.9727C49.2917 57.9727 49.6438 57.832 49.6438 56.4249L49.9959 45.3792H56.5446V60.0834H54.2208V47.4195H52.1788L51.8971 56.2842C51.8267 58.9577 50.8409 60.013 48.5171 60.013H48.165V57.9727H48.2355Z" fill="white"/>
<path d="M65.7687 60.0834H63.4449L63.0224 57.4099H60.2058L59.8537 60.0834H57.7412L60.065 45.3792H63.4449L65.7687 60.0834ZM60.5579 55.3696H62.8112L61.6845 47.9119L60.5579 55.3696Z" fill="white"/>
<path d="M66.1914 45.3792H73.3739V47.4898H70.9797V60.0834H68.656V47.4195H66.1914V45.3792Z" fill="white"/>
<path d="M76.6831 60.0834H74.3594V45.3792H76.6831V51.7111H79.2885V45.3792H81.6123V60.0834H79.2885V53.7514H76.6831V60.0834Z" fill="white"/>
<path d="M83.1621 48.8968C83.1621 46.5751 84.4296 45.168 86.6829 45.168C88.9362 45.168 90.2037 46.5047 90.2037 48.8968V56.5655C90.2037 58.8872 88.9362 60.2943 86.6829 60.2943C84.4296 60.2943 83.1621 58.9576 83.1621 56.5655V48.8968ZM85.4858 56.7062C85.4858 57.7615 85.9788 58.1837 86.6829 58.1837C87.3871 58.1837 87.88 57.7615 87.88 56.7062V48.7561C87.88 47.7008 87.3871 47.2786 86.6829 47.2786C85.9788 47.2786 85.4858 47.7008 85.4858 48.7561V56.7062Z" fill="white"/>
</svg>
