<svg width="15" height="15" viewBox="0 0 15 15" fill="none" xmlns="http://www.w3.org/2000/svg">
<path d="M7.5 0C11.6355 0 15 3.36451 15 7.5C15 11.6355 11.6355 15 7.5 15C3.36451 15 0 11.6355 0 7.5C0 3.36451 3.36451 0 7.5 0ZM8.31804 1.36538C8.1114 1.338 7.90302 1.40085 7.74579 1.53772C7.58856 1.67459 7.49706 1.87259 7.49596 2.08102L7.47162 6.77051C7.47062 6.96363 7.54664 7.14918 7.68283 7.28611C7.81902 7.42304 8.00421 7.5 8.19733 7.5H12.9147C13.1241 7.5 13.3232 7.40955 13.461 7.25196C13.5988 7.09436 13.6617 6.88493 13.634 6.67739C13.2662 3.92019 11.0759 1.7312 8.31804 1.36538Z" fill="#F4A528"/>
</svg>
