<svg width="259" height="20" viewBox="0 0 259 20" fill="none" xmlns="http://www.w3.org/2000/svg">
<g clip-path="url(#clip0)">
<path d="M139.481 10.1235C139.481 15.5556 135.045 20.2469 129.377 20.2469C123.956 20.2469 119.273 15.8025 119.273 10.1235C119.273 4.69136 123.709 0 129.377 0C135.045 0 139.481 4.44444 139.481 10.1235Z" fill="#DAE8F1"/>
<path d="M223.512 10.1243C223.512 7.90207 225.237 5.92676 227.701 5.92676C229.919 5.92676 231.89 7.65515 231.89 10.1243C231.89 12.3465 230.165 14.3218 227.701 14.3218C225.237 14.0749 223.512 12.3465 223.512 10.1243Z" fill="#DAE8F1"/>
<path d="M170.037 10.1243C170.037 7.90207 171.762 5.92676 174.226 5.92676C176.444 5.92676 178.416 7.65515 178.416 10.1243C178.416 12.3465 176.691 14.3218 174.226 14.3218C171.762 14.0749 170.037 12.3465 170.037 10.1243Z" fill="#DAE8F1"/>
<path d="M258.262 10.8653H143.179C142.686 10.8653 142.439 10.6184 142.439 10.1245C142.439 9.6307 142.686 9.38379 143.179 9.38379H258.262C258.755 9.38379 259.002 9.6307 259.002 10.1245C259.002 10.3714 258.755 10.8653 258.262 10.8653Z" fill="#DAE8F1"/>
<path d="M35.7322 10.1243C35.7322 12.3465 34.0072 14.3218 31.5429 14.3218C29.325 14.3218 27.3535 12.5934 27.3535 10.1243C27.3535 7.90207 29.0785 5.92676 31.5429 5.92676C33.7607 5.92676 35.7322 7.65515 35.7322 10.1243Z" fill="#DAE8F1"/>
<path d="M89.2068 10.1243C89.2068 12.3465 87.4818 14.3218 85.0175 14.3218C82.7996 14.3218 80.8281 12.5934 80.8281 10.1243C80.8281 7.90207 82.5532 5.92676 85.0175 5.92676C87.2354 5.92676 89.2068 7.65515 89.2068 10.1243Z" fill="#DAE8F1"/>
<path d="M115.823 10.8653H0.739296C0.246432 10.8653 0 10.3714 0 10.1245C0 9.6307 0.246432 9.38379 0.739296 9.38379H115.823C116.316 9.38379 116.562 9.6307 116.562 10.1245C116.562 10.3714 116.316 10.8653 115.823 10.8653Z" fill="#DAE8F1"/>
</g>
<defs>
<clipPath id="clip0">
<rect width="259" height="20" fill="white"/>
</clipPath>
</defs>
</svg>
