<svg width="47" height="47" viewBox="0 0 47 47" fill="none" xmlns="http://www.w3.org/2000/svg">
<path d="M35.0804 18.8401C38.8958 18.8401 42 15.736 42 11.9206C42 8.10517 38.8959 5.00097 35.0804 5.00097C31.2649 5.00097 28.1609 8.1051 28.1609 11.9205C28.1609 15.7359 31.265 18.8401 35.0804 18.8401ZM32.1292 10.6646L33.9548 12.4902L37.8182 8.62682L39.2683 10.0769L33.9548 15.3904L30.6791 12.1147L32.1292 10.6646Z" fill="white"/>
<path d="M15.086 30.586H37.1956L38.2219 20.3223C37.2439 20.6892 36.1856 20.8903 35.081 20.8903C30.1348 20.8903 26.1106 16.8662 26.1106 11.92C26.1106 11.1566 26.2068 10.4152 26.3871 9.70702H14.1311L13.6604 5H7V7.05078H11.8044L13.9718 28.7247C12.6546 29.1862 11.707 30.4412 11.707 31.9141C11.707 33.7772 13.2228 35.2929 15.086 35.2929H16.6724C16.4974 35.7008 16.4001 36.1497 16.4001 36.6211C16.4001 38.4842 17.9158 40 19.779 40C21.6421 40 23.1579 38.4842 23.1579 36.6211C23.1579 36.1498 23.0606 35.7009 22.8856 35.2929H28.4681C28.2931 35.7008 28.1958 36.1497 28.1958 36.6211C28.1958 38.4842 29.7116 40 31.5747 40C33.4379 40 34.9537 38.4842 34.9537 36.6211C34.9537 36.1498 34.8564 35.7009 34.6813 35.2929H37.1954V33.2421H15.086C14.3536 33.2421 13.7578 32.6464 13.7578 31.9141C13.7578 31.1817 14.3536 30.586 15.086 30.586ZM29.3724 23.8282H31.4232V25.8789H29.3724V23.8282ZM24.6514 23.8282H26.7022V25.8789H24.6514V23.8282ZM19.9303 23.8282H21.9811V25.8789H19.9303V23.8282Z" fill="white"/>
</svg>
