<svg width="47" height="47" viewBox="0 0 47 47" fill="none" xmlns="http://www.w3.org/2000/svg">
<path d="M37.6129 26.41H24.365C24.7391 25.2164 24.8793 24.0377 24.7858 22.6352C31.3162 21.7997 36.6933 11.0721 33.3736 9.35629C28.6355 6.92431 22.9 14.7275 22.9 14.7275C22.8532 14.5634 22.7909 14.3844 22.7285 14.2202C21.8401 11.46 22.2298 8.65504 23.8974 5.8799C25.1911 3.71648 26.812 2.38859 26.8276 2.37367C27.4198 1.89623 27.4977 1.04578 26.999 0.478818C26.5003 -0.0881463 25.6119 -0.162747 25.0196 0.314697C24.8482 0.448978 22.5415 2.35875 20.9517 5.4323C19.7828 3.92537 15.3097 -1.32652 11.4289 0.598179C8.2182 2.17971 13.3459 12.6984 19.6269 13.2952C19.7205 13.8622 19.8607 14.4291 20.0633 15.0259C22.2453 21.6803 22.4168 23.9034 21.4037 26.41H9.40271C8.62343 26.41 8 27.0068 8 27.7528C8 28.4988 8.62343 29.0956 9.40271 29.0956H37.5973C38.3766 29.0956 39 28.4988 39 27.7528C39 27.0068 38.3922 26.41 37.6129 26.41Z" fill="white"/>
<path d="M34.1842 31.3339H12.9876C12.4888 31.3339 12.1148 31.7815 12.1927 32.2738L13.5954 41.2558C13.5954 44.4188 16.1203 47 19.253 47H27.8875C31.0047 47 33.5451 44.4337 33.5451 41.2558L34.9479 32.2738C35.0414 31.7815 34.6673 31.3339 34.1842 31.3339Z" fill="white"/>
</svg>
