<svg width="47" height="47" viewBox="0 0 47 47" fill="none" xmlns="http://www.w3.org/2000/svg">
<g clip-path="url(#clip0)">
<path d="M36.3064 7.35597C36.9837 9.8757 39.0155 14.9992 37.3646 22.4744C35.7561 29.9496 25.3009 33.1833 22.7188 34.2331C20.179 35.283 29.8301 41.3304 32.3698 38.3487C34.9519 35.367 34.1053 33.4772 38.2536 31.5034C42.4018 29.5296 45.2378 26.464 44.9839 23.7342C44.7299 21.0465 42.9097 20.8365 42.6134 19.9126C42.3171 18.9887 44.2643 19.5347 43.2061 12.4794C42.1902 5.38217 36.8144 5.88612 36.3064 7.35597Z" fill="white"/>
<path d="M33.2587 10.7148C37.2799 17.4341 35.6714 22.5576 34.4439 24.6154C33.174 26.7991 26.4437 33.2244 21.6605 30.3267C15.6498 26.7571 16.8773 25.4553 13.1523 25.1613C13.1523 24.6154 13.1523 20.4578 19.2477 20.7518C25.1738 21.0457 32.7507 22.1376 32.8777 10.8408C32.8354 10.5468 33.0893 10.4628 33.2587 10.7148Z" fill="white"/>
<path d="M34.1483 8.5319C33.979 6.09615 33.471 0.258769 25.3438 0.00679538C19.6717 -0.203183 15.4388 4.50032 13.9996 7.566C12.6028 10.6737 14.042 17.393 15.7775 17.435C16.7934 17.435 16.624 15.7131 16.751 13.5714C16.878 11.5556 17.0897 9.53979 17.8516 7.85997C19.4178 4.29034 22.3385 3.7864 26.3174 3.7864C30.3387 3.7864 32.4128 7.48201 33.6827 8.95185C33.979 9.28782 34.1906 9.16183 34.1483 8.5319Z" fill="white"/>
<path d="M13.0268 16.259C9.89447 5.67609 15.9052 4.12226 15.4396 3.36634C14.9316 2.56842 11.4183 2.02248 9.80981 3.32434C8.20131 4.6262 7.35472 6.13805 7.43938 9.83366C7.48171 12.6474 10.7411 15.3771 12.4342 16.6789C12.9422 17.0569 13.1538 16.6369 13.0268 16.259Z" fill="white"/>
<path d="M22.2964 32.8892C22.2117 32.0913 18.4868 30.3695 16.6243 28.4797C14.8041 26.6318 10.9099 25.624 10.9099 25.624C10.9099 25.624 12.2644 21.7184 11.4601 19.5766C10.6559 17.4348 8.41245 14.3691 7.73518 14.2012C7.05791 14.0332 3.12131 15.377 4.17954 18.4847C5.23776 21.5924 2.78268 23.9861 5.11078 28.4797C7.43888 32.9312 22.381 33.6871 22.2964 32.8892Z" fill="white"/>
<path d="M18.8275 18.9461C19.5471 19.3661 23.3991 19.702 24.1187 19.0301C24.8383 18.3582 27.6743 13.9487 27.9283 12.1008C28.2246 10.253 28.1823 9.87508 27.0817 8.74121C25.9811 7.56533 23.1874 8.11127 22.2985 9.53912C21.4096 10.967 22.0869 11.6809 22.5102 11.8069C22.9335 11.9329 22.4678 10.841 23.0181 10.211C23.5684 9.53912 25.2192 8.90919 25.8118 9.87508C26.4044 10.841 26.2351 13.8647 23.5261 13.9067C20.436 13.9487 20.69 10.589 21.3673 9.28715C22.0445 7.98528 25.5155 5.50755 28.5632 8.32125C31.0606 10.631 28.2246 15.6285 27.632 16.1744C27.0817 16.7624 26.0235 19.3241 28.0129 18.4422C30.0447 17.5183 31.8226 15.3345 31.5686 11.1769C31.2723 6.97739 27.4627 4.62564 23.3144 5.88551C19.1662 7.18737 18.8275 9.7491 18.1079 12.6888C17.4307 15.5865 18.1503 18.5262 18.8275 18.9461Z" fill="white"/>
<path d="M16.8781 35.4097L19.7988 34.7798C19.7988 34.7798 20.2644 34.6118 20.0951 35.4097C19.9258 36.2496 17.6823 47.0005 17.6823 47.0005L15.1426 46.5385C15.1426 46.5385 16.2008 37.0055 16.2855 36.2076C16.2855 35.4097 16.8781 35.4097 16.8781 35.4097Z" fill="white"/>
<path d="M23.2277 11.3872C22.9737 11.7232 23.397 12.7311 24.4976 12.4371C25.5981 12.1432 25.6828 11.1353 25.4288 10.5893C25.1748 10.0434 24.5399 10.2954 24.6245 10.9673C24.7092 12.1432 23.6086 10.9253 23.2277 11.3872Z" fill="white"/>
</g>
<defs>
<clipPath id="clip0">
<rect width="47" height="47" fill="white"/>
</clipPath>
</defs>
</svg>
