<svg width="47" height="47" viewBox="0 0 47 47" fill="none" xmlns="http://www.w3.org/2000/svg">
<g clip-path="url(#clip0)">
<path d="M45.3926 45.4833C45.3926 46.3211 44.7141 46.9996 43.8763 46.9996H3.12379C2.286 46.9996 1.60742 46.3211 1.60742 45.4833C1.60742 44.6455 2.286 43.9669 3.12379 43.9669H6.03902C6.92458 38.9161 10.2701 35.716 14.561 34.9445C16.7471 28.5773 25.6348 28.1604 28.4349 34.2839C30.7368 34.0926 32.8207 35.5795 33.4512 37.6806C37.7748 37.1421 41.2494 40.0976 41.8955 43.9669H43.8763C44.7141 43.9669 45.3926 44.6455 45.3926 45.4833ZM24.0377 38.3166C24.0377 37.4791 23.3587 36.8003 22.5213 36.8003C20.3428 36.8003 18.4805 38.3543 18.0928 40.4956C17.9437 41.3196 18.4908 42.1086 19.3149 42.2578C20.1381 42.407 20.9279 41.8604 21.0771 41.0357C21.2033 40.3387 21.8107 39.833 22.5213 39.833C23.3587 39.833 24.0377 39.1541 24.0377 38.3166ZM40.7061 4.97912L39.7688 7.25273C38.8459 9.48663 36.5941 10.7346 34.3345 10.5063C34.2033 10.8243 29.7015 21.7384 27.7279 26.5239C27.3166 27.5209 28.0504 28.6192 29.1295 28.6192C29.7247 28.6192 30.2905 28.2658 30.5312 27.6801L31.471 25.4015C31.668 24.9238 32.2151 24.6964 32.6926 24.8935L33.9516 25.4132C34.7251 25.7327 35.0946 26.6202 34.7752 27.393C33.4125 30.6976 32.8762 32.0059 32.6204 32.6148C32.4524 33.0148 32.0327 33.2407 31.6038 33.1756C31.3157 33.1318 31.0248 33.1087 30.7334 33.1067C30.3946 33.1042 30.0856 32.9112 29.9267 32.612C27.6367 28.2989 22.5667 26.522 18.207 28.1179C17.4635 28.3901 16.7427 27.669 17.0085 26.9232C17.3888 25.8562 18.0575 24.3078 19.4001 21.0518C19.7195 20.2775 20.6066 19.9088 21.3809 20.2283L26.22 22.2242L31.5302 9.35025C29.7873 7.93926 29.0406 5.46711 29.9702 3.21084L30.9084 0.938181C31.2265 0.163884 32.1151 -0.204121 32.8883 0.114602C34.7209 0.870418 32.9798 0.152322 39.8825 2.9995C40.6593 3.3203 41.0244 4.2088 40.7061 4.97912ZM37.3246 5.22458C32.8635 3.3839 33.4171 3.61211 33.1337 3.49592L32.7736 4.36783C32.004 6.2361 33.886 8.09488 35.74 7.32475C36.7451 6.90567 36.9492 6.13497 37.3246 5.22458Z" fill="white"/>
</g>
<defs>
<clipPath id="clip0">
<rect width="47" height="47" fill="white"/>
</clipPath>
</defs>
</svg>
