<svg width="45" height="47" viewBox="0 0 45 47" fill="none" xmlns="http://www.w3.org/2000/svg">
<path d="M22.4998 1.62069C22.9436 1.62069 23.3034 1.25788 23.3034 0.810344C23.3034 0.362803 22.9436 0 22.4998 0C22.056 0 21.6962 0.362803 21.6962 0.810344C21.6962 1.25788 22.056 1.62069 22.4998 1.62069Z" fill="white"/>
<path d="M16.0716 5.67232C16.5154 5.67232 16.8752 5.30952 16.8752 4.86198C16.8752 4.41444 16.5154 4.05164 16.0716 4.05164C15.6278 4.05164 15.268 4.41444 15.268 4.86198C15.268 5.30952 15.6278 5.67232 16.0716 5.67232Z" fill="white"/>
<path d="M4.01829 12.1553C4.46209 12.1553 4.82186 11.7925 4.82186 11.345C4.82186 10.8974 4.46209 10.5346 4.01829 10.5346C3.57449 10.5346 3.21472 10.8974 3.21472 11.345C3.21472 11.7925 3.57449 12.1553 4.01829 12.1553Z" fill="white"/>
<path d="M28.928 5.67232C29.3718 5.67232 29.7315 5.30952 29.7315 4.86198C29.7315 4.41444 29.3718 4.05164 28.928 4.05164C28.4842 4.05164 28.1244 4.41444 28.1244 4.86198C28.1244 5.30952 28.4842 5.67232 28.928 5.67232Z" fill="white"/>
<path d="M40.9825 12.1553C41.4263 12.1553 41.7861 11.7925 41.7861 11.345C41.7861 10.8974 41.4263 10.5346 40.9825 10.5346C40.5387 10.5346 40.179 10.8974 40.179 11.345C40.179 11.7925 40.5387 12.1553 40.9825 12.1553Z" fill="white"/>
<path d="M42.5411 20.1452C42.3241 23.2488 41.3277 28.7511 37.2455 31.7575C35.0663 33.4358 32.4171 34.3774 29.6759 34.4478C36.7554 31.8304 39.7125 25.453 40.9259 20.988C41.524 20.843 42.0782 20.5538 42.5411 20.1452ZM39.8652 18.638C38.258 27.5518 32.7134 33.6537 23.3518 33.994C23.5687 31.6926 24.7179 25.2666 30.7687 23.4595C34.1067 22.5237 37.208 20.8799 39.8652 18.638ZM36.2009 12.9656C36.7418 15.0458 36.7612 17.229 36.2571 19.3187C35.1833 19.969 34.0602 20.5326 32.8982 21.0042C32.6115 18.8066 31.755 16.7242 30.4152 14.9671C32.1856 13.9034 34.1557 13.2218 36.2009 12.9656ZM31.7893 9.7242C32.2188 10.4686 32.5561 11.2632 32.7938 12.0904C31.5942 12.456 30.4563 13.0024 29.4187 13.7111C29.0009 13.2168 28.567 12.7468 28.1411 12.3092C29.0879 11.1145 30.3537 10.2176 31.7893 9.7242ZM22.5 9.7242C23.392 10.3076 31.0741 15.5344 31.3393 21.5795C31.0018 21.693 30.6723 21.8064 30.3107 21.9118C25.6018 23.338 23.4643 27.1061 22.5 30.2097C21.5357 27.1061 19.3982 23.338 14.6973 21.8794C14.3357 21.774 14.0062 21.6606 13.6687 21.5471C13.9259 15.5344 21.608 10.3076 22.5 9.7242ZM13.1946 9.7242C14.6471 10.1931 15.9283 11.0873 16.875 12.293C16.4491 12.7306 16.0152 13.1925 15.6054 13.6868C14.5632 12.9812 13.4231 12.435 12.2223 12.0661C12.4573 11.2508 12.7836 10.4651 13.1946 9.7242ZM8.79107 12.9656C10.835 13.2382 12.8045 13.9186 14.5848 14.9671C13.2453 16.7213 12.3888 18.8011 12.1018 20.9961C10.9355 20.5252 9.80939 19.9588 8.73482 19.3025C8.24434 17.2168 8.26364 15.0421 8.79107 12.9656ZM14.2312 23.5C20.3545 25.3476 21.4634 31.7412 21.6562 34.0345C12.3188 33.6861 6.75804 27.5518 5.13482 18.638C7.77685 20.9115 10.8823 22.5714 14.2312 23.5ZM4.06607 20.988C5.27946 25.4449 8.22857 31.798 15.2679 34.4316C12.559 34.3468 9.94376 33.412 7.78661 31.7575C3.70446 28.7592 2.7 23.2569 2.46696 20.1533C2.92419 20.5594 3.47331 20.846 4.06607 20.988ZM8.03571 35.6552C4.87768 35.6552 1.50268 33.5402 0 32.2923C1.41236 31.6229 2.88056 31.0806 4.3875 30.6716C5.7547 32.4186 7.51861 33.8083 9.53036 34.7233C9.24911 34.9907 8.92768 35.3149 8.59018 35.6876L8.03571 35.6552ZM7.23214 42.138C7.60982 38.5968 10.3018 36.109 11.2098 35.3635C12.4876 35.7984 13.8232 36.036 15.1714 36.0685C14.6028 37.4372 14.3792 38.9267 14.5205 40.4038C12.2203 41.4374 9.74791 42.0257 7.23214 42.138ZM22.5 47C20.0893 45.6792 16.0714 42.6647 16.0714 39.7069C16.0734 38.4106 16.3877 37.1341 16.9875 35.9874C17.8083 35.9001 18.6168 35.7207 19.3982 35.4526C21.4546 35.7242 23.5373 35.7242 25.5938 35.4526C26.3737 35.7273 27.1827 35.9095 28.0045 35.9956C28.6058 37.139 28.9229 38.4126 28.9286 39.7069C28.9286 42.6647 24.9107 45.6792 22.5 47ZM30.4714 40.3957C30.6107 38.9186 30.3872 37.4297 29.8205 36.0604C31.1867 36.0305 32.5408 35.7956 33.8384 35.3635C35.9589 37.032 37.3651 39.4562 37.7679 42.138C35.2523 42.0176 32.7809 41.4268 30.4795 40.3957H30.4714ZM36.9643 35.6552H36.4098C36.0804 35.2824 35.7589 34.9664 35.4777 34.699C37.5147 33.7962 39.3022 32.4053 40.6848 30.6473C42.1782 31.025 43.6255 31.5685 45 32.268C44.5902 32.6164 40.8616 35.6552 36.9643 35.6552Z" fill="white"/>
</svg>
