<svg width="41" height="47" viewBox="0 0 41 47" fill="none" xmlns="http://www.w3.org/2000/svg">
<path d="M41 26.2535C41 19.8314 37.0308 13.868 30.6418 10.6919C27.9512 9.35259 26.0173 6.92256 25.3393 4.18473L25.2218 3.71547C25.1008 3.22666 24.888 2.78493 24.6395 2.37167L24.6413 2.74601C24.9135 7.26533 26.6059 11.6559 29.5328 15.1964L31.7737 17.9045C35.8723 22.8609 36.6719 29.7926 33.8077 35.5637C31.8057 39.6004 28.3864 42.5371 24.4292 43.6208C23.1399 43.9745 21.8187 44.1533 20.5 44.1533C19.1813 44.1533 17.8601 43.9745 16.5708 43.6208C12.6137 42.537 9.19441 39.6003 7.19238 35.5637C4.32824 29.7925 5.12767 22.8609 9.22639 17.9045L11.4673 15.1951C14.3941 11.6559 16.0865 7.26533 16.3615 2.66936L16.3636 2.3634C16.1127 2.7786 15.8991 3.22363 15.7769 3.71547L15.6621 4.18473C14.9827 6.92238 13.0489 9.35259 10.3596 10.6919C3.96916 13.8679 0 19.8314 0 26.2535C0 34.3081 6.12636 41.1332 14.5233 43.3727C14.0252 43.7347 13.5464 44.2189 13.1182 44.6701C12.5963 45.2201 12.6163 46.0928 13.1609 46.6172C13.7108 47.1457 14.573 47.1228 15.0935 46.5742C15.4874 46.1588 15.9361 45.8166 16.4107 45.518C16.4098 45.5534 16.4002 45.5865 16.4002 45.6221C16.4002 46.3832 17.0115 46.9991 17.7669 46.9991C18.5223 46.9991 19.1336 46.3832 19.1336 45.6221C19.1336 45.0892 19.4439 44.5479 19.8842 44.319C20.2963 44.2874 20.7043 44.2874 21.1164 44.319C21.5566 44.5479 21.867 45.0892 21.867 45.6221C21.867 46.3832 22.4782 46.9991 23.2337 46.9991C23.9891 46.9991 24.6004 46.3832 24.6004 45.6221C24.6004 45.5865 24.5907 45.5534 24.5899 45.518C25.0645 45.8167 25.5131 46.1589 25.907 46.5742C26.1753 46.8565 26.5343 46.9991 26.8947 46.9991C27.2337 46.9991 27.574 46.8727 27.8396 46.6172C28.3842 46.0928 28.4042 45.2201 27.8823 44.6701C27.4541 44.2189 26.9753 43.7347 26.4773 43.3727C34.8736 41.1332 41 34.3082 41 26.2535Z" fill="white"/>
<path d="M23.3905 18.0361C22.3788 14.4795 21.8663 10.8019 21.8663 7.10274V1.38658C21.8663 0.692236 21.3532 0.105474 20.6692 0.0201034C20.5652 0.00716012 20.4997 0 20.4997 0C20.4995 0 20.4335 0.00725191 20.3285 0.0203788C19.6441 0.105841 19.133 0.690217 19.133 1.38512V7.10283C19.133 10.802 18.6205 14.4795 17.6088 18.0361C15.5748 25.1897 15.7696 32.6901 18.1693 39.724C18.5124 40.7257 19.448 41.3994 20.4997 41.3994C21.5515 41.3994 22.4871 40.7257 22.83 39.724C25.2297 32.6901 25.4246 25.1897 23.3905 18.0361Z" fill="white"/>
<path d="M29.6721 19.6683L27.4311 16.9589C26.5996 15.9517 25.8549 14.8908 25.2036 13.7842C25.4185 14.9594 25.6894 16.1253 26.0164 17.2776C28.1733 24.8627 28.0038 32.8082 25.5266 40.2817C27.9584 39.1105 30.0284 37.0197 31.3617 34.3317C33.7401 29.5394 33.0767 23.7829 29.6721 19.6683Z" fill="white"/>
<path d="M14.9819 17.2779C15.3089 16.1256 15.5799 14.9585 15.7948 13.7832C15.1435 14.8912 14.3987 15.9522 13.5672 16.9579L11.3263 19.6686C7.92176 23.7833 7.25845 29.5398 9.63669 34.3321C10.97 37.02 13.04 39.111 15.4718 40.2821C12.996 32.8085 12.8252 24.863 14.9819 17.2779Z" fill="white"/>
</svg>
