<svg width="47" height="47" viewBox="0 0 47 47" fill="none" xmlns="http://www.w3.org/2000/svg">
<path d="M45.623 44.2461H39.6562V40.1532C40.3891 40.6927 41.3328 41.1583 42.4102 41.1583C44.8271 41.1583 46.5745 38.8163 46.7658 38.5493C47.078 38.1134 47.078 37.5271 46.7658 37.0914C46.5745 36.8243 44.8271 34.4823 42.4102 34.4823C41.3327 34.4823 40.389 34.9479 39.6562 35.4874V32.4587C40.4366 31.7352 41.6174 30.357 41.6174 28.6406C41.6174 26.2237 39.2754 24.4762 39.0083 24.2849C38.5725 23.9728 37.9862 23.9728 37.5503 24.2849C37.2833 24.4762 34.9413 26.2236 34.9413 28.6406C34.9413 30.3571 36.1221 31.7352 36.9024 32.4587V35.4874C36.1696 34.9479 35.2259 34.4823 34.1485 34.4823C31.7316 34.4823 29.9842 36.8243 29.7929 37.0914C29.4807 37.5272 29.4807 38.1135 29.7929 38.5493C29.9842 38.8163 31.7316 41.1583 34.1485 41.1583C35.2259 41.1583 36.1697 40.6927 36.9024 40.1532V44.2461H19.9199V40.1532C20.6527 40.6927 21.5965 41.1583 22.6738 41.1583C25.0907 41.1583 26.8382 38.8163 27.0295 38.5493C27.3417 38.1134 27.3417 37.5271 27.0295 37.0914C26.8382 36.8243 25.0907 34.4823 22.6738 34.4823C21.5964 34.4823 20.6526 34.9479 19.9199 35.4874V32.4587C20.7003 31.7352 21.8811 30.357 21.8811 28.6406C21.8811 26.2237 19.5391 24.4762 19.272 24.2849C18.8362 23.9728 18.2499 23.9728 17.814 24.2849C17.547 24.4762 15.205 26.2236 15.205 28.6406C15.205 30.3571 16.3857 31.7352 17.1661 32.4587V35.4874C16.4333 34.9479 15.4895 34.4823 14.4122 34.4823C11.9953 34.4823 10.2478 36.8243 10.0565 37.0914C9.74433 37.5272 9.74433 38.1135 10.0565 38.5493C10.2478 38.8163 11.9953 41.1583 14.4122 41.1583C15.4896 41.1583 16.4334 40.6927 17.1661 40.1532V44.2461H1.37695C0.616508 44.2461 0 44.8626 0 45.6231C0 46.3835 0.616508 47 1.37695 47H45.623C46.3835 47 47 46.3835 47 45.6231C47 44.8626 46.3835 44.2461 45.623 44.2461Z" fill="white"/>
<path d="M6.42578 27.5399H1.37695C0.616508 27.5399 0 28.1564 0 28.9169C0 29.6773 0.616508 30.2938 1.37695 30.2938H6.42578C9.96896 30.2938 12.8516 27.4112 12.8516 23.868C12.8516 20.3249 9.96896 17.4423 6.42578 17.4423C4.40111 17.4423 2.75391 15.7951 2.75391 13.7704C2.75391 11.7457 4.40111 10.0985 6.42578 10.0985H8.26172V10.5575C8.26172 11.3179 8.87823 11.9344 9.63867 11.9344C10.3991 11.9344 11.0156 11.3179 11.0156 10.5575V10.0985H12.3926C13.153 10.0985 13.7695 9.482 13.7695 8.72155C13.7695 7.96111 13.153 7.3446 12.3926 7.3446H11.0156V6.88562C11.0156 6.12517 10.3991 5.50866 9.63867 5.50866C8.87823 5.50866 8.26172 6.12517 8.26172 6.88562V7.3446H6.42578C2.88261 7.3446 0 10.2272 0 13.7704C0 17.3136 2.88261 20.1962 6.42578 20.1962C8.45045 20.1962 10.0977 21.8434 10.0977 23.868C10.0977 25.8927 8.45045 27.5399 6.42578 27.5399Z" fill="white"/>
<path d="M25.2441 10.0985C26.0046 10.0985 26.6211 9.48202 26.6211 8.72155C26.6211 7.96108 26.0046 7.3446 25.2441 7.3446C24.4837 7.3446 23.8672 7.96108 23.8672 8.72155C23.8672 9.48202 24.4837 10.0985 25.2441 10.0985Z" fill="white"/>
<path d="M30.752 10.0985C31.5124 10.0985 32.1289 9.48202 32.1289 8.72155C32.1289 7.96108 31.5124 7.3446 30.752 7.3446C29.9915 7.3446 29.375 7.96108 29.375 8.72155C29.375 9.48202 29.9915 10.0985 30.752 10.0985Z" fill="white"/>
<path d="M26.1621 2.75391C26.9226 2.75391 27.5391 2.13742 27.5391 1.37695C27.5391 0.616483 26.9226 0 26.1621 0C25.4016 0 24.7852 0.616483 24.7852 1.37695C24.7852 2.13742 25.4016 2.75391 26.1621 2.75391Z" fill="white"/>
<path d="M26.1621 17.4414C26.9226 17.4414 27.5391 16.8249 27.5391 16.0645C27.5391 15.304 26.9226 14.6875 26.1621 14.6875C25.4016 14.6875 24.7852 15.304 24.7852 16.0645C24.7852 16.8249 25.4016 17.4414 26.1621 17.4414Z" fill="white"/>
<path d="M21.5723 13.7704C22.3327 13.7704 22.9492 13.1539 22.9492 12.3934C22.9492 11.633 22.3327 11.0165 21.5723 11.0165C20.8118 11.0165 20.1953 11.633 20.1953 12.3934C20.1953 13.1539 20.8118 13.7704 21.5723 13.7704Z" fill="white"/>
<path d="M16.9824 10.0985C17.7429 10.0985 18.3594 9.48202 18.3594 8.72155C18.3594 7.96108 17.7429 7.3446 16.9824 7.3446C16.222 7.3446 15.6055 7.96108 15.6055 8.72155C15.6055 9.48202 16.222 10.0985 16.9824 10.0985Z" fill="white"/>
<path d="M21.5723 6.42663C22.3327 6.42663 22.9492 5.81015 22.9492 5.04968C22.9492 4.28921 22.3327 3.67272 21.5723 3.67272C20.8118 3.67272 20.1953 4.28921 20.1953 5.04968C20.1953 5.81015 20.8118 6.42663 21.5723 6.42663Z" fill="white"/>
</svg>
