<svg width="47" height="47" viewBox="0 0 47 47" fill="none" xmlns="http://www.w3.org/2000/svg">
<path d="M46.5581 17.059C46.2738 16.7747 45.8837 16.6181 45.4598 16.6181C44.9743 16.6181 44.4889 16.825 44.1282 17.1858L38.2229 23.091C38.1708 23.1431 38.0925 23.2053 38.0158 23.2053C37.9687 23.2053 37.9333 23.1822 37.9229 23.1745L37.267 22.5186C37.1795 22.4312 37.1084 22.2936 37.267 22.135L44.6424 14.7597C45.3473 14.0548 45.4043 12.9647 44.7691 12.3298C44.4849 12.0456 44.0949 11.8889 43.671 11.8889C43.1855 11.8889 42.7001 12.0959 42.3393 12.4566L34.9639 19.8319C34.8339 19.9619 34.7599 19.9847 34.7365 19.9887L33.8868 19.1385C33.865 19.0926 33.8843 18.9999 34.0081 18.876L42.7066 10.1775C43.4115 9.47258 43.4685 8.38247 42.8334 7.74755C42.5491 7.46334 42.1591 7.30667 41.7352 7.30667C41.2496 7.30667 40.7642 7.51364 40.4035 7.87439L31.705 16.5729C31.6239 16.654 31.5463 16.6988 31.4869 16.6988C31.4599 16.6988 31.4406 16.689 31.4327 16.6843L30.6805 15.932C30.654 15.873 30.6214 15.7449 30.7492 15.6171L38.4185 7.94766C39.1234 7.24275 39.1803 6.15274 38.5454 5.51782C38.2611 5.23351 37.871 5.07684 37.447 5.07684C36.9615 5.07684 36.4761 5.28381 36.1153 5.64456L27.7293 14.0306L27.9073 11.6498C27.955 11.012 27.8111 10.4222 27.5029 9.9905L27.4958 9.97977C27.1395 9.4368 26.5309 9.1332 25.7821 9.12475L25.7687 9.12465C25.1167 9.12465 24.1502 9.64973 24.0314 10.6356C24.0052 10.8521 23.9779 11.0845 23.949 11.3302C23.5768 14.4931 22.954 19.7869 21.4214 21.9625C20.2736 23.5916 15.3338 27.0589 15.2841 27.0937L15.2678 27.106C15.1697 27.1876 15.11 27.3074 15.1037 27.4365C15.0983 27.5638 15.1468 27.6886 15.2362 27.7785L26.3322 38.9405C26.4171 39.0259 26.5351 39.075 26.6558 39.075L26.6748 39.0746C26.8028 39.0693 26.9233 39.01 27.0055 38.9117L27.0186 38.8946C27.0519 38.847 30.3696 34.11 31.745 32.7058C32.3618 32.0762 33.0944 31.6934 33.8702 31.2884C34.6534 30.8793 35.4634 30.4563 36.1647 29.755L46.431 19.4887C47.1362 18.7842 47.1931 17.6941 46.5581 17.059Z" fill="white"/>
<path d="M21.999 36.2545L14.2455 28.4548C13.9683 28.1759 13.8188 27.7905 13.835 27.3989C13.854 26.9977 14.0396 26.6223 14.3443 26.3694L14.4234 26.3093C15.7697 25.3666 19.4548 22.6489 20.3268 21.411C21.2609 20.0852 21.7119 18.1051 22.1009 15.5404C22.2028 15.122 22.1892 14.8491 22.0584 14.6821C21.9847 14.5878 21.8749 14.5339 21.7572 14.5339C21.7081 14.5339 21.6587 14.5433 21.6144 14.5611C21.4466 14.629 21.3352 14.7036 21.2877 14.7354L21.2784 14.7416C20.8259 15.0212 20.4648 15.5092 20.2619 16.1158L19.5043 18.3799L15.0185 7.40131C14.7332 6.70326 14.0777 6.23415 13.3872 6.23415C13.1934 6.23415 13.0049 6.27103 12.8271 6.3437C12.4204 6.50981 12.1116 6.84392 11.9574 7.2844C11.8071 7.71405 11.8233 8.19319 12.0032 8.63328L16.1058 18.6736C16.1748 18.8426 16.0927 18.9486 16.0481 18.9903L15.0632 19.3929C15.06 19.3934 15.0549 19.394 15.0486 19.394C14.954 19.394 14.8864 19.2632 14.8545 19.1851L10.2016 7.79725C9.91639 7.0992 9.26089 6.6302 8.5704 6.6302C8.37655 6.6302 8.18797 6.66698 8.01013 6.73974C7.60345 6.90595 7.29469 7.23997 7.14061 7.68045C6.9903 8.10999 7.0065 8.58914 7.18633 9.02922L11.8395 20.4169C11.9057 20.579 11.8876 20.6719 11.8498 20.7056L10.7389 21.1595L10.7369 21.161C10.7123 21.146 10.6526 21.0854 10.5883 20.9281L6.64297 11.2727C6.35766 10.5746 5.70217 10.1055 5.01167 10.1055C4.81783 10.1055 4.62935 10.1424 4.45151 10.2151C3.62026 10.5548 3.25065 11.5819 3.62771 12.5046L7.57303 22.1601C7.65793 22.3677 7.53913 22.4671 7.42153 22.5151L6.56622 22.8646C6.55996 22.8661 6.54624 22.8687 6.52875 22.8687C6.52895 22.8687 6.52865 22.8687 6.52875 22.8687C6.49704 22.8687 6.402 22.8677 6.32178 22.6715L3.16298 14.9407C2.87777 14.2427 2.22228 13.7736 1.53178 13.7736C1.33794 13.7736 1.14946 13.8105 0.971518 13.8831C0.140265 14.2229 -0.229236 15.25 0.147721 16.1727L5.63954 29.6129C6.01461 30.5309 6.59774 31.2346 7.16158 31.9149C7.72006 32.5887 8.24742 33.2252 8.57238 34.0446C9.29687 35.8715 10.5222 41.5235 10.5345 41.5805L10.54 41.6014C10.5778 41.7238 10.666 41.8251 10.7816 41.8793C10.8422 41.9078 10.9095 41.9229 10.9763 41.9229C11.036 41.9229 11.0944 41.9113 11.1509 41.888C11.2315 41.8542 19.2309 38.4997 21.9081 37.4552C22.2419 37.3248 22.3388 37.1233 22.3611 36.9771C22.4146 36.6273 22.0916 36.3313 21.999 36.2545Z" fill="white"/>
</svg>
