<svg width="259" height="20" viewBox="0 0 259 20" fill="none" xmlns="http://www.w3.org/2000/svg">
<path d="M139.481 10.1235C139.481 15.5556 135.045 20.2469 129.377 20.2469C123.956 20.2469 119.274 15.8025 119.274 10.1235C119.274 4.69136 123.709 0 129.377 0C135.045 0 139.481 4.44444 139.481 10.1235Z" fill="#96D1D6"/>
<path d="M223.513 10.124C223.513 7.90182 225.238 5.92651 227.702 5.92651C229.92 5.92651 231.891 7.65491 231.891 10.124C231.891 12.3463 230.166 14.3216 227.702 14.3216C225.238 14.0747 223.513 12.3463 223.513 10.124Z" fill="#96D1D6"/>
<path d="M170.038 10.124C170.038 7.90182 171.763 5.92651 174.227 5.92651C176.445 5.92651 178.417 7.65491 178.417 10.124C178.417 12.3463 176.692 14.3216 174.227 14.3216C171.763 14.0747 170.038 12.3463 170.038 10.124Z" fill="#96D1D6"/>
<path d="M258.262 10.8653H143.178C142.685 10.8653 142.439 10.6184 142.439 10.1246C142.439 9.63076 142.685 9.38385 143.178 9.38385H258.262C258.755 9.38385 259.001 9.63076 259.001 10.1246C259.001 10.3715 258.755 10.8653 258.262 10.8653Z" fill="#96D1D6"/>
<path d="M35.732 10.124C35.732 12.3463 34.0069 14.3216 31.5426 14.3216C29.3247 14.3216 27.3533 12.5932 27.3533 10.124C27.3533 7.90182 29.0783 5.92651 31.5426 5.92651C33.7605 5.92651 35.732 7.65491 35.732 10.124Z" fill="#96D1D6"/>
<path d="M89.2066 10.124C89.2066 12.3463 87.4815 14.3216 85.0172 14.3216C82.7993 14.3216 80.8279 12.5932 80.8279 10.124C80.8279 7.90182 82.5529 5.92651 85.0172 5.92651C87.2351 5.92651 89.2066 7.65491 89.2066 10.124Z" fill="#96D1D6"/>
<path d="M115.823 10.8653H0.739296C0.246432 10.8653 0 10.3715 0 10.1246C0 9.63076 0.246432 9.38385 0.739296 9.38385H115.823C116.316 9.38385 116.562 9.63076 116.562 10.1246C116.562 10.3715 116.316 10.8653 115.823 10.8653Z" fill="#96D1D6"/>
</svg>
