<svg width="1920" height="2181" viewBox="0 0 1920 2181" fill="none" xmlns="http://www.w3.org/2000/svg">
<path opacity="0.7" d="M1338.2 1863.59C1408.58 2207.26 2052.06 2204.52 2365 2160.19V1232.41L1023.37 1177C815.202 1206.91 440.013 1330.78 604.63 1587.06C810.401 1907.4 1250.24 1434.01 1338.2 1863.59Z" fill="#F6F9FF"/>
<path d="M1031.5 1349C647.9 1495.8 126.667 1400.83 -86 1335V1016H1965L2032 1436C1858.33 1345.83 1415.1 1202.2 1031.5 1349Z" fill="#B5E0E3"/>
<path d="M1260.96 399.694C1580.56 203.715 1834.82 275.058 1922 335.227V967H-2V0C285.817 214.889 941.351 595.673 1260.96 399.694Z" fill="#B5E0E3"/>
<path fill-rule="evenodd" clip-rule="evenodd" d="M-1.99951 118.859C320.807 416.47 812.427 497.923 1107.5 450.5L1107.53 450.295C763.633 491.49 245.195 184.56 -1.99951 0V118.859Z" fill="#A2D9DD"/>
<path d="M0 909H1920V1313L1565 1223L0 1313V909Z" fill="#B5E0E3"/>
</svg>
