<svg width="45" height="45" viewBox="0 0 45 45" fill="none" xmlns="http://www.w3.org/2000/svg">
<path d="M22.4996 0C10.0736 0 0.000244141 10.0741 0.000244141 22.4996C0.000244141 34.9251 10.0736 45 22.4996 45C34.9258 45 44.9996 34.9254 44.9996 22.4996C44.9996 10.0738 34.9258 0 22.4996 0ZM34.8249 33.3957H34.824C34.824 34.6166 33.8338 35.6067 32.6127 35.6067H31.2456V26.043H24.7876V35.6064H12.1625C10.9417 35.6064 9.95153 34.6163 9.95153 33.3954V21.925C11.0576 21.8386 12.0492 21.3383 12.765 20.5738C13.5536 21.416 14.6748 21.9428 15.9171 21.9428C17.1594 21.9428 18.2804 21.416 19.0691 20.5738C19.8577 21.416 20.9793 21.9428 22.2215 21.9428C23.4636 21.9428 24.5848 21.416 25.3735 20.5738C26.1621 21.416 27.2833 21.9428 28.5256 21.9428C29.7678 21.9428 30.8886 21.416 31.6776 20.5738C32.4651 21.4148 33.5847 21.9413 34.8249 21.9428V33.3957ZM34.8286 19.6087C33.7342 19.6087 32.8437 18.7182 32.8437 17.6238C32.8437 16.9791 32.3213 16.4567 31.6766 16.4567C31.0319 16.4567 30.5094 16.9791 30.5094 17.6238C30.5094 18.7182 29.6193 19.6087 28.5245 19.6087C27.4297 19.6087 26.5396 18.7182 26.5396 17.6238C26.5396 16.9791 26.0172 16.4567 25.3725 16.4567C24.7278 16.4567 24.2053 16.9791 24.2053 17.6238C24.2053 18.7182 23.3148 19.6087 22.2204 19.6087C21.126 19.6087 20.2352 18.7182 20.2352 17.6238C20.2352 16.9791 19.7128 16.4567 19.0681 16.4567C18.4234 16.4567 17.9009 16.9791 17.9009 17.6238C17.9009 18.7182 17.0104 19.6087 15.916 19.6087C14.8216 19.6087 13.9311 18.7182 13.9311 17.6238C13.9311 16.9791 13.4087 16.4567 12.764 16.4567C12.1193 16.4567 11.5969 16.9791 11.5969 17.6238C11.5969 18.7182 10.7063 19.6087 9.61163 19.6087C8.6344 19.6087 7.82006 18.8988 7.65672 17.9678L13.6818 9.80219H31.1597L36.7976 17.867C36.6788 18.8473 35.8408 19.6087 34.8286 19.6087Z" fill="#51BCC3"/>
<path d="M20.4984 26.123H13.3557V31.1124H20.4984V26.123Z" fill="#51BCC3"/>
</svg>
