<svg width="30" height="30" viewBox="0 0 30 30" fill="none" xmlns="http://www.w3.org/2000/svg">
<path d="M17.1962 15.8609C16.4379 16.6194 16.4378 17.8535 17.1962 18.6119L18.5719 19.9876L19.9472 18.612C20.7083 17.8512 20.7076 16.621 19.9473 15.8611C19.1883 15.102 17.9542 15.103 17.1962 15.8609Z" fill="white"/>
<path d="M24.6216 8.46875H12.5234C12.038 8.46875 11.6445 8.86227 11.6445 9.34766V29.1211C11.6445 29.6065 12.038 30 12.5234 30H24.6216C25.107 30 25.5005 29.6065 25.5005 29.1211V9.34766C25.5005 8.86227 25.107 8.46875 24.6216 8.46875ZM22.0177 23.4333C22.361 23.7765 22.361 24.333 22.0177 24.6762C21.6746 25.0195 21.118 25.0195 20.7748 24.6762L18.572 22.4735L16.3693 24.6762C16.0262 25.0194 15.4696 25.0195 15.1263 24.6762C14.7831 24.3331 14.7831 23.7765 15.1263 23.4333L17.3291 21.2305L15.9533 19.8548C14.5095 18.411 14.5095 16.0618 15.9533 14.618C17.3972 13.1741 19.7465 13.1742 21.1902 14.618C22.6394 16.0664 22.6367 18.4091 21.1901 19.855L19.8149 21.2305L22.0177 23.4333Z" fill="white"/>
<path d="M17.6283 6.71081V0.88208C17.6283 1.56669 17.3606 2.23776 16.855 2.74325L12.8875 6.71081H17.6283Z" fill="white"/>
<path d="M14.9906 0H5.37842C4.89303 0 4.49951 0.393516 4.49951 0.878906V20.6524C4.49951 21.1378 4.89303 21.5313 5.37842 21.5313H9.88663V8.68195C9.88663 7.74955 10.2571 6.85535 10.9164 6.19606L15.6121 1.50041C16.1658 0.946699 15.7737 0 14.9906 0Z" fill="white"/>
<path d="M14.6053 28.0263L13.0264 12.2369L22.5001 11.4474L23.2895 22.8948L22.5001 28.0263H14.6053Z" fill="white"/>
<path d="M16.875 17.3438C16.875 16.5671 17.5046 15.9375 18.2812 15.9375C19.0579 15.9375 19.6875 16.5671 19.6875 17.3438V24.8438C19.6875 25.6204 19.0579 26.25 18.2812 26.25C17.5046 26.25 16.875 25.6204 16.875 24.8438V17.3438Z" fill="#EFBC59"/>
<path d="M16.875 13.5938C16.875 12.8171 17.5046 12.1875 18.2812 12.1875C19.0579 12.1875 19.6875 12.8171 19.6875 13.5938C19.6875 14.3704 19.0579 15 18.2812 15C17.5046 15 16.875 14.3704 16.875 13.5938Z" fill="#EFBC59"/>
</svg>
