<svg width="367" height="214" viewBox="0 0 367 214" fill="none" xmlns="http://www.w3.org/2000/svg">
<rect opacity="0.9" width="367" height="214" rx="10" fill="#DAE8F1"/>
<path d="M211.087 57H156.917C152.551 57 149 60.5161 149 64.8465V114.162C149 118.488 152.551 122 156.917 122H211.087C215.453 122 219 118.488 219 114.162V64.8465C219 60.5161 215.453 57 211.087 57ZM194.266 68.6692C198.488 68.6692 201.913 72.0616 201.913 76.2441C201.913 80.4267 198.488 83.819 194.266 83.819C190.042 83.819 186.619 80.4267 186.619 76.2441C186.619 72.0616 190.042 68.6692 194.266 68.6692ZM208.604 114.751H183.999H160.491C158.379 114.751 157.439 113.237 158.391 111.369L171.514 85.6207C172.465 83.7536 174.277 83.5869 175.561 85.2482L188.757 102.331C190.041 103.993 192.284 104.134 193.768 102.645L196.997 99.4071C198.48 97.9185 200.666 98.1028 201.877 99.8161L210.236 111.645C211.445 113.36 210.716 114.751 208.604 114.751Z" fill="#B1C9D9"/>
<path d="M107.274 152H105.44V147.884C105.44 146.689 105.529 145.471 105.706 144.23L102.416 152H100.134V142.326H101.968V146.484C101.968 147.259 101.945 147.903 101.898 148.416C101.851 148.929 101.786 149.489 101.702 150.096L105.048 142.326H107.274V152ZM111.598 144.384C112.392 144.384 113.054 144.566 113.586 144.93C114.128 145.294 114.398 145.789 114.398 146.414C114.398 146.834 114.268 147.179 114.006 147.45C113.754 147.711 113.362 147.907 112.83 148.038C113.484 148.141 113.969 148.337 114.286 148.626C114.613 148.906 114.776 149.312 114.776 149.844C114.776 150.609 114.468 151.197 113.852 151.608C113.246 152.009 112.452 152.21 111.472 152.21C110.324 152.21 109.34 151.907 108.518 151.3L109.4 150.264C109.727 150.479 110.044 150.637 110.352 150.74C110.66 150.833 111.01 150.88 111.402 150.88C112.401 150.88 112.9 150.511 112.9 149.774C112.9 149.111 112.373 148.78 111.318 148.78H110.24L110.352 147.548H111.164C111.603 147.548 111.948 147.469 112.2 147.31C112.452 147.142 112.578 146.89 112.578 146.554C112.578 146.246 112.466 146.022 112.242 145.882C112.028 145.742 111.738 145.672 111.374 145.672C111.02 145.672 110.707 145.719 110.436 145.812C110.166 145.905 109.89 146.045 109.61 146.232L108.784 145.238C109.176 144.949 109.601 144.734 110.058 144.594C110.516 144.454 111.029 144.384 111.598 144.384ZM119.413 144.384C120.505 144.384 121.354 144.734 121.961 145.434C122.577 146.125 122.885 147.077 122.885 148.29C122.885 149.065 122.745 149.751 122.465 150.348C122.185 150.936 121.783 151.393 121.261 151.72C120.738 152.047 120.117 152.21 119.399 152.21C118.307 152.21 117.453 151.865 116.837 151.174C116.221 150.474 115.913 149.513 115.913 148.29C115.913 147.515 116.053 146.834 116.333 146.246C116.613 145.658 117.014 145.201 117.537 144.874C118.069 144.547 118.694 144.384 119.413 144.384ZM119.413 145.742C118.339 145.742 117.803 146.591 117.803 148.29C117.803 149.167 117.933 149.816 118.195 150.236C118.465 150.647 118.867 150.852 119.399 150.852C119.931 150.852 120.327 150.642 120.589 150.222C120.859 149.802 120.995 149.158 120.995 148.29C120.995 147.422 120.859 146.783 120.589 146.372C120.327 145.952 119.935 145.742 119.413 145.742ZM128.176 145.084C128.708 145.084 129.184 145.219 129.604 145.49C130.024 145.761 130.351 146.157 130.584 146.68C130.827 147.193 130.948 147.805 130.948 148.514C130.948 149.279 130.804 149.942 130.514 150.502C130.234 151.053 129.838 151.477 129.324 151.776C128.811 152.065 128.214 152.21 127.532 152.21C126.478 152.21 125.638 151.855 125.012 151.146C124.396 150.427 124.088 149.34 124.088 147.884C124.088 146.811 124.172 145.929 124.34 145.238C124.518 144.547 124.821 143.983 125.25 143.544C125.68 143.096 126.282 142.746 127.056 142.494C127.626 142.307 128.074 142.144 128.4 142.004C128.727 141.855 129.082 141.663 129.464 141.43L130.15 142.634C129.824 142.849 129.478 143.04 129.114 143.208C128.75 143.367 128.312 143.53 127.798 143.698C127.369 143.838 127.024 144.001 126.762 144.188C126.51 144.375 126.31 144.641 126.16 144.986C126.011 145.322 125.908 145.779 125.852 146.358C126.403 145.509 127.178 145.084 128.176 145.084ZM127.518 150.852C127.994 150.852 128.368 150.684 128.638 150.348C128.918 150.003 129.058 149.41 129.058 148.57C129.058 147.795 128.946 147.249 128.722 146.932C128.498 146.605 128.162 146.442 127.714 146.442C127.369 146.442 127.042 146.535 126.734 146.722C126.436 146.909 126.184 147.193 125.978 147.576V148.514C125.978 149.279 126.114 149.863 126.384 150.264C126.655 150.656 127.033 150.852 127.518 150.852ZM136.467 144.384C137.4 144.384 138.091 144.725 138.539 145.406C138.987 146.087 139.211 147.044 139.211 148.276C139.211 149.041 139.094 149.723 138.861 150.32C138.637 150.908 138.301 151.37 137.853 151.706C137.414 152.042 136.891 152.21 136.285 152.21C135.501 152.21 134.88 151.939 134.423 151.398V154.856L132.631 155.052V144.594H134.199L134.297 145.504C134.586 145.131 134.917 144.851 135.291 144.664C135.664 144.477 136.056 144.384 136.467 144.384ZM135.781 150.838C136.817 150.838 137.335 149.989 137.335 148.29C137.335 147.385 137.218 146.731 136.985 146.33C136.751 145.929 136.401 145.728 135.935 145.728C135.636 145.728 135.356 145.821 135.095 146.008C134.833 146.185 134.609 146.428 134.423 146.736V150.068C134.768 150.581 135.221 150.838 135.781 150.838ZM146.308 150.04C146.308 150.329 146.35 150.544 146.434 150.684C146.527 150.815 146.672 150.917 146.868 150.992L146.49 152.182C146.07 152.145 145.725 152.042 145.454 151.874C145.193 151.706 144.992 151.449 144.852 151.104C144.6 151.477 144.283 151.757 143.9 151.944C143.527 152.121 143.107 152.21 142.64 152.21C141.903 152.21 141.319 152 140.89 151.58C140.461 151.16 140.246 150.609 140.246 149.928C140.246 149.125 140.535 148.514 141.114 148.094C141.702 147.665 142.537 147.45 143.62 147.45H144.544V147.03C144.544 146.554 144.432 146.223 144.208 146.036C143.993 145.84 143.643 145.742 143.158 145.742C142.617 145.742 141.963 145.873 141.198 146.134L140.778 144.916C141.702 144.561 142.598 144.384 143.466 144.384C145.361 144.384 146.308 145.233 146.308 146.932V150.04ZM143.116 150.908C143.723 150.908 144.199 150.605 144.544 149.998V148.5H143.802C142.645 148.5 142.066 148.929 142.066 149.788C142.066 150.143 142.155 150.418 142.332 150.614C142.509 150.81 142.771 150.908 143.116 150.908ZM157.38 144.594L155.616 148.052L157.604 152H155.728L154.188 148.752H153.376V152H151.766V148.752H150.968L149.414 152H147.566L149.54 148.052L147.776 144.594H149.526L150.94 147.562H151.766V144.594H153.376V147.562H154.216L155.644 144.594H157.38ZM164.765 148.122C164.765 148.215 164.751 148.458 164.723 148.85H160.075C160.131 149.569 160.318 150.082 160.635 150.39C160.953 150.698 161.373 150.852 161.895 150.852C162.222 150.852 162.53 150.801 162.819 150.698C163.109 150.586 163.417 150.418 163.743 150.194L164.485 151.216C163.664 151.879 162.749 152.21 161.741 152.21C160.612 152.21 159.739 151.865 159.123 151.174C158.517 150.483 158.213 149.541 158.213 148.346C158.213 147.59 158.344 146.913 158.605 146.316C158.867 145.709 159.245 145.238 159.739 144.902C160.234 144.557 160.822 144.384 161.503 144.384C162.539 144.384 163.342 144.715 163.911 145.378C164.481 146.031 164.765 146.946 164.765 148.122ZM162.987 147.604C162.987 146.307 162.507 145.658 161.545 145.658C161.107 145.658 160.761 145.821 160.509 146.148C160.267 146.465 160.122 146.979 160.075 147.688H162.987V147.604ZM170.671 152V148.906H168.165V152H166.373V144.594H168.165V147.548H170.671V144.594H172.463V152H170.671ZM180.791 152H179.069V149.032C179.069 148.491 179.092 147.982 179.139 147.506C179.186 147.021 179.237 146.657 179.293 146.414L176.535 152H174.617V144.594H176.353V147.562C176.353 148.075 176.325 148.584 176.269 149.088C176.222 149.592 176.171 149.951 176.115 150.166L178.845 144.594H180.791V152ZM189.019 148.122C189.019 148.215 189.005 148.458 188.977 148.85H184.329C184.385 149.569 184.572 150.082 184.889 150.39C185.207 150.698 185.627 150.852 186.149 150.852C186.476 150.852 186.784 150.801 187.073 150.698C187.363 150.586 187.671 150.418 187.997 150.194L188.739 151.216C187.918 151.879 187.003 152.21 185.995 152.21C184.866 152.21 183.993 151.865 183.377 151.174C182.771 150.483 182.467 149.541 182.467 148.346C182.467 147.59 182.598 146.913 182.859 146.316C183.121 145.709 183.499 145.238 183.993 144.902C184.488 144.557 185.076 144.384 185.757 144.384C186.793 144.384 187.596 144.715 188.165 145.378C188.735 146.031 189.019 146.946 189.019 148.122ZM187.241 147.604C187.241 146.307 186.761 145.658 185.799 145.658C185.361 145.658 185.015 145.821 184.763 146.148C184.521 146.465 184.376 146.979 184.329 147.688H187.241V147.604ZM197.151 144.384C198.243 144.384 199.092 144.734 199.699 145.434C200.315 146.125 200.623 147.077 200.623 148.29C200.623 149.065 200.483 149.751 200.203 150.348C199.923 150.936 199.521 151.393 198.999 151.72C198.476 152.047 197.855 152.21 197.137 152.21C196.045 152.21 195.191 151.865 194.575 151.174C193.959 150.474 193.651 149.513 193.651 148.29C193.651 147.515 193.791 146.834 194.071 146.246C194.351 145.658 194.752 145.201 195.275 144.874C195.807 144.547 196.432 144.384 197.151 144.384ZM197.151 145.742C196.077 145.742 195.541 146.591 195.541 148.29C195.541 149.167 195.671 149.816 195.933 150.236C196.203 150.647 196.605 150.852 197.137 150.852C197.669 150.852 198.065 150.642 198.327 150.222C198.597 149.802 198.733 149.158 198.733 148.29C198.733 147.422 198.597 146.783 198.327 146.372C198.065 145.952 197.673 145.742 197.151 145.742ZM207.393 144.594L207.169 145.966H204.999V152H203.207V145.966H200.911V144.594H207.393ZM211.054 144.384C211.539 144.384 211.973 144.454 212.356 144.594C212.748 144.734 213.117 144.953 213.462 145.252L212.664 146.33C212.412 146.143 212.169 146.008 211.936 145.924C211.703 145.84 211.446 145.798 211.166 145.798C210.055 145.798 209.5 146.643 209.5 148.332C209.5 149.191 209.645 149.811 209.934 150.194C210.223 150.567 210.634 150.754 211.166 150.754C211.427 150.754 211.665 150.712 211.88 150.628C212.104 150.544 212.365 150.409 212.664 150.222L213.462 151.356C212.762 151.925 211.964 152.21 211.068 152.21C210.359 152.21 209.743 152.056 209.22 151.748C208.697 151.431 208.296 150.983 208.016 150.404C207.736 149.825 207.596 149.144 207.596 148.36C207.596 147.576 207.736 146.885 208.016 146.288C208.296 145.681 208.697 145.215 209.22 144.888C209.743 144.552 210.354 144.384 211.054 144.384ZM218.342 152.028C218.043 152.943 217.59 153.652 216.984 154.156C216.377 154.669 215.546 154.968 214.492 155.052L214.31 153.75C214.795 153.675 215.182 153.568 215.472 153.428C215.77 153.297 216.008 153.12 216.186 152.896C216.363 152.672 216.526 152.373 216.676 152H216.06L213.708 144.594H215.612L217.222 150.81L218.902 144.594H220.75L218.342 152.028ZM227.286 144.594L227.062 145.966H224.892V152H223.1V145.966H220.804V144.594H227.286ZM230.947 144.384C231.432 144.384 231.866 144.454 232.249 144.594C232.641 144.734 233.009 144.953 233.355 145.252L232.557 146.33C232.305 146.143 232.062 146.008 231.829 145.924C231.595 145.84 231.339 145.798 231.059 145.798C229.948 145.798 229.393 146.643 229.393 148.332C229.393 149.191 229.537 149.811 229.827 150.194C230.116 150.567 230.527 150.754 231.059 150.754C231.32 150.754 231.558 150.712 231.773 150.628C231.997 150.544 232.258 150.409 232.557 150.222L233.355 151.356C232.655 151.925 231.857 152.21 230.961 152.21C230.251 152.21 229.635 152.056 229.113 151.748C228.59 151.431 228.189 150.983 227.909 150.404C227.629 149.825 227.489 149.144 227.489 148.36C227.489 147.576 227.629 146.885 227.909 146.288C228.189 145.681 228.59 145.215 229.113 144.888C229.635 144.552 230.247 144.384 230.947 144.384ZM240.096 144.594L239.872 145.966H237.702V152H235.91V145.966H233.614V144.594H240.096ZM245.387 147.954C246.656 148.094 247.291 148.687 247.291 149.732C247.291 150.497 246.997 151.067 246.409 151.44C245.83 151.813 245.046 152 244.057 152H241.131V144.678C242.129 144.482 243.03 144.384 243.833 144.384C244.794 144.384 245.55 144.557 246.101 144.902C246.651 145.247 246.927 145.747 246.927 146.4C246.927 146.82 246.796 147.161 246.535 147.422C246.273 147.683 245.891 147.861 245.387 147.954ZM243.819 145.602C243.567 145.602 243.268 145.625 242.923 145.672V147.548H243.987C244.761 147.548 245.149 147.217 245.149 146.554C245.149 145.919 244.705 145.602 243.819 145.602ZM244.015 150.754C244.957 150.754 245.429 150.376 245.429 149.62C245.429 149.275 245.321 149.023 245.107 148.864C244.892 148.696 244.537 148.612 244.043 148.612H242.923V150.754H244.015ZM252.33 152.028C252.031 152.943 251.579 153.652 250.972 154.156C250.365 154.669 249.535 154.968 248.48 155.052L248.298 153.75C248.783 153.675 249.171 153.568 249.46 153.428C249.759 153.297 249.997 153.12 250.174 152.896C250.351 152.672 250.515 152.373 250.664 152H250.048L247.696 144.594H249.6L251.21 150.81L252.89 144.594H254.738L252.33 152.028ZM261.822 148.122C261.822 148.215 261.808 148.458 261.78 148.85H257.132C257.188 149.569 257.375 150.082 257.692 150.39C258.009 150.698 258.429 150.852 258.952 150.852C259.279 150.852 259.587 150.801 259.876 150.698C260.165 150.586 260.473 150.418 260.8 150.194L261.542 151.216C260.721 151.879 259.806 152.21 258.798 152.21C257.669 152.21 256.796 151.865 256.18 151.174C255.573 150.483 255.27 149.541 255.27 148.346C255.27 147.59 255.401 146.913 255.662 146.316C255.923 145.709 256.301 145.238 256.796 144.902C257.291 144.557 257.879 144.384 258.56 144.384C259.596 144.384 260.399 144.715 260.968 145.378C261.537 146.031 261.822 146.946 261.822 148.122ZM260.044 147.604C260.044 146.307 259.563 145.658 258.602 145.658C258.163 145.658 257.818 145.821 257.566 146.148C257.323 146.465 257.179 146.979 257.132 147.688H260.044V147.604ZM268.52 144.594L268.296 145.966H266.126V152H264.334V145.966H262.038V144.594H268.52Z" fill="#B1C9D9"/>
</svg>
