<svg width="25" height="25" viewBox="0 0 25 25" fill="none" xmlns="http://www.w3.org/2000/svg">
<g clip-path="url(#clip0)">
<path d="M12.7605 2.08333H11.6147C11.2709 0.885417 10.1667 0 8.85425 0C7.54175 0 6.43758 0.885417 6.09383 2.08333H4.948C4.52091 2.08333 4.16675 2.4375 4.16675 2.86458V4.42708C4.16675 5.42708 4.98966 6.25 5.98966 6.25H11.7188C12.7188 6.25 13.5417 5.42708 13.5417 4.42708V2.86458C13.5417 2.4375 13.1876 2.08333 12.7605 2.08333Z" fill="#245E63"/>
<path d="M14.8438 3.125H14.5833V4.42708C14.5833 6.01042 13.3021 7.29167 11.7188 7.29167H5.98958C4.40625 7.29167 3.125 6.01042 3.125 4.42708V3.125H2.86458C1.28125 3.125 0 4.40625 0 5.98958V19.0104C0 20.5938 1.28125 21.875 2.86458 21.875H9.72917C9.20833 20.7604 8.89583 19.5312 8.86458 18.2292H3.90625C3.47917 18.2292 3.125 17.875 3.125 17.4479C3.125 17.0208 3.47917 16.6667 3.90625 16.6667H8.94792C9.04167 16.0312 9.19792 15.4271 9.40625 14.8438H3.90625C3.47917 14.8438 3.125 14.4896 3.125 14.0625C3.125 13.6354 3.47917 13.2812 3.90625 13.2812H10.1563C10.5625 12.6146 11.0417 12 11.6042 11.4583H3.90625C3.47917 11.4583 3.125 11.1042 3.125 10.6771C3.125 10.25 3.47917 9.89583 3.90625 9.89583H13.7396C14.9375 9.27083 16.2813 8.89583 17.7083 8.86458V5.98958C17.7083 4.40625 16.4271 3.125 14.8438 3.125Z" fill="#245E63"/>
<path d="M17.9687 10.9375C14.0917 10.9375 10.9375 14.0917 10.9375 17.9687C10.9375 21.8458 14.0917 25 17.9687 25C21.8458 25 25 21.8458 25 17.9687C25 14.0917 21.8458 10.9375 17.9687 10.9375ZM19.0104 20.8333C19.0104 21.4083 18.5448 21.875 17.9687 21.875C17.3927 21.875 16.9271 21.4083 16.9271 20.8333V17.1875C16.9271 16.6125 17.3927 16.1458 17.9687 16.1458C18.5448 16.1458 19.0104 16.6125 19.0104 17.1875V20.8333ZM17.9687 15.625C17.3937 15.625 16.9271 15.1583 16.9271 14.5833C16.9271 14.0083 17.3937 13.5417 17.9687 13.5417C18.5437 13.5417 19.0104 14.0083 19.0104 14.5833C19.0104 15.1583 18.5437 15.625 17.9687 15.625Z" fill="#245E63"/>
</g>
<defs>
<clipPath id="clip0">
<rect width="25" height="25" fill="white"/>
</clipPath>
</defs>
</svg>
