<svg width="25" height="25" viewBox="0 0 25 25" fill="none" xmlns="http://www.w3.org/2000/svg">
<path d="M22.857 12.5861C22.857 13.5442 22.0851 14.3208 21.1401 14.3208C2.08426 14.3208 3.11732 14.3234 3.01383 14.3159C2.12823 14.2476 1.42847 13.4979 1.42847 12.5861C1.42847 11.6298 2.19847 10.8514 3.14542 10.8514H21.1401C22.087 10.8514 22.857 11.6298 22.857 12.5861ZM20.868 15.1293C21.0839 15.1293 21.25 15.3221 21.2203 15.5382L20.4759 20.9431C20.3358 22.0328 19.4071 22.857 18.3161 22.857H5.96937C4.87838 22.857 3.94966 22.0328 3.80917 20.9395L3.15791 15.5321C3.13213 15.3181 3.29751 15.1294 3.51095 15.1294H20.868V15.1293ZM9.65713 16.4014C9.84563 17.1803 10.5312 17.7238 11.3247 17.7238H12.9608C13.7543 17.7238 14.4399 17.1803 14.6284 16.4014C14.6808 16.1845 14.5497 15.9657 14.335 15.9127C14.1202 15.8597 13.9037 15.9927 13.8513 16.2096C13.7508 16.6251 13.3845 16.9153 12.9608 16.9153H11.3247C10.9011 16.9153 10.5347 16.6251 10.4342 16.2096C10.3818 15.9927 10.1653 15.8597 9.95055 15.9127C9.73582 15.9657 9.60467 16.1845 9.65713 16.4014ZM19.7148 1.42847H4.57073C3.73893 1.42847 3.06228 2.11212 3.06228 2.95208C3.06228 3.79362 3.74009 4.47615 4.57073 4.47615C20.8826 4.47615 19.8128 4.4952 20.0647 4.43483C20.7284 4.27492 21.2232 3.67077 21.2232 2.95208C21.2232 2.11212 20.5466 1.42847 19.7148 1.42847ZM19.873 5.69837C19.1903 10.1964 19.2455 9.85566 19.2144 9.98364C19.1757 10.1426 19.032 10.2526 18.87 10.2526H5.41529C5.25329 10.2526 5.10974 10.1426 5.07092 9.98368C5.02887 9.81155 5.0715 10.1028 4.51783 5.68943C4.49115 5.47472 4.65653 5.28472 4.87082 5.28472H19.5214C19.7392 5.28468 19.9059 5.48097 19.873 5.69837ZM13.9211 6.2585C13.9211 6.03525 13.7419 5.85424 13.5209 5.85424H10.7646C10.5436 5.85424 10.3644 6.03525 10.3644 6.2585C10.3644 6.48174 10.5436 6.66276 10.7646 6.66276H13.5209C13.7419 6.66276 13.9211 6.48174 13.9211 6.2585Z" fill="#245E63"/>
</svg>
