<svg width="25" height="25" viewBox="0 0 25 25" fill="none" xmlns="http://www.w3.org/2000/svg">
<path d="M20.7142 1.42847H3.57132C2.39275 1.42847 1.42847 2.39347 1.42847 3.57132V20.7142C1.42847 21.8913 2.39275 22.857 3.57132 22.857H20.7142C21.8928 22.857 22.857 21.8913 22.857 20.7142V3.57132C22.857 2.39347 21.8928 1.42847 20.7142 1.42847ZM7.21132 20.287H3.92847V17.367H7.21132V20.287ZM7.21132 16.3878H3.92847V13.4692H7.21132V16.3878ZM6.96418 4.67632C6.46204 4.67632 6.0549 4.2699 6.0549 3.76704C6.0549 3.26418 6.46204 2.85704 6.96418 2.85704C7.46632 2.85704 7.87347 3.26347 7.87347 3.76632C7.87347 4.26918 7.46632 4.67632 6.96418 4.67632ZM11.592 20.287H8.3099V17.367H11.592V20.287ZM11.592 16.3878H8.3099V13.4692H11.592V16.3878ZM11.592 12.4913H8.3099V9.57275H11.592V12.4913ZM11.2335 3.76632C11.2335 3.26347 11.6406 2.85704 12.1428 2.85704C12.6449 2.85704 13.052 3.26347 13.052 3.76632C13.052 4.26918 12.6449 4.67561 12.1428 4.67561C11.6406 4.67561 11.2335 4.2699 11.2335 3.76632ZM15.9756 16.3878H12.6928V13.4692H15.9763V16.3878H15.9756ZM15.9756 12.4913H12.6928V9.57275H15.9763V12.4913H15.9756ZM16.412 3.76632C16.412 3.26347 16.8192 2.85704 17.3213 2.85704C17.8235 2.85704 18.2306 3.26347 18.2306 3.76632C18.2306 4.26918 17.8235 4.67561 17.3213 4.67561C16.8192 4.67561 16.412 4.2699 16.412 3.76632ZM20.357 16.3878H17.0742V13.4692H20.357V16.3878ZM20.357 12.4913H17.0742V9.57275H20.357V12.4913Z" fill="#245E63"/>
</svg>
