<svg width="25" height="25" viewBox="0 0 25 25" fill="none" xmlns="http://www.w3.org/2000/svg">
<path d="M0.560596 12.4993C0.278467 12.5045 0.0512695 12.7348 0.0512695 13.018V22.6119C0.0512695 22.755 0.167431 22.8712 0.310596 22.8712H2.77129C3.00366 22.8712 3.20698 22.7176 3.27031 22.4946L5.56606 14.405C5.7144 13.8821 5.43433 13.3323 4.9229 13.1467C3.98296 12.8044 2.54097 12.4661 0.560596 12.4993Z" fill="#245E63"/>
<path d="M22.874 18.2029C20.7992 18.2029 16.6496 20.8285 14.5749 20.8285C12.5 20.8285 10.1659 19.2402 10.1659 19.2402C10.1659 19.2402 12.9607 19.759 14.5749 19.759C16.189 19.759 16.6496 19.2081 16.6496 18.4622C16.6496 16.6468 13.5665 16.3646 12.0063 16.127C10.475 15.2743 9.67935 14.6 7.14297 14.3853C7.12842 14.5336 7.10562 14.6809 7.06411 14.8272L4.97998 22.1719C7.34004 23.2456 11.4045 24.9459 13.5374 24.9459C16.6496 24.9459 24.9488 20.7964 24.9488 19.759C24.9488 18.7216 23.9113 18.2029 22.874 18.2029Z" fill="#245E63"/>
<path d="M23.8274 0.753906C23.7382 0.463428 23.4373 0.245556 23.1365 0.206152C21.2992 -0.035596 18.7836 -0.366505 16.771 1.44375C15.4583 2.62622 15.2634 4.5979 16.2357 6.02495C15.3774 6.90669 14.7899 7.95444 14.3929 8.90806C14.2222 8.57861 14.0257 8.23833 13.8039 7.88765C13.5363 7.46489 13.2697 7.08804 13.043 6.78413C13.237 6.28569 13.3402 5.73838 13.3341 5.16279C13.3217 3.96353 12.8363 2.78716 12.0354 2.01738C9.5778 -0.343702 6.4988 -0.0345703 4.02565 0.214404L3.89704 0.22788C3.59513 0.258007 3.33791 0.460302 3.23932 0.747656C3.14074 1.03394 3.21647 1.35244 3.43542 1.56304C4.54333 2.62632 4.7695 3.75815 5.00807 4.95532C5.22072 6.01968 5.44064 7.12139 6.33903 7.98555C7.18864 8.802 8.31008 9.21382 9.40661 9.21382C10.3368 9.21382 11.2436 8.90762 11.9531 8.30894C11.9798 8.27358 12.0159 8.24019 12.0628 8.20937C12.7925 9.26133 13.6062 10.7039 13.6062 11.7875C13.6062 12.2179 13.9407 12.5742 14.3702 12.6014C14.3877 12.6025 14.4051 12.6031 14.4223 12.6031C14.8299 12.6031 15.1788 12.2999 15.2308 11.8902C15.2356 11.8533 15.6339 8.904 17.4938 7.07612C17.505 7.08311 17.5117 7.08716 17.5117 7.08716C17.8437 7.22515 18.2047 7.31641 18.5938 7.33926C18.6673 7.34443 18.7411 7.34653 18.8136 7.34653C19.7193 7.34653 20.6197 7.01563 21.2578 6.44092C22.014 5.76035 22.2173 4.88999 22.4134 4.04868C22.6209 3.1606 22.8159 2.32241 23.6541 1.56724C23.8792 1.36597 23.9176 1.04336 23.8274 0.753906Z" fill="#245E63"/>
</svg>
