<svg width="25" height="25" viewBox="0 0 25 25" fill="none" xmlns="http://www.w3.org/2000/svg">
<path d="M20.9737 5.19521C22.0122 5.19521 22.857 4.35037 22.857 3.31184C22.857 2.2733 22.0122 1.42847 20.9737 1.42847C19.9351 1.42847 19.0903 2.2733 19.0903 3.31184C19.0903 3.60175 19.1616 3.87317 19.2791 4.11872L17.4698 5.92801L17.0259 5.48416C16.7807 5.23894 16.3834 5.23894 16.1382 5.48416L15.5049 6.11747C15.034 5.852 14.5393 5.64542 14.0261 5.49948V4.60927C14.0261 4.26227 13.7453 3.98148 13.3983 3.98148H10.8872C10.5402 3.98148 10.2594 4.26227 10.2594 4.60927V5.49948C9.74623 5.64538 9.25149 5.852 8.78064 6.11747L8.14733 5.48416C7.90211 5.23894 7.50481 5.23894 7.25959 5.48416L6.81574 5.92801L5.00645 4.11872C5.12393 3.87317 5.19521 3.60175 5.19521 3.31184C5.19521 2.2733 4.35037 1.42847 3.31184 1.42847C2.2733 1.42847 1.42847 2.2733 1.42847 3.31184C1.42847 4.35037 2.31516 5.19521 3.35369 5.19521C3.6436 5.19521 3.87317 5.12393 4.11872 5.00645L5.92801 6.81574L5.48416 7.25959C5.23894 7.50481 5.23894 7.90211 5.48416 8.14733L6.11747 8.78064C5.852 9.25149 5.64542 9.74623 5.49948 10.2594H4.60927C4.26227 10.2594 3.98148 10.5402 3.98148 10.8872V13.3983C3.98148 13.7453 4.26227 14.0261 4.60927 14.0261H5.49948C5.64538 14.5393 5.852 15.034 6.11747 15.5049L5.48416 16.1382C5.23894 16.3834 5.23894 16.7807 5.48416 17.0259L5.92801 17.4698L4.11872 19.2791C3.87317 19.1616 3.60175 19.0903 3.31184 19.0903C2.2733 19.0903 1.42847 19.9351 1.42847 20.9737C1.42847 22.0122 2.2733 22.857 3.31184 22.857C4.35037 22.857 5.19521 22.0122 5.19521 20.9737C5.19521 20.6838 5.12393 20.4123 5.00645 20.1668L6.81574 18.3575L7.25959 18.8013C7.50481 19.0466 7.90211 19.0466 8.14733 18.8013L8.78064 18.168C9.25149 18.4335 9.74623 18.6401 10.2594 18.786V19.6762C10.2594 20.0232 10.5402 20.304 10.8872 20.304H13.3983C13.7453 20.304 14.0261 20.0232 14.0261 19.6762V18.786C14.5393 18.6401 15.034 18.4335 15.5049 18.168L16.1382 18.8013C16.3834 19.0466 16.7807 19.0466 17.0259 18.8013L17.4698 18.3575L19.2791 20.1668C19.1616 20.4123 19.0903 20.6838 19.0903 20.9737C19.0903 22.0122 19.9351 22.857 20.9737 22.857C22.0122 22.857 22.857 22.0122 22.857 20.9737C22.857 19.9351 22.0122 19.0903 20.9737 19.0903C20.6838 19.0903 20.4123 19.1616 20.1668 19.2791L18.3575 17.4698L18.8013 17.0259C19.0466 16.7807 19.0466 16.3834 18.8013 16.1382L18.168 15.5049C18.4335 15.034 18.6401 14.5393 18.786 14.0261H19.6762C20.0232 14.0261 20.304 13.7453 20.304 13.3983V10.8872C20.304 10.5402 20.0232 10.2594 19.6762 10.2594H18.786C18.6401 9.74623 18.4335 9.25149 18.168 8.78064L18.8013 8.14733C19.0466 7.90211 19.0466 7.50481 18.8013 7.25959L18.3575 6.81574L20.1668 5.00645C20.4123 5.12393 20.6838 5.19521 20.9737 5.19521ZM12.1428 16.5373C9.71986 16.5373 7.74822 14.5656 7.74822 12.1428C7.74822 9.71986 9.71986 7.74822 12.1428 7.74822C14.5656 7.74822 16.5373 9.71986 16.5373 12.1428C16.5373 14.5656 14.5656 16.5373 12.1428 16.5373Z" fill="#245E63"/>
</svg>
