<svg width="24" height="12" viewBox="0 0 24 12" fill="none" xmlns="http://www.w3.org/2000/svg">
<path d="M17.4998 0.463697C17.1345 0.830681 17.1359 1.42426 17.5029 1.78951L20.7917 5.06251L0.9375 5.06251C0.419719 5.06251 -2.76705e-07 5.48223 -2.54072e-07 6.00001C-2.31439e-07 6.51779 0.419719 6.93751 0.9375 6.93751L20.7918 6.9375L17.5028 10.2105C17.1359 10.5758 17.1345 11.1693 17.4997 11.5363C17.865 11.9033 18.4586 11.9047 18.8256 11.5395L23.7242 6.6645C23.7245 6.66422 23.7248 6.6639 23.725 6.66361C24.0911 6.29836 24.0923 5.70286 23.7251 5.3364C23.7248 5.33611 23.7245 5.33579 23.7242 5.33551L18.8256 0.460509C18.4587 0.0953533 17.865 0.0966188 17.4998 0.463697Z" fill="#EFBC59"/>
</svg>
