<svg width="24" height="30" viewBox="0 0 24 30" fill="none" xmlns="http://www.w3.org/2000/svg">
<path d="M2.72736 8.84832C2.72736 5.04952 5.8179 1.95899 9.61669 1.95899C13.4155 1.95899 16.506 5.04952 16.506 8.84832C16.506 9.49552 16.4158 10.1367 16.2378 10.754L18.1202 11.2967C18.349 10.503 18.4651 9.67922 18.4651 8.84838C18.4651 3.96937 14.4957 0 9.61669 0C4.73767 0 0.768311 3.96937 0.768311 8.84838C0.768311 11.0139 1.56212 13.0995 3.00359 14.7211L4.46778 13.4195C3.34551 12.1569 2.72736 10.5335 2.72736 8.84832Z" fill="#51BCC3"/>
<path d="M15.1572 9.52942C15.1857 9.2972 15.2 9.068 15.2 8.84819C15.2 5.76954 12.6954 3.26489 9.61674 3.26489C6.53809 3.26489 4.03345 5.76954 4.03345 8.84819C4.03345 10.1055 4.44426 11.2943 5.22148 12.2861L6.76345 11.0778C6.25906 10.4342 5.99243 9.66315 5.99243 8.84819C5.99243 6.84976 7.61825 5.22394 9.61668 5.22394C11.6151 5.22394 13.2409 6.84976 13.2409 8.84819C13.2409 8.99068 13.2317 9.13565 13.2126 9.29139L15.1572 9.52942Z" fill="#51BCC3"/>
<path d="M21.5668 14.7549C20.6472 14.7549 19.9016 15.5005 19.9016 16.4201H19.2486V14.626C19.2486 13.7064 18.5031 12.9608 17.5834 12.9608C16.6638 12.9608 15.9182 13.7064 15.9182 14.626V16.4201H15.2652V12.9874C15.2652 12.0677 14.5197 11.3222 13.6 11.3222C12.6804 11.3222 11.9348 12.0677 11.9348 12.9874V16.4201H11.2818V8.8483C11.2818 7.92866 10.5363 7.18311 9.61662 7.18311C8.69697 7.18311 7.95142 7.92866 7.95142 8.8483V21.1772H7.2984V17.1565C7.2984 16.2368 6.55286 15.4913 5.63321 15.4913C4.71357 15.4913 3.96802 16.2368 3.96802 17.1565V23.2851C3.96802 26.9877 6.98032 30 10.6829 30H16.5172C20.2197 30 23.232 26.9877 23.232 23.2851V16.4201C23.232 15.5005 22.4865 14.7549 21.5668 14.7549Z" fill="#51BCC3"/>
</svg>
