<svg width="24" height="24" viewBox="0 0 24 24" fill="none" xmlns="http://www.w3.org/2000/svg">
<path d="M15.8947 11.553C15.7246 11.214 15.3787 11 14.9997 11H12.9997V0.999984C12.9997 0.447984 12.5527 0 11.9997 0C11.4467 0 10.9997 0.447984 10.9997 0.999984V11H8.99967C8.62069 11 8.27466 11.214 8.10469 11.553C7.93669 11.892 7.97269 12.297 8.19971 12.6L11.1997 16.5999C11.2127 16.617 11.2327 16.623 11.2467 16.6389C11.3127 16.7169 11.3907 16.7769 11.4777 16.8319C11.5137 16.8539 11.5417 16.8829 11.5807 16.9009C11.7087 16.9609 11.8487 16.9999 11.9997 16.9999C12.1508 16.9999 12.2907 16.9609 12.4197 16.9009C12.4577 16.8829 12.4867 16.8539 12.5217 16.8319C12.6087 16.7769 12.6867 16.7169 12.7527 16.6389C12.7657 16.623 12.7867 16.617 12.7997 16.5999L15.7997 12.6C16.0277 12.297 16.0637 11.892 15.8947 11.553Z" fill="#F4A528"/>
<path d="M23 15C22.447 15 22 15.448 22 16V19C22 20.654 20.654 22 19 22H5.00002C3.34603 22 2.00002 20.654 2.00002 19V16C2.00002 15.448 1.55302 15 1.00003 15C0.447 15 0 15.448 0 16V19C0 21.757 2.24302 24 5.00002 24H19C21.757 24 24 21.757 24 19V16C24 15.448 23.553 15 23 15Z" fill="#F4A528"/>
</svg>
