<svg width="20" height="20" viewBox="0 0 20 20" fill="none" xmlns="http://www.w3.org/2000/svg">
<path d="M5.27107 10.652H7.46339V19.6774C7.46339 19.8556 7.60778 20 7.78597 20H11.5031C11.6813 20 11.8257 19.8556 11.8257 19.6774V10.6945H14.346C14.5098 10.6945 14.6477 10.5715 14.6664 10.4088L15.0492 7.08606C15.0597 6.99465 15.0307 6.9031 14.9696 6.83452C14.9084 6.76587 14.8207 6.72658 14.7288 6.72658H11.8258V4.64374C11.8258 4.01587 12.1639 3.69748 12.8307 3.69748C12.9258 3.69748 14.7288 3.69748 14.7288 3.69748C14.907 3.69748 15.0514 3.55303 15.0514 3.3749V0.324968C15.0514 0.146774 14.907 0.0023871 14.7288 0.0023871H12.113C12.0946 0.00148387 12.0536 0 11.9932 0C11.5393 0 9.96171 0.0890967 8.71552 1.23555C7.33474 2.506 7.52668 4.02716 7.57255 4.2909V6.72652H5.27107C5.09287 6.72652 4.94849 6.8709 4.94849 7.0491V10.3294C4.94849 10.5075 5.09287 10.652 5.27107 10.652Z" fill="#245E63"/>
</svg>
