<svg width="18" height="20" viewBox="0 0 18 20" fill="none" xmlns="http://www.w3.org/2000/svg">
<path d="M12.086 0H4.05323C2.87971 0 1.92455 0.95578 1.92455 2.12863V9.99996H1.7166C1.24297 9.99996 0.858887 10.3837 0.858887 10.8578V16.0597C0.858887 16.5337 1.24297 16.9175 1.7166 16.9175H1.92455V17.8713C1.92455 19.0455 2.87967 20 4.05323 20H15.0136C16.1865 20 17.1416 19.0454 17.1416 17.8713V5.03791L12.086 0ZM3.04248 11.7488H3.97898L4.29474 12.4071C4.40192 12.6262 4.4824 12.8033 4.56802 13.0066H4.57847C4.66409 12.7765 4.73378 12.6156 4.82495 12.4071L5.12997 11.7488H6.06123L5.04427 13.5094L6.11479 15.3562H5.17274L4.84619 14.7031C4.7125 14.4514 4.62688 14.2644 4.52483 14.0553H4.51438C4.43917 14.2644 4.34837 14.4514 4.23587 14.7031L3.93608 15.3562H3.00482L4.04858 13.5309L3.04248 11.7488ZM15.0136 18.6964H4.05323C3.5988 18.6964 3.22882 18.3263 3.22882 17.8713V16.9175H13.4462C13.9198 16.9175 14.3039 16.5337 14.3039 16.0597V10.8578C14.3039 10.3837 13.9198 9.99996 13.4462 9.99996H3.22882V2.12863C3.22882 1.67491 3.59884 1.30489 4.05323 1.30489L11.5983 1.29701V4.08595C11.5983 4.90057 12.2593 5.56216 13.0745 5.56216L15.8066 5.55432L15.8373 17.8713C15.8374 18.3263 15.468 18.6964 15.0136 18.6964ZM8.80907 14.6711V15.3563H6.55549V11.7488H7.37438V14.6711H8.80907ZM10.1914 13.8415C9.59191 13.633 9.20094 13.3009 9.20094 12.7765C9.20094 12.1606 9.71482 11.69 10.566 11.69C10.973 11.69 11.2724 11.7756 11.4868 11.8717L11.3047 12.5301C11.1603 12.4608 10.9033 12.3587 10.5499 12.3587C10.1966 12.3587 10.0254 12.5196 10.0254 12.7066C10.0254 12.9367 10.2287 13.0387 10.6945 13.2152C11.3315 13.4506 11.6313 13.7827 11.6313 14.2914C11.6313 14.896 11.1655 15.41 10.1754 15.41C9.76315 15.41 9.35617 15.3027 9.15287 15.1902L9.31896 14.5162C9.53827 14.6287 9.8756 14.7405 10.2234 14.7405C10.598 14.7405 10.7961 14.5855 10.7961 14.3501C10.7961 14.1252 10.6249 13.9964 10.1914 13.8415Z" fill="#245E63"/>
</svg>
