<svg width="24" height="24" viewBox="0 0 24 24" fill="none" xmlns="http://www.w3.org/2000/svg">
<g clip-path="url(#clip0)">
<path d="M15.25 0H2.75C1.23 0 0 1.23 0 2.75V19.25C0 20.77 1.23 22 2.75 22H13.15C13.05 21.52 13 21.01 13 20.5V15.25C13 15.17 13 15.08 13.01 15H4C3.45 15 3 14.55 3 14C3 13.45 3.45 13 4 13H13.42C14.17 11.04 15.9 9.55 18 9.13V2.75C18 1.23 16.77 0 15.25 0V0ZM4 5H9C9.55 5 10 5.45 10 6C10 6.55 9.55 7 9 7H4C3.45 7 3 6.55 3 6C3 5.45 3.45 5 4 5ZM14 11H4C3.45 11 3 10.55 3 10C3 9.45 3.45 9 4 9H14C14.55 9 15 9.45 15 10C15 10.55 14.55 11 14 11Z" fill="#245E63"/>
<path d="M20.5002 24.0001C18.5702 24.0001 17.0002 22.4301 17.0002 20.5001V15.2501C17.0002 14.0091 18.0102 13.0001 19.2502 13.0001C20.4902 13.0001 21.5002 14.0091 21.5002 15.2501V20.2501C21.5002 20.6641 21.1642 21.0001 20.7502 21.0001C20.3362 21.0001 20.0002 20.6641 20.0002 20.2501V15.2501C20.0002 14.8361 19.6632 14.5001 19.2502 14.5001C18.8372 14.5001 18.5002 14.8361 18.5002 15.2501V20.5001C18.5002 21.6031 19.3972 22.5001 20.5002 22.5001C21.6032 22.5001 22.5002 21.6031 22.5002 20.5001V13.7501C22.5002 13.3361 22.8362 13.0001 23.2502 13.0001C23.6642 13.0001 24.0002 13.3361 24.0002 13.7501V20.5001C24.0002 22.4301 22.4302 24.0001 20.5002 24.0001Z" fill="#245E63"/>
</g>
<defs>
<clipPath id="clip0">
<rect width="24" height="24" fill="white"/>
</clipPath>
</defs>
</svg>
