<svg width="20" height="20" viewBox="0 0 20 20" fill="none" xmlns="http://www.w3.org/2000/svg">
<path d="M13.6689 2H6.33105C3.94287 2 2 3.94287 2 6.33105V13.6691C2 16.0571 3.94287 18 6.33105 18H13.6691C16.0571 18 18 16.0571 18 13.6691V6.33105C18 3.94287 16.0571 2 13.6689 2V2ZM10 14.3749C7.58765 14.3749 5.62512 12.4124 5.62512 10C5.62512 7.58765 7.58765 5.62512 10 5.62512C12.4124 5.62512 14.3749 7.58765 14.3749 10C14.3749 12.4124 12.4124 14.3749 10 14.3749ZM14.4795 6.65686C13.7666 6.65686 13.1868 6.07703 13.1868 5.36414C13.1868 4.65125 13.7666 4.07129 14.4795 4.07129C15.1924 4.07129 15.7723 4.65125 15.7723 5.36414C15.7723 6.07703 15.1924 6.65686 14.4795 6.65686Z" fill="#245E63"/>
<path d="M10 7C8.34587 7 7 8.34576 7 10C7 11.6541 8.34587 13 10 13C11.6542 13 13 11.6541 13 10C13 8.34576 11.6542 7 10 7Z" fill="#245E63"/>
<path d="M14.4999 5C14.2243 5 14 5.22436 14 5.5C14 5.77564 14.2243 6 14.4999 6C14.7757 6 15 5.77581 15 5.5C15 5.22419 14.7757 5 14.4999 5Z" fill="#245E63"/>
</svg>
