<svg width="24" height="18" viewBox="0 0 24 18" fill="none" xmlns="http://www.w3.org/2000/svg">
<path d="M23.9654 1.77649L16.6328 9.06189L23.9654 16.3473C24.098 16.0702 24.1784 15.764 24.1784 15.4369V2.68689C24.1784 2.35978 24.098 2.05354 23.9654 1.77649Z" fill="#95BAB9"/>
<path d="M22.0533 0.5625H2.12549C1.79838 0.5625 1.49214 0.64292 1.21509 0.775473L10.587 10.1001C11.4156 10.9288 12.7631 10.9288 13.5918 10.1001L22.9637 0.775473C22.6866 0.64292 22.3804 0.5625 22.0533 0.5625Z" fill="#95BAB9"/>
<path d="M0.212972 1.77649C0.0804195 2.05354 0 2.35978 0 2.68689V15.4369C0 15.764 0.0804195 16.0703 0.212972 16.3473L7.54559 9.06189L0.212972 1.77649Z" fill="#95BAB9"/>
<path d="M15.631 10.0638L14.5934 11.1014C13.2127 12.4821 10.966 12.4821 9.58528 11.1014L8.54771 10.0638L1.21509 17.3492C1.49214 17.4817 1.79838 17.5622 2.12549 17.5622H22.0533C22.3804 17.5622 22.6866 17.4817 22.9637 17.3492L15.631 10.0638Z" fill="#95BAB9"/>
</svg>
