<svg width="40" height="48" viewBox="0 0 40 48" fill="none" xmlns="http://www.w3.org/2000/svg">
<path d="M17.693 45.7085L19.9913 48L34.1045 33.9285C37.7049 30.33 39.9377 25.3636 39.9377 19.8787C39.9377 8.90035 31.011 0 20.0001 0C8.98919 0 0.0625 8.90035 0.0625 19.8787C0.0625 25.3592 2.29526 30.3387 5.88254 33.9154C6.1884 34.2204 6.59039 34.399 7.04481 34.399C7.94053 34.399 8.66585 33.6758 8.66585 32.7827C8.66585 32.3296 8.46923 31.9158 8.16774 31.6152C5.17033 28.6266 3.30023 24.4574 3.30023 19.8787C3.30023 10.6996 10.7894 3.23253 19.9957 3.23253C29.202 3.23253 36.6956 10.6996 36.6956 19.8787C36.6956 24.4705 34.8211 28.631 31.7975 31.6457L17.693 45.7085Z" fill="#F47201"/>
<path d="M23.1856 23.7997V25.7339H30.8888V23.7997H29.3901L24.291 10.9436L19.9916 18.4499L15.6964 10.9436L10.593 23.7997H9.09863V25.7339H16.8019V23.7997H15.6484L16.7713 20.5933L19.9916 25.8821L23.2162 20.5933L24.3391 23.7997H23.1856Z" fill="#F47201"/>
</svg>
