<svg width="16" height="16" viewBox="0 0 16 16" fill="none" xmlns="http://www.w3.org/2000/svg">
<path d="M8.22729 0.727295C7.89577 0.727295 7.57783 0.858991 7.34341 1.09341C7.10899 1.32783 6.97729 1.64577 6.97729 1.97729V6.97729H1.97729C1.64577 6.97729 1.32783 7.10899 1.09341 7.34341C0.858991 7.57783 0.727295 7.89577 0.727295 8.22729C0.727295 8.55882 0.858991 8.87676 1.09341 9.11118C1.32783 9.3456 1.64577 9.47729 1.97729 9.47729H6.97729V14.4773C6.97729 14.8088 7.10899 15.1268 7.34341 15.3612C7.57783 15.5956 7.89577 15.7273 8.22729 15.7273C8.55882 15.7273 8.87676 15.5956 9.11118 15.3612C9.3456 15.1268 9.47729 14.8088 9.47729 14.4773V9.47729H14.4773C14.8088 9.47729 15.1268 9.3456 15.3612 9.11118C15.5956 8.87676 15.7273 8.55882 15.7273 8.22729C15.7273 7.89577 15.5956 7.57783 15.3612 7.34341C15.1268 7.10899 14.8088 6.97729 14.4773 6.97729H9.47729V1.97729C9.47729 1.64577 9.3456 1.32783 9.11118 1.09341C8.87676 0.858991 8.55882 0.727295 8.22729 0.727295Z" fill="#245E63"/>
</svg>
