<svg width="28" height="36" viewBox="0 0 28 36" fill="none" xmlns="http://www.w3.org/2000/svg">
<path d="M26.4636 0H1.57569C0.992409 0 0.519531 0.472218 0.519531 1.05469V31.8386C0.519531 32.1183 0.630851 32.3866 0.828845 32.5844L3.93987 35.691C4.35233 36.1029 5.02102 36.1029 5.43356 35.691L7.79773 33.3302L10.1618 35.691C10.3598 35.8888 10.6285 36 10.9085 36C11.1886 36 11.4573 35.8889 11.6554 35.691L14.0195 33.3302L16.3837 35.691C16.5817 35.8888 16.8504 36 17.1304 36C17.4105 36 17.6792 35.8889 17.8773 35.691L20.2414 33.3302L22.6055 35.691C22.8118 35.897 23.082 36 23.3524 36C23.6226 36 23.893 35.897 24.0991 35.691L27.2101 32.5844C27.4082 32.3866 27.5195 32.1183 27.5195 31.8386V1.05469C27.5197 0.472218 27.0468 0 26.4636 0ZM12.9633 7.92216V6.70316C12.9633 6.12069 13.4362 5.64847 14.0194 5.64847C14.6028 5.64847 15.0756 6.12069 15.0756 6.70316V7.90782H16.2821C16.8653 7.90782 17.3382 8.38004 17.3382 8.96251C17.3382 9.54497 16.8653 10.0172 16.2821 10.0172H13.2654C12.6002 10.0172 12.0591 10.5576 12.0591 11.2219C12.0591 11.8862 12.6002 12.4267 13.2654 12.4267H14.7738C16.6037 12.4267 18.0925 13.9133 18.0925 15.7407C18.0925 17.4664 16.7646 18.8876 15.0756 19.0404V20.2595C15.0756 20.8419 14.6028 21.3141 14.0194 21.3141C13.4362 21.3141 12.9633 20.8419 12.9633 20.2595V19.0547H11.7569C11.1737 19.0547 10.7008 18.5824 10.7008 18C10.7008 17.4175 11.1737 16.9453 11.7569 16.9453H14.7738C15.439 16.9453 15.9802 16.4049 15.9802 15.7406C15.9802 15.0764 15.439 14.536 14.7738 14.536H13.2654C11.4354 14.536 9.94674 13.0492 9.94674 11.2218C9.94681 9.49618 11.2745 8.07509 12.9633 7.92216ZM19.6759 26.9625H8.36327C7.77999 26.9625 7.30711 26.4903 7.30711 25.9078C7.30711 25.3253 7.77999 24.8531 8.36327 24.8531H19.6759C20.2591 24.8531 20.7321 25.3253 20.7321 25.9078C20.7321 26.4903 20.2591 26.9625 19.6759 26.9625Z" fill="#B1C9D9"/>
</svg>
