<svg width="30" height="26" viewBox="0 0 30 26" fill="none" xmlns="http://www.w3.org/2000/svg">
<path d="M7.5 14.9336C8.30901 14.9336 8.96484 14.2778 8.96484 13.4688C8.96484 12.6597 8.30901 12.0039 7.5 12.0039C6.69099 12.0039 6.03516 12.6597 6.03516 13.4688C6.03516 14.2778 6.69099 14.9336 7.5 14.9336Z" fill="#2F6283"/>
<path d="M7.5 16.6914C6.43383 16.6914 5.56641 17.5588 5.56641 18.625V20.0898H9.43359V18.625C9.43359 17.5588 8.56617 16.6914 7.5 16.6914Z" fill="#2F6283"/>
<path d="M23.0273 16.1055C18.2133 16.1055 14.2969 12.189 14.2969 7.375C14.2969 6.58457 14.4031 5.81857 14.6009 5.08984H2.63672C1.18283 5.08984 0 6.27268 0 7.72656V22.9609C0 24.4148 1.18283 25.5977 2.63672 25.5977H24.4922C25.9461 25.5977 27.1289 24.4148 27.1289 22.9609V15.08C25.9053 15.734 24.509 16.1055 23.0273 16.1055ZM14.5312 16.3398H17.8125C18.2979 16.3398 18.6914 16.7334 18.6914 17.2188C18.6914 17.7041 18.2979 18.0977 17.8125 18.0977H14.5312C14.0459 18.0977 13.6523 17.7041 13.6523 17.2188C13.6523 16.7334 14.0459 16.3398 14.5312 16.3398ZM11.1914 20.9688C11.1914 21.4541 10.7979 21.8477 10.3125 21.8477H4.6875C4.20211 21.8477 3.80859 21.4541 3.80859 20.9688V18.625C3.80859 17.4544 4.35703 16.41 5.20969 15.7332C4.63371 15.1507 4.27734 14.3507 4.27734 13.4688C4.27734 11.6918 5.72303 10.2461 7.5 10.2461C9.27697 10.2461 10.7227 11.6918 10.7227 13.4688C10.7227 14.3507 10.3663 15.1507 9.79031 15.7332C10.643 16.41 11.1914 17.4544 11.1914 18.625V20.9688ZM19.2188 21.8477H14.5312C14.0459 21.8477 13.6523 21.4541 13.6523 20.9688C13.6523 20.4834 14.0459 20.0898 14.5312 20.0898H19.2188C19.7041 20.0898 20.0977 20.4834 20.0977 20.9688C20.0977 21.4541 19.7041 21.8477 19.2188 21.8477Z" fill="#2F6283"/>
<path d="M23.0273 0.402344C19.1826 0.402344 16.0547 3.53025 16.0547 7.375C16.0547 11.2197 19.1826 14.3477 23.0273 14.3477C26.8721 14.3477 30 11.2197 30 7.375C30 3.53025 26.8721 0.402344 23.0273 0.402344ZM25.1088 6.53143L22.765 9.34393C22.597 9.54555 22.3489 9.66016 22.0899 9.66016C22.0562 9.66016 22.0224 9.65822 21.9885 9.6543C21.6939 9.62008 21.4363 9.43961 21.3037 9.1743L20.3662 7.2993C20.1491 6.86518 20.3251 6.33719 20.7592 6.12016C21.1934 5.90295 21.7213 6.07902 21.9384 6.5132L22.2749 7.18621L23.7584 5.40607C24.0691 5.03318 24.6234 4.98279 24.9962 5.29352C25.3692 5.6043 25.4196 6.15848 25.1088 6.53143Z" fill="#2F6283"/>
</svg>
