<svg width="50" height="50" viewBox="0 0 50 50" fill="none" xmlns="http://www.w3.org/2000/svg">
<g clip-path="url(#clip0)">
<path d="M25.0005 15.4742C19.7472 15.4742 15.4736 19.7478 15.4736 25.0007C15.4736 30.2539 19.7472 34.5275 25.0005 34.5275C30.2533 34.5275 34.5269 30.2539 34.5269 25.0007C34.5269 19.7478 30.2533 15.4742 25.0005 15.4742ZM30.6565 23.2066L23.8316 30.0315C23.5452 30.318 23.1694 30.4614 22.794 30.4614C22.4187 30.4614 22.0433 30.3184 21.7568 30.0315L19.1487 27.4234C18.5757 26.8508 18.5757 25.9219 19.1487 25.349C19.7213 24.776 20.6502 24.776 21.2231 25.349L22.794 26.9199L28.5821 21.1322C29.1547 20.5592 30.0835 20.5592 30.6565 21.1322C31.2295 21.7048 31.2295 22.6337 30.6565 23.2066Z" fill="#245E63"/>
<path d="M46.2399 13.5661L46.2384 13.5272C46.2167 13.047 46.2022 12.5388 46.1934 11.9735C46.1526 9.21664 43.961 6.93622 41.2038 6.7821C35.455 6.46129 31.0079 4.58675 27.2081 0.883073L27.1757 0.852174C25.9363 -0.284221 24.0667 -0.284221 22.8269 0.852174L22.7945 0.883073C18.9947 4.58675 14.5475 6.46129 8.79878 6.78249C6.04191 6.93622 3.84999 9.21664 3.80917 11.9739C3.80078 12.5354 3.7859 13.0435 3.76416 13.5272L3.76187 13.6176C3.6501 19.4797 3.51124 26.7753 5.95188 33.3972C7.29389 37.0387 9.32635 40.2041 11.9924 42.8061C15.0289 45.7693 19.0061 48.1219 23.8134 49.798C23.9698 49.8526 24.1323 49.8968 24.2979 49.93C24.5313 49.9766 24.7663 49.9998 25.0013 49.9998C25.2363 49.9998 25.4716 49.9766 25.7047 49.93C25.8703 49.8968 26.0339 49.8522 26.1911 49.7973C30.9926 48.118 34.9656 45.7644 37.9994 42.8015C40.6644 40.1988 42.6968 37.0326 44.04 33.3903C46.4898 26.7486 46.3513 19.4392 46.2399 13.5661ZM25.0005 37.4613C18.1295 37.4613 12.5398 31.8717 12.5398 25.0007C12.5398 18.1297 18.1295 12.54 25.0005 12.54C31.8711 12.54 37.4612 18.1297 37.4612 25.0007C37.4612 31.8717 31.8711 37.4613 25.0005 37.4613Z" fill="#245E63"/>
</g>
<defs>
<clipPath id="clip0">
<rect width="50" height="50" fill="white"/>
</clipPath>
</defs>
</svg>
