<svg width="45" height="45" viewBox="0 0 45 45" fill="none" xmlns="http://www.w3.org/2000/svg">
<path d="M22.4993 0C10.0734 0 0 10.0741 0 22.4996C0 34.9251 10.0734 45 22.4993 45C34.9256 45 44.9994 34.9254 44.9994 22.4996C44.9994 10.0738 34.9256 0 22.4993 0ZM34.8246 33.3957H34.8237C34.8237 34.6166 33.8336 35.6067 32.6125 35.6067H31.2454V26.043H24.7874V35.6064H12.1622C10.9414 35.6064 9.95128 34.6163 9.95128 33.3954V21.925C11.0574 21.8386 12.049 21.3383 12.7648 20.5738C13.5533 21.416 14.6746 21.9428 15.9168 21.9428C17.1591 21.9428 18.2802 21.416 19.0689 20.5738C19.8574 21.416 20.9791 21.9428 22.2212 21.9428C23.4634 21.9428 24.5846 21.416 25.3733 20.5738C26.1618 21.416 27.283 21.9428 28.5253 21.9428C29.7676 21.9428 30.8884 21.416 31.6774 20.5738C32.4649 21.4148 33.5844 21.9413 34.8246 21.9428V33.3957ZM34.8284 19.6087C33.734 19.6087 32.8435 18.7182 32.8435 17.6238C32.8435 16.9791 32.321 16.4567 31.6763 16.4567C31.0316 16.4567 30.5092 16.9791 30.5092 17.6238C30.5092 18.7182 29.6191 19.6087 28.5243 19.6087C27.4294 19.6087 26.5394 18.7182 26.5394 17.6238C26.5394 16.9791 26.0169 16.4567 25.3722 16.4567C24.7275 16.4567 24.2051 16.9791 24.2051 17.6238C24.2051 18.7182 23.3146 19.6087 22.2202 19.6087C21.1258 19.6087 20.235 18.7182 20.235 17.6238C20.235 16.9791 19.7125 16.4567 19.0678 16.4567C18.4231 16.4567 17.9007 16.9791 17.9007 17.6238C17.9007 18.7182 17.0102 19.6087 15.9158 19.6087C14.8214 19.6087 13.9309 18.7182 13.9309 17.6238C13.9309 16.9791 13.4084 16.4567 12.7637 16.4567C12.119 16.4567 11.5966 16.9791 11.5966 17.6238C11.5966 18.7182 10.7061 19.6087 9.61139 19.6087C8.63416 19.6087 7.81982 18.8988 7.65647 17.9678L13.6816 9.80219H31.1594L36.7974 17.867C36.6786 18.8473 35.8405 19.6087 34.8284 19.6087Z" fill="#51BCC3"/>
<path d="M20.4982 26.123H13.3555V31.1124H20.4982V26.123Z" fill="#51BCC3"/>
</svg>
