<svg width="50" height="50" viewBox="0 0 50 50" fill="none" xmlns="http://www.w3.org/2000/svg">
<path fill-rule="evenodd" clip-rule="evenodd" d="M5.51948 25C2.47121 25 0 27.4711 0 30.5195V44.4805C0 47.5288 2.47121 50 5.51948 50H19.4805C22.5288 50 25 47.5288 25 44.4805V30.5195C25 27.4711 22.5288 25 19.4805 25H5.51948ZM10.6331 30.3571C9.69175 30.3571 8.92857 31.1203 8.92857 32.0617C8.92857 33.0031 9.69175 33.7662 10.6331 33.7662H14.3669C15.3083 33.7662 16.0714 33.0031 16.0714 32.0617C16.0714 31.1203 15.3083 30.3571 14.3669 30.3571H10.6331Z" fill="#245E63"/>
<path fill-rule="evenodd" clip-rule="evenodd" d="M30.5195 25C27.4712 25 25 27.4712 25 30.5195V44.4805C25 47.5288 27.4712 50 30.5195 50H44.4805C47.5288 50 50 47.5288 50 44.4805V30.5195C50 27.4712 47.5288 25 44.4805 25H30.5195ZM35.6331 30.3571C34.6917 30.3571 33.9286 31.1203 33.9286 32.0617C33.9286 33.0031 34.6917 33.7662 35.6331 33.7662H39.3669C40.3083 33.7662 41.0714 33.0031 41.0714 32.0617C41.0714 31.1203 40.3083 30.3571 39.3669 30.3571H35.6331Z" fill="#245E63"/>
<path fill-rule="evenodd" clip-rule="evenodd" d="M21.4286 0C18.3802 0 15.9091 2.47116 15.9091 5.51948V19.4805C15.9091 22.5288 18.3802 25 21.4286 25H35.3896C38.4379 25 40.9091 22.5288 40.9091 19.4805V5.51948C40.9091 2.47116 38.4379 0 35.3896 0H21.4286ZM26.5422 5.35714C25.6008 5.35714 24.8377 6.12029 24.8377 7.06169C24.8377 8.00308 25.6008 8.76623 26.5422 8.76623H30.276C31.2174 8.76623 31.9805 8.00308 31.9805 7.06169C31.9805 6.12029 31.2174 5.35714 30.276 5.35714H26.5422Z" fill="#245E63"/>
</svg>
