<svg width="50" height="50" viewBox="0 0 50 50" fill="none" xmlns="http://www.w3.org/2000/svg">
<g clip-path="url(#clip0)">
<path d="M46.804 24.5326C46.6471 24.4998 46.4989 24.4689 46.3671 24.4348C44.873 24.0485 44.1911 23.8367 43.6869 22.8686L41.777 19.0233C41.1632 17.845 39.5783 16.8862 38.244 16.8862H34.8439V12.4459C34.8439 11.6487 34.1916 11 33.3897 11L9.70754 11.0237C8.92725 11.0237 8.33885 11.6403 8.33885 12.4581V13.7705H2.27211C1.0193 13.7706 0 14.7842 0 16.0302C0 17.2762 1.0193 18.2897 2.27211 18.2897H8.33874V20.4554H4.36671C3.11391 20.4554 2.0946 21.4691 2.0946 22.715C2.0946 23.9608 3.11391 24.9745 4.36671 24.9745H8.33874V27.1402H6.46131C5.20851 27.1402 4.18921 28.1539 4.18921 29.3998C4.18921 30.6456 5.20851 31.6593 6.46131 31.6593H8.33874V33.9244C8.33874 34.7217 8.99103 35.3704 9.79272 35.3704H12.2562C12.6398 37.9852 14.9092 40 17.6437 40C20.3784 40 22.6479 37.9852 23.0317 35.3704H33.0014C33.0531 35.3704 33.1062 35.367 33.1592 35.3635C33.5399 37.9817 35.8107 40 38.5476 40C41.2822 40 43.5518 37.9852 43.9355 35.3704H47.474C48.8669 35.3704 50.0001 34.2435 50.0001 32.8584V28.596C50 25.1994 48.0766 24.7981 46.804 24.5326ZM38.5476 32.6167C39.6394 32.6167 40.5277 33.4998 40.5277 34.5853C40.5277 35.6708 39.6394 36.5538 38.5476 36.5538C37.4562 36.5538 36.5682 35.6708 36.5682 34.5853C36.5682 33.4998 37.4562 32.6167 38.5476 32.6167ZM34.8439 24.2264V18.9833H37.4422C38.4409 18.9833 39.6728 19.7286 40.1301 20.606L41.8296 24.0278C41.8656 24.0971 41.903 24.1631 41.9418 24.2263H34.8439V24.2264ZM19.6238 34.5852C19.6238 35.6705 18.7355 36.5537 17.6437 36.5537C16.5523 36.5537 15.6644 35.6707 15.6644 34.5852C15.6644 33.4997 16.5523 32.6166 17.6437 32.6166C18.7355 32.6167 19.6238 33.4998 19.6238 34.5852Z" fill="#245E63"/>
</g>
<defs>
<clipPath id="clip0">
<rect width="50" height="50" fill="white"/>
</clipPath>
</defs>
</svg>
