<svg width="20" height="20" viewBox="0 0 20 20" fill="none" xmlns="http://www.w3.org/2000/svg">
<g clip-path="url(#clip0)">
<path fill-rule="evenodd" clip-rule="evenodd" d="M17.2127 11.5377C17.8762 12.1854 18.5764 12.7948 19.1714 13.5078C19.4342 13.8247 19.6831 14.1517 19.8735 14.5194C20.1432 15.0421 19.8989 15.6174 19.4302 15.6486L16.5165 15.6473C15.765 15.7096 15.1655 15.4071 14.6615 14.8933C14.2581 14.4824 13.8845 14.0451 13.4966 13.6203C13.3376 13.4467 13.1711 13.2834 12.9723 13.1542C12.5745 12.8961 12.2293 12.9751 12.002 13.39C11.7705 13.8119 11.718 14.2791 11.6952 14.7493C11.664 15.4354 11.4566 15.6158 10.7675 15.6472C9.2946 15.7167 7.89679 15.4938 6.59826 14.7508C5.45343 14.0958 4.56566 13.1711 3.79296 12.1243C2.28849 10.0858 1.13637 7.84593 0.100885 5.54326C-0.132195 5.02447 0.0382615 4.74598 0.610676 4.73612C1.5612 4.71766 2.51158 4.71897 3.46322 4.73481C3.84954 4.74046 4.10529 4.96204 4.25445 5.327C4.76871 6.59149 5.39797 7.79454 6.18782 8.90967C6.39816 9.20655 6.61265 9.50344 6.91808 9.7124C7.25596 9.94377 7.51323 9.86709 7.67218 9.49069C7.77305 9.25203 7.81721 8.99496 7.83994 8.73934C7.91525 7.85992 7.92517 6.98202 7.79309 6.10569C7.712 5.55877 7.40395 5.20471 6.85821 5.10122C6.57973 5.04845 6.62119 4.94482 6.75603 4.78587C6.99023 4.51172 7.21049 4.34106 7.64958 4.34106H10.9425C11.4609 4.44338 11.576 4.67626 11.6469 5.19788L11.6498 8.85559C11.6441 9.05752 11.7506 9.65674 12.1144 9.7904C12.4055 9.88555 12.5973 9.65267 12.772 9.46809C13.5604 8.63131 14.1231 7.64242 14.6258 6.61843C14.8489 6.16818 15.0407 5.70057 15.2266 5.23336C15.3643 4.88667 15.5805 4.71608 15.971 4.72364L19.1402 4.72646C19.2341 4.72646 19.3292 4.72784 19.4202 4.74342C19.9543 4.83443 20.1006 5.06416 19.9357 5.58564C19.6758 6.40382 19.1701 7.08564 18.6757 7.77062C18.1472 8.50193 17.582 9.2082 17.0578 9.94384C16.5763 10.6156 16.6146 10.9542 17.2127 11.5377Z" fill="#245E63"/>
</g>
<defs>
<clipPath id="clip0">
<rect width="20" height="20" fill="white"/>
</clipPath>
</defs>
</svg>
