<svg width="25" height="25" viewBox="0 0 25 25" fill="none" xmlns="http://www.w3.org/2000/svg">
<path d="M24.48 17.4917L15.6526 2.78486C14.9853 1.66738 13.8067 1 12.4999 1C11.1932 1 10.0146 1.66738 9.34723 2.78486L0.520614 17.4917C-0.161027 18.6326 -0.173917 20.003 0.485507 21.1568C1.14644 22.3113 2.33717 23 3.67252 23H21.3273C22.6627 23 23.8535 22.3113 24.5143 21.1568C25.1738 20.003 25.161 18.6326 24.48 17.4917ZM12.5 5.49636C13.3099 5.49636 13.9664 6.14937 13.9664 6.95498V12.7896C13.9664 13.5951 13.3099 14.2482 12.5 14.2482C11.6901 14.2482 11.0336 13.595 11.0336 12.7896V6.95498C11.0335 6.14937 11.6901 5.49636 12.5 5.49636ZM12.5 20.0827C11.287 20.0827 10.3003 19.1012 10.3003 17.8947C10.3003 16.6882 11.287 15.7068 12.5 15.7068C13.7129 15.7068 14.6996 16.6882 14.6996 17.8947C14.6996 19.1013 13.7129 20.0827 12.5 20.0827Z" fill="white"/>
</svg>
