<svg width="259" height="20" viewBox="0 0 259 20" fill="none" xmlns="http://www.w3.org/2000/svg"><g clip-path="url(#clip0)" fill="#DAE8F1"><path d="M139.481 10.123c0 5.433-4.436 10.124-10.104 10.124-5.421 0-10.104-4.444-10.104-10.123C119.273 4.69 123.709 0 129.377 0c5.668 0 10.104 4.444 10.104 10.123zm84.031.001c0-2.222 1.725-4.197 4.189-4.197 2.218 0 4.189 1.728 4.189 4.197 0 2.223-1.725 4.198-4.189 4.198-2.464-.247-4.189-1.975-4.189-4.198zm-53.475 0c0-2.222 1.725-4.197 4.189-4.197 2.218 0 4.19 1.728 4.19 4.197 0 2.223-1.725 4.198-4.19 4.198-2.464-.247-4.189-1.975-4.189-4.198z"/><path d="M258.262 10.865H143.179c-.493 0-.74-.247-.74-.74 0-.494.247-.741.74-.741h115.083c.493 0 .74.247.74.74 0 .247-.247.741-.74.741zm-222.53-.741c0 2.223-1.725 4.198-4.19 4.198-2.217 0-4.189-1.729-4.189-4.198 0-2.222 1.725-4.197 4.19-4.197 2.218 0 4.19 1.728 4.19 4.197zm53.475 0c0 2.223-1.725 4.198-4.19 4.198-2.217 0-4.189-1.729-4.189-4.198 0-2.222 1.725-4.197 4.19-4.197 2.217 0 4.189 1.728 4.189 4.197z"/><path d="M115.823 10.865H.739c-.493 0-.739-.494-.739-.74 0-.494.246-.741.74-.741h115.083c.493 0 .739.247.739.74 0 .247-.246.741-.739.741z"/></g><defs><clipPath id="clip0"><path fill="#fff" d="M0 0h259v20H0z"/></clipPath></defs></svg>