<svg width="1159" height="704" viewBox="0 0 1159 704" fill="none" xmlns="http://www.w3.org/2000/svg"><path d="M530.631 700.116C32.227 682.743-22.397 314.941 68.863 182.335 198.91-6.646 443.43 315.832 660.885 105.94c239.074-230.779 554.165 34.782 469.185 326.061-50.24 172.232-202.273 281.963-599.439 268.115z" fill="#E7F1F8"/><path d="M49.279 504.893a1.731 1.731 0 01-1.677-2.135c.08-.339.262-.647.52-.882a239.052 239.052 0 0127.596-21.557 1.738 1.738 0 111.93 2.889 235.565 235.565 0 00-27.202 21.235c-.32.289-.736.45-1.167.45zm482.765 10.265a304.39 304.39 0 01-125.537-27.118c-62.312-27.985-121.271-43.162-175.26-45.081-54.335-1.965-102.809 9.525-143.965 34.169a1.728 1.728 0 01-1.344.252 1.739 1.739 0 01-1.11-.801 1.731 1.731 0 01.674-2.422c41.746-24.991 90.821-36.654 145.872-34.677 54.428 1.976 113.838 17.258 176.555 45.427a301.387 301.387 0 00185.537 20.518c47.399-9.779 77.595-27.684 77.896-27.869l.127-.07c88.266-43.347 172.751-57.796 251.109-42.884 68.705 13.062 119.442 46.572 149.912 72.383.17.148.31.328.42.53a1.837 1.837 0 01.11 1.323 1.88 1.88 0 01-.33.592c-.15.174-.33.317-.53.421-.21.104-.43.168-.65.187-.23.018-.46-.008-.68-.077-.21-.07-.41-.181-.59-.329-30.14-25.545-80.344-58.709-148.309-71.667-77.584-14.749-161.318-.427-248.878 42.561-1.642.96-31.942 18.495-78.775 28.228a307.59 307.59 0 01-62.254 6.404zm568.836 23.199c-.25 0-.48-.05-.71-.148-.22-.097-.41-.24-.58-.418a315.365 315.365 0 00-22.76-22.425 1.77 1.77 0 01-.58-1.197c-.02-.459.13-.91.44-1.254a1.75 1.75 0 011.2-.577c.46-.026.91.132 1.25.439a321.445 321.445 0 0123 22.679c.22.248.37.557.43.889.05.332.01.672-.13.979-.14.308-.36.569-.64.752-.28.184-.61.281-.95.281h.03zm15.32 18.471a1.714 1.714 0 01-1.42-.739s-3.4-4.832-9.92-12.369a1.692 1.692 0 01-.34-.59 1.724 1.724 0 01-.09-.676c.01-.229.07-.453.17-.659.11-.206.25-.391.42-.543a1.764 1.764 0 011.26-.433c.23.015.46.074.66.175.21.102.39.242.55.415 6.66 7.686 10 12.449 10.14 12.645.18.26.28.565.31.882.02.316-.05.632-.2.914-.14.281-.37.517-.64.681a1.72 1.72 0 01-.9.251v.046zm-70.02 65.795c-.34 0-.67-.096-.95-.277-6.06-3.976-13.52-8.276-22.19-12.796a1.73 1.73 0 01-.79-1.015c-.13-.428-.08-.888.12-1.283.21-.396.56-.697.98-.842.42-.144.88-.121 1.29.065 8.77 4.624 16.35 8.924 22.5 12.97.31.206.54.506.67.856.13.351.14.733.03 1.09a1.75 1.75 0 01-.63.891c-.3.222-.66.342-1.03.341zm-29.6-16.552c-.26 0-.52-.063-.76-.185-83.629-41.452-230.45-83.897-368.877-67.044a1.734 1.734 0 01-1.287-.36 1.753 1.753 0 01-.655-1.166 1.73 1.73 0 01.361-1.286 1.736 1.736 0 011.165-.655c139.144-16.946 286.704 25.707 370.843 67.378.35.175.63.463.79.816.17.353.21.752.12 1.131s-.31.718-.61.96c-.31.242-.68.375-1.07.376l-.02.035zm-411.556-60.258a1.745 1.745 0 01-1.532-2.834 1.745 1.745 0 011.174-.634 464.561 464.561 0 0127.641-5.028 1.756 1.756 0 011.995 1.473c.069.46-.048.929-.324 1.303a1.76 1.76 0 01-1.15.691 459.448 459.448 0 00-27.445 5.005 1.88 1.88 0 01-.359.024zM328.632 609.77a582.924 582.924 0 01-81.098-5.78c-59.965-8.427-108.473-24.887-125.745-32.366a1.73 1.73 0 01-.89-2.312 1.713 1.713 0 012.312-.89c.497.208 50.451 21.72 124.948 32.17a565.205 565.205 0 00129.34 3.467 494.027 494.027 0 00150.069-37.405 414.372 414.372 0 0166.081-21.766 1.736 1.736 0 012.001 1.294 1.734 1.734 0 01-1.18 2.07 412.19 412.19 0 00-65.549 21.615 498.157 498.157 0 01-151.214 37.741 552.586 552.586 0 01-49.075 2.162z" fill="#DAE8F1"/><path d="M901.753 620.555c-.578-3.549-.752-7.04-3.468-9.999a9.008 9.008 0 00-9.249-2.393c-6.127 2.601-9.48 10.935-14.798.254-2.011-4.045-2.034-6.785-2.092-11.651-.867-15.189-1.353-29.869-5.457-43.821-1.075-3.676-6.416-22.367-12.474-19.651-4.555 2.046-2.797 10.011-6.323 13.259-2.671 2.473-5.781 2.231-7.919 0-16.185-17.085-5.908-51.254-21.966-68.442-1.607-1.722-5.491-4.254-9.468-2.185-2.312 1.156-4.069 4.693-4.254 7.271-.312 4.184.381 7.976-1.156 12.068-.671 1.814-1.665 3.826-3.341 4.531-1.677.705-3.468-.382-4.821-1.572-6.197-5.606-8.879-14.715-13.873-21.546-4.994-6.832-10.74-12.311-21.376-13.074-2.751-.196-6.763 1.584-10.797 4.624-5.492 4.103-10.15 12.252-10.012 18.887.139 6.82 3.596 14.022 7.283 18.877 7.677 10.149 18.752 17.338 26.428 27.522 1.249 1.653 2.543 3.895 1.445 6.092-1.965 3.953-9.826 2.08-12.821 5.282-2.994 3.202-1.306 10.588 2.602 14.576 9.248 9.652 16.185 13.675 28.335 20.691 3.029 1.746 4.925 6.936 2 9.895-1.457 1.468-5.908 1.456-7.214 3.086-3.468 4.323-.093 7.56 1.803 9.71 10.405 11.802 24.197 19.073 33.445 31.811 2.185 3.005 3.723 8.23.405 10.935-2.844 2.312-7.665.335-11.561 1.838-3.687 1.433-8.323 4.219-3.19 16.067 9.248 21.35 22.312 31.279 45.202 37.613 1.422.393 36.844-9.929 38.381-10.345 2.567-.694 7.457-5.017 8.093-7.525 6.439-23.904 5.988-39.74 2.208-62.685z" fill="#A2D9DD"/><g opacity=".65" fill="#51BCC3"><path opacity=".5" d="M852.481 613.63l-3.075-.843a141.377 141.377 0 004.451-52.167l-.428-3.641 3.168-.416a143.214 143.214 0 01-4.116 57.067z"/><path opacity=".5" d="M879.48 689.724a391.05 391.05 0 00-18.497-51.323c-1.711-3.883-3.583-7.952-5.872-12.784-28.37-59.703-59.272-104.102-94.474-135.751l2.138-2.381c35.515 31.938 66.659 76.672 95.214 136.756 2.312 4.867 4.197 8.959 5.919 12.866a394.1 394.1 0 0118.601 51.739l-3.029.878z"/><path opacity=".5" d="M796.705 560.955a105.737 105.737 0 01-22.693-2.081l.716-3.109c12.324 2.843 31.214 2.312 43.573.601l.439 3.167a168.772 168.772 0 01-22.035 1.422zm-6.428 9.433a32.475 32.475 0 01-7.457-.81l.717-3.109c7.353 1.699 14.856.139 23.538-1.653a139.232 139.232 0 0115.965-2.647l.289 3.19a136.827 136.827 0 00-15.607 2.59c-6.012 1.236-11.792 2.439-17.445 2.439zm52.992 43.196c-15.029 0-30.058-1.745-41.468-10.403l1.942-2.543c12.023 9.189 28.786 10.102 45.086 9.709l.07 3.202c-1.85.012-3.734.035-5.63.035zm-13.163 9.582a28.57 28.57 0 01-18.497-5.918l1.943-2.531c8.612 6.577 17.144 5.594 27.93 4.357 4.035-.462 8.208-.936 12.717-1.052l.081 3.202c-4.382.104-8.474.567-12.439 1.029-3.892.52-7.809.825-11.735.913zm44.6 47.659c-14.601-.694-29.514-4.959-44.347-12.715l1.48-2.832c14.416 7.513 28.902 11.663 43.017 12.333l-.15 3.214z"/><path opacity=".5" d="M877.086 672.871l-2.832-1.48a53.044 53.044 0 005.561-20.98c.333-7.098.136-14.211-.59-21.28l3.179-.243c.745 7.226.942 14.499.59 21.755a56.147 56.147 0 01-5.908 22.228z"/><path opacity=".5" d="M879.378 680.13l-2.671-1.757c5.526-8.415 9.387-15.975 11.48-22.471 2.936-9.085 4.023-23.754 3.468-30.273l3.191-.243c.601 7.664-.844 22.76-3.665 31.499-2.127 6.762-6.116 14.587-11.803 23.245zm-59.831-125.891l-3.145-.543a117.895 117.895 0 002.081-25.326c-.439-14.761-.717-24.864-.717-24.864l3.191-.093s.278 10.103.717 24.864a120.52 120.52 0 01-2.127 25.962z"/><path opacity=".5" d="M816.371 550.818l-3.156-.544c1.064-6.253.509-12.553 0-18.644-.266-2.902-.52-5.896-.613-8.855-.427-14.541-1.641-29.591-1.653-29.742l3.179-.265c0 .161 1.237 15.292 1.665 29.915.093 2.866.347 5.779.601 8.669.532 6.288 1.11 12.796-.023 19.466z"/></g><path d="M847.127 580.826c.867-5.295 1.156-10.531 5.271-14.946 4.393-4.624 10.879-4.855 13.873-3.584 9.168 3.896 14.173 16.356 22.127.382 3.017-6.046 3.052-10.149 3.133-17.432 1.295-22.702 2.023-44.653 8.093-65.517 1.618-5.491 9.595-33.441 18.658-29.372 6.81 3.052 4.185 14.969 9.457 19.836 3.989 3.687 8.671 3.329 11.838 0 24.22-25.535 8.833-76.638 32.89-102.345 2.416-2.578 8.22-6.358 14.174-3.26 3.468 1.803 6.08 7.016 6.358 10.877.462 6.254-.578 11.918 1.676 18.033 1.006 2.728 2.497 5.779 4.994 6.785 2.721 1.156 5.261-.578 7.211-2.312 9.25-8.392 13.27-22.02 20.65-32.215 7.56-10.404 16.07-18.414 31.98-19.559 4.1-.289 10.1 2.37 16.18 6.936 8.2 6.138 15.17 18.333 14.96 28.251-.21 10.183-5.37 20.956-10.89 28.227-11.48 15.177-28.03 25.985-39.51 41.162-1.88 2.462-3.81 5.78-2.16 9.097 2.93 5.919 14.69 3.11 19.16 7.895 4.23 4.531 1.85 15.836-3.94 21.847-13.87 14.414-24.13 20.437-42.37 30.932-4.53 2.613-7.37 10.404-2.99 14.796 2.18 2.196 8.84 2.185 10.79 4.624 5.17 6.461.14 11.305-2.69 14.518-15.56 17.651-36.195 28.517-50.01 47.566-3.272 4.497-5.573 12.311-.613 16.368 4.254 3.468 11.456.485 17.248 2.728 5.526 2.15 12.44 6.311 4.775 24.043-13.792 31.915-33.376 46.757-67.595 56.247-2.116.589-55.098.636-57.387 0-3.839-1.029-25.885-20.992-26.891-24.748-9.514-35.868 5.908-61.541 11.55-95.86z" fill="#A2D9DD"/><g opacity=".65" fill="#51BCC3"><path opacity=".5" d="M920.8 570.48c-7.803-28.505-9.919-58.004-6.116-85.341l4.74.612-.647 5.445a211.103 211.103 0 006.659 78.024l-4.636 1.26z"/><path opacity=".5" d="M880.429 684.303l-4.624-1.306a590.851 590.851 0 0127.826-77.377 822.585 822.585 0 018.844-19.223c42.694-89.861 89.275-156.742 142.395-204.505l3.19 3.549c-52.61 47.288-98.822 113.684-141.238 202.921a683.816 683.816 0 00-8.798 19.107 587.088 587.088 0 00-27.595 76.834z"/><path opacity=".5" d="M1004.23 491.716a251.248 251.248 0 01-32.953-2.139l.659-4.739c18.497 2.555 46.704 3.364 65.144-.901l1.08 4.623c-9.63 2.266-21.81 3.156-33.93 3.156zm9.61 14.09c-8.46 0-17.099-1.791-26.093-3.641a204.458 204.458 0 00-23.341-3.884l.44-4.75a206.101 206.101 0 0123.872 3.953c12.982 2.681 24.192 5.005 35.182 2.462l1.07 4.624a48.834 48.834 0 01-11.13 1.236zm-79.257 64.593c-2.836 0-5.661-.035-8.474-.104l.116-4.774c24.405.566 49.48-.786 67.468-14.53l2.902 3.803c-17.006 13.004-39.48 15.605-62.012 15.605zm19.688 14.333a156.478 156.478 0 01-17.595-1.375c-5.92-.671-12.058-1.376-18.59-1.538l.104-4.773c6.763.161 13.006.878 19.04 1.572 16.185 1.849 28.902 3.317 41.769-6.531l2.902 3.803c-9.064 6.924-18.07 8.842-27.63 8.842zm-66.696 71.274l-.231-4.773c21.144-1.006 42.774-7.213 64.335-18.495l2.208 4.242c-22.173 11.594-44.474 17.986-66.312 19.026z"/><path opacity=".5" d="M884.016 659.07c-4.959-9.456-7.93-20.645-8.832-33.256-.798-11.12 0-21.962.878-32.527l4.763.37c-.809 10.403-1.653 21.06-.878 31.81.855 11.952 3.653 22.506 8.3 31.372l-4.231 2.231z"/><path opacity=".5" d="M880.578 669.912c-8.486-12.946-14.451-24.644-17.711-34.747-4.22-13.073-6.37-35.66-5.469-47.115l4.763.37c-.763 9.744.867 31.684 5.249 45.277 3.133 9.698 8.913 21.003 17.168 33.591l-4 2.624zm89.468-188.253c-2.312-13.686-3.595-24.424-3.179-38.827.659-22.066 1.075-37.163 1.075-37.163l4.786.128s-.428 15.107-1.075 37.174c-.416 14.01.821 24.505 3.11 37.879l-4.717.809z"/><path opacity=".5" d="M974.827 476.55c-1.699-9.975-.844-19.65 0-29.117.37-4.266.763-8.67.89-12.958.648-21.87 2.474-44.503 2.497-44.723l4.763.382c0 .231-1.838 22.737-2.485 44.48-.127 4.427-.52 8.912-.902 13.235-.809 9.108-1.642 18.495 0 27.892l-4.763.809z"/></g><path d="M202.988 348.009h42.867v168.972h18.589v35.73h-18.589v45.369h-38.521v-45.369H131.52v-35.73l71.468-168.972zm4.346 74.973l-39.664 93.953h39.664v-93.953zm131.428-77.84c38.59 0 59.676 22.864 59.676 62.882v130.041c0 40.018-21.086 62.882-59.676 62.882-38.589 0-59.664-22.864-59.664-62.882V408.024c0-40.018 21.075-62.882 59.664-62.882zm0 220.075c12.509 0 20.37-6.785 20.37-24.655V405.527c0-17.87-7.861-24.655-20.37-24.655-12.508 0-20.37 6.785-20.37 24.655v135.035c0 17.87 7.862 24.655 20.37 24.655zm147.187-217.208h42.89v168.972h18.589v35.73h-18.589v45.369h-38.59v-45.369h-75.745v-35.73l71.445-168.972zm4.277 75.019l-39.653 93.953h39.653v-93.953z" fill="#245E63"/><path d="M76.381 703.954H16.59a1.735 1.735 0 010-3.468h59.79a1.735 1.735 0 010 3.468zm41.743 0H94.668a1.735 1.735 0 010-3.468h23.456a1.734 1.734 0 010 3.468zm978.866 0H125.812a1.734 1.734 0 010-3.468h971.178c.46 0 .9.183 1.23.508.32.325.5.766.5 1.226 0 .46-.18.901-.5 1.226-.33.325-.77.508-1.23.508z" fill="#A2D9DD"/><path d="M1156.86 312.225h-59.79c-.46 0-.9-.183-1.23-.508-.32-.325-.5-.766-.5-1.226 0-.46.18-.901.5-1.226.33-.325.77-.508 1.23-.508h59.79c.46 0 .9.183 1.23.508.32.325.51.766.51 1.226 0 .46-.19.901-.51 1.226-.33.325-.77.508-1.23.508zm-67.09 0h-4.32c-.46 0-.9-.183-1.23-.508a1.757 1.757 0 01-.51-1.226c0-.46.19-.901.51-1.226.33-.325.77-.508 1.23-.508h4.32c.46 0 .9.183 1.23.508.32.325.51.766.51 1.226 0 .46-.19.901-.51 1.226-.33.325-.77.508-1.23.508zM73.534 246.569h-59.78a1.735 1.735 0 010-3.468h59.78a1.735 1.735 0 010 3.468zm-67.074 0H2.136a1.735 1.735 0 010-3.468H6.46a1.735 1.735 0 010 3.468zM741.905 70.233h-59.78a1.733 1.733 0 110-3.467h59.78a1.733 1.733 0 110 3.467zm-67.089 0h-4.312a1.734 1.734 0 110-3.468h4.312a1.733 1.733 0 110 3.468z" fill="#D7DCE7"/><path d="M414.273 149.946h215.11s-5.145-66.65-73.676-68.72c-45.734-1.387-57.734 31.569-57.734 31.569s-36.994-5.433-39.862 34.4c0 0-4.497-17.073-22.901-16.507-7.584.243-20.486 7.028-20.937 19.258zm570.473 20.748h166.134s-3.97-51.461-56.89-53.068c-35.33-1.075-44.59 24.378-44.59 24.378s-28.54-4.196-30.79 26.587c0 0-3.47-13.178-17.68-12.716-5.86.174-15.826 5.375-16.184 14.819z" fill="#DAE8F1"/><path d="M132.832 285.743h160.485s-3.838-49.705-54.959-51.265c-34.116-1.04-43.064 23.546-43.064 23.546s-23.121-4.624-29.745 15.559c0 0-4.948-4.508-15.133-4.173-5.665.196-16.763 4.542-17.584 16.333zm480.285 73.909h104.231s-2.497-32.285-35.699-33.302c-22.162-.67-27.965 15.304-27.965 15.304s-15.029-3.028-19.318 10.103c0 0-3.214-2.924-9.827-2.716-3.641.127-10.855 2.924-11.422 10.611z" fill="#fff"/><path d="M362.25 79.354h-33.641a1.492 1.492 0 110-2.982h33.641a1.492 1.492 0 110 2.982zm-39.923 0h-3.711a1.49 1.49 0 01-1.054-2.546 1.49 1.49 0 011.054-.436h3.711a1.492 1.492 0 110 2.982zm19.704 41.324a1.493 1.493 0 01-1.404-1.95 1.49 1.49 0 01.537-.743l27.225-19.732a1.492 1.492 0 012.099 1.392 1.487 1.487 0 01-.342.92l-27.237 19.778a1.448 1.448 0 01-.878.335zm-8.078 5.872a1.487 1.487 0 01-.869-.291 1.483 1.483 0 01-.535-1.66c.097-.297.284-.557.537-.742l2.994-2.185c.32-.233.72-.329 1.111-.267a1.491 1.491 0 01.646 2.683l-3.006 2.173a1.454 1.454 0 01-.878.289zm135.289-47.196h-33.665a1.49 1.49 0 01-1.054-2.546 1.49 1.49 0 011.054-.436h33.665a1.49 1.49 0 110 2.982zm9.992 0h-3.688a1.494 1.494 0 01-1.491-1.491 1.493 1.493 0 011.491-1.491h3.711a1.492 1.492 0 110 2.982h-.023zm-50.645-21.558a1.492 1.492 0 01-.878-2.693l27.236-19.79a1.493 1.493 0 012.307 1.45 1.492 1.492 0 01-.561.966l-27.225 19.79c-.256.183-.564.28-.879.277zm32.309-23.465a1.493 1.493 0 01-1.416-1.948 1.49 1.49 0 01.537-.745l3.006-2.185a1.49 1.49 0 011.746 2.416l-3.006 2.184a1.49 1.49 0 01-.867.278zm-50.652 10.16a1.488 1.488 0 01-1.41-1.953l10.405-32.008a1.501 1.501 0 011.884-.959 1.491 1.491 0 01.96 1.873L411.68 43.463a1.5 1.5 0 01-1.434 1.028zm12.352-37.983a1.61 1.61 0 01-.463-.07 1.493 1.493 0 01-.924-1.814l1.156-3.537a1.515 1.515 0 011.884-.96 1.496 1.496 0 011.03 1.305 1.5 1.5 0 01-.07.58l-1.156 3.525a1.498 1.498 0 01-1.457.971zm-35.004 37.983a1.49 1.49 0 01-1.41-1.029l-10.405-32.018a1.488 1.488 0 01.989-1.781 1.492 1.492 0 011.843.867l10.405 32.008a1.498 1.498 0 01-.088 1.141 1.484 1.484 0 01-1.334.812zM375.256 6.508a1.491 1.491 0 01-1.445-1.029l-1.156-3.525a1.489 1.489 0 01.932-1.945 1.493 1.493 0 011.9 1.02l1.156 3.537a1.491 1.491 0 01-.959 1.873 1.61 1.61 0 01-.428.069zm-5.987 51.288c-.316 0-.624-.101-.879-.29l-27.225-19.765a1.489 1.489 0 01-.379-2.112 1.494 1.494 0 012.124-.304l27.237 19.79a1.487 1.487 0 01.536 1.664 1.496 1.496 0 01-1.414 1.028v-.011zm-32.316-23.465a1.551 1.551 0 01-.879-.278l-2.994-2.184a1.493 1.493 0 01.652-2.645c.381-.068.773.014 1.094.229l3.005 2.185a1.472 1.472 0 01.597.972 1.479 1.479 0 01-.273 1.108 1.464 1.464 0 01-1.202.613zm84.043 65.609c12.189-12.189 12.189-31.95 0-44.138-12.19-12.188-31.954-12.188-44.143 0-12.19 12.188-12.19 31.95 0 44.137 12.189 12.188 31.953 12.188 44.143 0z" fill="#EFBC59"/><path d="M782.766 293.511c-37.896 0-84.393-6.867-137.988-27.962A342.778 342.778 0 00575.9 246.21a1.755 1.755 0 01-.743-3.16 1.757 1.757 0 011.309-.307 346.264 346.264 0 0169.584 19.5c88.08 34.678 156.924 30.551 199.167 20.957 45.78-10.403 71.063-29.222 71.318-29.407.367-.258.82-.363 1.264-.293a1.73 1.73 0 011.454 1.919 1.738 1.738 0 01-.626 1.137c-.254.196-26.011 19.408-72.439 29.984a285.997 285.997 0 01-63.422 6.971zm-397.071-16.969a1.731 1.731 0 01-1.601-2.444c.159-.356.434-.647.78-.827a300.306 300.306 0 01170.023-33.291 1.744 1.744 0 011.173.624c.145.176.254.379.32.598.067.218.09.447.067.674a1.744 1.744 0 01-1.896 1.549 296.741 296.741 0 00-168.034 32.92 1.881 1.881 0 01-.832.197zm-9.943 5.502a1.736 1.736 0 01-1.617-2.396c.147-.354.406-.649.738-.84a219.57 219.57 0 015.353-3.052 1.736 1.736 0 011.676 3.04 272.45 272.45 0 00-5.283 3.005 1.69 1.69 0 01-.867.243zm-22.174 14.83a1.7 1.7 0 01-1.341-.624 1.727 1.727 0 01.232-2.439 171.863 171.863 0 0118.057-12.38 1.736 1.736 0 111.815 2.96 174.305 174.305 0 00-17.664 12.09c-.31.254-.698.393-1.099.393zm321.434-72.926a1.76 1.76 0 01-.671-.139c-15.237-6.369-23.237-12.38-23.572-12.634a1.743 1.743 0 01-.717-1.151 1.731 1.731 0 01.331-1.315 1.734 1.734 0 012.479-.297c.081 0 8.092 6.011 22.82 12.195a1.734 1.734 0 01-.67 3.341zm391.008 16.876a1.75 1.75 0 01-1.16-.393c-.22-.173-22.33-18.125-59.44-29.811-34.223-10.773-88.558-18.275-153.148 7.167-38.762 15.269-72.681 20.714-101.306 20.714-24.101.17-48.035-4-70.658-12.311a1.719 1.719 0 01-.987-.902 1.73 1.73 0 01.864-2.311 1.732 1.732 0 011.336-.035c34.682 12.969 92.22 22.055 169.48-8.38 65.607-25.847 120.832-18.183 155.609-7.202 37.7 11.895 60.23 30.216 60.46 30.401.18.144.32.322.43.523.11.201.17.421.19.648.03.227 0 .456-.07.674-.06.217-.17.419-.32.594-.16.191-.35.345-.57.453-.22.108-.47.166-.71.171zm-50.67 43.601c-.31.001-.62-.081-.88-.237a1.715 1.715 0 01-.64-.653c0-.092-3.57-6.195-8.65-6.935-2.65-.359-5.395.855-8.158 3.618a1.733 1.733 0 11-2.45-2.451c3.572-3.572 7.298-5.12 11.098-4.623 6.8.947 11.01 8.311 11.18 8.623.15.263.23.561.22.864a1.725 1.725 0 01-1.72 1.725v.069z" fill="#B5E0E3"/><path d="M1015.33 284.425a1.693 1.693 0 01-.88-.247c-.27-.16-.49-.39-.64-.664a1.646 1.646 0 01-.2-.895c.01-.312.11-.614.28-.875 2.91-4.462 6.36-6.936 10.23-7.41 5.62-.67 9.87 3.271 10.04 3.468.17.155.31.341.4.549a1.696 1.696 0 01.05 1.328c-.08.213-.21.408-.36.574a1.757 1.757 0 01-2.46.08s-3.31-3.016-7.29-2.531c-2.8.347-5.39 2.312-7.71 5.861-.16.237-.38.43-.63.563a1.77 1.77 0 01-.83.199z" fill="#B5E0E3"/><path d="M931.729 96.103a1.71 1.71 0 01-1.503-.878c0-.07-3.56-6.196-8.659-6.936-2.647-.37-5.398.855-8.092 3.606a1.736 1.736 0 01-2.409-.042 1.737 1.737 0 01-.042-2.408c3.572-3.572 7.295-5.11 11.087-4.624 6.809.936 11.017 8.311 11.191 8.623a1.726 1.726 0 01-.648 2.355c-.264.15-.563.226-.867.223l-.058.081z" fill="#51BCC3"/><path d="M931.727 96.103c-.335 0-.664-.097-.947-.277a1.743 1.743 0 01-.748-1.1 1.736 1.736 0 01.25-1.305c2.914-4.461 6.359-6.935 10.232-7.409 5.595-.67 9.872 3.271 10.046 3.468a1.734 1.734 0 01-2.312 2.531c-.058 0-3.33-3.005-7.295-2.531-2.798.346-5.387 2.312-7.711 5.86a1.746 1.746 0 01-1.515.763zM91.267 372.367a1.71 1.71 0 01-1.502-.878c0-.069-3.561-6.196-8.66-6.936-2.647-.369-5.398.856-8.15 3.607a1.735 1.735 0 01-2.45-2.451c3.572-3.571 7.294-5.12 11.086-4.623 6.81.936 11.018 8.311 11.19 8.623a1.732 1.732 0 01-.658 2.312c-.25.188-.545.308-.856.346z" fill="#51BCC3"/><path d="M91.266 372.367c-.335 0-.664-.097-.948-.277a1.741 1.741 0 01-.747-1.099 1.735 1.735 0 01.25-1.305c2.914-4.462 6.359-6.936 10.232-7.41 5.595-.67 9.872 3.271 10.046 3.468a1.725 1.725 0 01.441 1.877 1.715 1.715 0 01-.36.573 1.743 1.743 0 01-2.451.081c0-.057-3.33-3.017-7.295-2.531-2.798.347-5.387 2.312-7.71 5.86a1.746 1.746 0 01-1.458.763z" fill="#51BCC3"/><path d="M151.382 92.635a1.71 1.71 0 01-1.503-.878c0-.07-3.561-6.196-8.659-6.936-2.648-.37-5.399.856-8.093 3.607a1.734 1.734 0 01-2.451-2.45c3.573-3.573 7.295-5.11 11.087-4.624 6.809.936 11.017 8.31 11.191 8.623a1.734 1.734 0 01-.659 2.311 1.782 1.782 0 01-.913.347z" fill="#A5A7AA"/><path d="M151.384 92.635c-.336 0-.665-.097-.948-.277a1.743 1.743 0 01-.748-1.1 1.736 1.736 0 01.251-1.304c2.913-4.462 6.358-6.936 10.231-7.41 5.607-.659 9.873 3.271 10.046 3.468a1.733 1.733 0 01-2.312 2.531c-.058 0-3.341-3.017-7.295-2.531-2.798.347-5.387 2.312-7.711 5.86a1.746 1.746 0 01-1.514.763z" fill="#A5A7AA"/></svg>