<svg width="152" height="152" viewBox="0 0 152 152" fill="none" xmlns="http://www.w3.org/2000/svg"><g filter="url(#filter0_d)"><circle cx="74" cy="74" r="68" fill="#fff"/></g><g clip-path="url(#clip0)" fill="#245E63"><path d="M79.784 34.953c-.372-.142-.63-.454-.659-.85-.057-.68.516-1.22 1.146-1.134.572.085.973.595.887 1.133-.057.652-.716 1.078-1.374.85zm20.816-2.778a1.633 1.633 0 01-1.088-1.39 1.7 1.7 0 011.89-1.785c.888.113 1.546.935 1.432 1.814-.143 1.049-1.203 1.7-2.234 1.36zm-9.678 1.105a1.632 1.632 0 01-1.088-1.389 1.631 1.631 0 011.861-1.757c.888.113 1.546.935 1.432 1.814-.143 1.02-1.174 1.672-2.205 1.332zm10.938 6.095c-.945-.114-1.632-.992-1.489-1.928a1.717 1.717 0 011.947-1.474c.945.114 1.632.992 1.489 1.928a1.753 1.753 0 01-1.947 1.474zm-22.333-1.049c-.2 1.417-1.518 2.438-2.95 2.24a2.583 2.583 0 01-2.261-2.92 2.615 2.615 0 012.949-2.24 2.62 2.62 0 012.262 2.92zm7.358 11.055c-.516 2.154-2.52 3.685-4.753 3.628-2.92-.056-5.097-2.58-4.725-5.385.344-2.608 2.75-4.48 5.412-4.139 2.806.368 4.753 3.09 4.066 5.896zm3.665-10.658a2.555 2.555 0 01-2.892 2.21 2.551 2.551 0 01-2.234-2.89 2.555 2.555 0 012.892-2.212c1.432.199 2.434 1.503 2.234 2.892zm1.89 30.274a4.572 4.572 0 01-3.98-5.103c.315-2.494 2.634-4.252 5.154-3.94a4.572 4.572 0 013.98 5.103c-.344 2.494-2.634 4.252-5.154 3.94zm20.129-31.351A1.627 1.627 0 01114 39.46c-.143 1.02-1.174 1.672-2.204 1.332a1.633 1.633 0 01-1.089-1.389c-.085-1.049.831-1.87 1.862-1.757z"/><path d="M63.206 42.606c2.635 0 5.183.369 7.617 1.02.458-1.02 1.546-1.7 2.748-1.53 1.432.199 2.463 1.503 2.262 2.92-.085.737-.515 1.417-.63 2.353-.486 3.798 2.234 7.313 6.07 7.795 3.837.482 4.754-1.984 6.07-3.969.688-1.02 1.948-2.239 4.382-1.956 2.748.34 4.667 2.835 4.323 5.528-.372 2.778-1.976 3.458-3.465 3.742-2.605.51-5.755.85-6.327 5.074-.516 3.968 2.29 7.058 6.184 7.568 1.432.199 2.463 1.474 2.262 2.92-.171 1.36-1.403 2.353-2.748 2.268-.544 2.664-1.49 5.187-2.692 7.597-4.867 9.637-18.41 24.944-25.712 34.837a.355.355 0 01-.63 0c-7.33-9.893-20.845-25.2-25.712-34.837-1.947-3.856-3.178-7.966-3.178-12.473C34 55.617 47.371 42.606 63.206 42.606zm-19.155 28.97c.458 9.723 8.418 17.632 18.24 18.057 10.994.51 20.07-8.192 20.07-18.964 0-10.488-8.59-18.992-19.183-18.992-10.852 0-19.614 8.986-19.127 19.9zm51.911-22.648c-1.947-.256-3.322-2.013-3.064-3.94a3.542 3.542 0 013.98-3.034c1.947.255 3.321 2.013 3.064 3.94a3.542 3.542 0 01-3.98 3.034zm6.843 3.089c1.432.199 2.462 1.474 2.262 2.92a2.63 2.63 0 01-3.007 2.24c-1.345-.2-2.347-1.475-2.204-2.835a2.607 2.607 0 012.949-2.325zm5.64-8.022c1.059.142 1.832 1.106 1.689 2.183a1.964 1.964 0 01-2.204 1.672c-1.06-.141-1.833-1.105-1.69-2.182a2.02 2.02 0 012.205-1.673z"/><path d="M63.205 54.654c8.934 0 16.178 7.171 16.178 16.015 0 8.844-7.244 16.016-16.178 16.016-8.933 0-16.177-7.172-16.177-16.016 0-8.844 7.244-16.015 16.177-16.015zm4.438 24.15c1.088 0 2.005-.878 2.005-1.984-.029-1.077-.917-1.984-2.005-1.984-1.088 0-2.004.879-2.004 1.984a2 2 0 002.004 1.985zm-6.871-.028h.028c1.088-.056 1.976-.963 1.919-2.069-.03-1.049-.917-1.9-2.005-1.9-1.117.058-1.975.965-1.947 2.07.086 1.049.945 1.9 2.005 1.9zm-5.383-14.711h1.574c.086 0 .172.085.2.17l1.203 8.078c.144 1.02 1.031 1.786 2.09 1.786h8.018c1.002 0 1.86-.708 2.09-1.672l1.26-6.208c.086-.397-.2-.794-.63-.879-.029 0-.086-.028-.143-.028H58.88l-.2-1.276c-.114-.85-.859-1.474-1.718-1.474h-1.575a.766.766 0 00-.773.766c0 .425.344.737.773.737z"/></g><defs><clipPath id="clip0"><path fill="#fff" transform="matrix(-1 0 0 1 114 29)" d="M0 0h80v90H0z"/></clipPath><filter id="filter0_d" x="0" y="0" width="152" height="152" filterUnits="userSpaceOnUse" color-interpolation-filters="sRGB"><feFlood flood-opacity="0" result="BackgroundImageFix"/><feColorMatrix in="SourceAlpha" values="0 0 0 0 0 0 0 0 0 0 0 0 0 0 0 0 0 0 127 0"/><feOffset dx="2" dy="2"/><feGaussianBlur stdDeviation="4"/><feColorMatrix values="0 0 0 0 0.362198 0 0 0 0 0.4283 0 0 0 0 0.454167 0 0 0 0.1 0"/><feBlend in2="BackgroundImageFix" result="effect1_dropShadow"/><feBlend in="SourceGraphic" in2="effect1_dropShadow" result="shape"/></filter></defs></svg>