<svg width="1920" height="729" viewBox="0 0 1920 729" fill="none" xmlns="http://www.w3.org/2000/svg"><path d="M0 270l386.402-131.5L1297.85 291l441.46-87 162.18-153.5L1922 21v739H0V270z" fill="#245E63"/><path d="M874 648.5c534.8 174 1069.83-194.167 1233-376v789H-55l156-274c10.162 3.695 93.232-278.12 632.5-153.5l45.037 4.648c30.261.604 61.569-1.175 95.463 9.852z" fill="#5DD6C7"/><path d="M-53.023 282.993c123.638-92.916 513.978-240.834 1086.243-89.18C1605.48 345.468 1889.52 98.46 1960-44c-80.48 221.894-443.39 526.795-1076.745 326.993C209.342 70.395-71.318 349.709-144.513 557.537L-149 571c1.398-4.45 2.893-8.94 4.487-13.463l91.49-274.544z" fill="#B5E0E3"/></svg>