<svg width="346" height="176" viewBox="0 0 346 176" fill="none" xmlns="http://www.w3.org/2000/svg"><circle opacity=".4" cx="46" cy="130" r="46" fill="#C9DCE9"/><circle opacity=".4" cx="158" cy="35" r="35" fill="#C9DCE9"/><path d="M45.647 122.827c.508.199 1.006-.288.838-.807-1.156-3.562-5.34-4.891-9.23-1.731-2.047 1.663-2.816 2.016-2.835 2.025 1.349 1.348 2.89 5.874 6.253 6.375 3.705.672 6.984-2.973 4.301-4.641a11.453 11.453 0 00-6.068-1.734 11.48 11.48 0 016.74.513zm16.776-2.538c-6.715-5.454-10.998 3.147-8.336 2.295a11.436 11.436 0 016.031-.27c-3.513 0-6.75 1.609-8.91 4.23.178-4.118.446-6.696.757-8.613 1.794-.062 4.186-1.511 5.5-4.046 2.263-4.052 1.213-8.207.875-10.828-1.769 1.723-9.497-.296-12.56 4.954-1.354 2.319-.96 5.141.463 7.206.45.654 1.528.34 1.559-.453.134-3.452 1.851-6.059 5.054-7.503a15.573 15.573 0 00-2.868 6.1c-.758 3.356-1.55 5.558-1.84 16.255a1.917 1.917 0 001.935 1.969c.785-.01 1.458-.509 1.76-1.234.46-1.103 1.208-2.244 2.424-3.29 1.157 1.278 2.917 1.958 4.738 1.628 3.348-.498 4.911-5.034 6.253-6.375-.02-.009-.789-.362-2.835-2.025zm9.872 13.328c-2.1-1.424-4.384-.409-5.434.197l-13.167 9.637-7.71.002-1.927-1.928h7.08c2.13 0 4.515-1.387 4.515-3.855 0-2.621-2.385-3.856-4.515-3.856h-2.653c-1.971 0-4.275.176-5.899-.694a11.483 11.483 0 00-5.216-1.232c-3.185 0-6.036 1.27-7.99 3.272L19 145.378l11.565 11.565 3.855-5.782h18.216a7.937 7.937 0 005.27-2.003l14.52-12.899c.808-.717.762-2.035-.131-2.642z" fill="#B1C9D9"/><circle opacity=".4" cx="299" cy="94" r="47" fill="#C9DCE9"/><g clip-path="url(#clip0)" fill="#B1C9D9"><path d="M165.049 22.791a9.734 9.734 0 014.82-2.117 7.11 7.11 0 00-.152-.714l-.643-2.4a1.231 1.231 0 00-1.507-.87l-2.399.644a7.024 7.024 0 00-.694.224 9.648 9.648 0 01.575 5.233zm13.591 11.337l-1.757-1.755a7.054 7.054 0 00-.542-.489A9.648 9.648 0 01172.094 35a9.656 9.656 0 014.247 3.115c.187-.153.369-.316.542-.49l1.757-1.757c.48-.48.48-1.26 0-1.74zM143.906 35a9.66 9.66 0 01-4.248-3.117 7.202 7.202 0 00-.542.489l-1.756 1.756a1.23 1.23 0 000 1.74l1.756 1.757c.174.174.355.337.543.49A9.651 9.651 0 01143.906 35zm7.621-17.442a7.11 7.11 0 00-.694-.224l-2.399-.643a1.23 1.23 0 00-1.507.87l-.643 2.4a6.846 6.846 0 00-.152.713 9.732 9.732 0 014.819 2.117 9.658 9.658 0 01.576-5.233zm13.522 29.651a9.648 9.648 0 01-.575 5.233c.226.086.457.161.694.224l2.399.643a1.23 1.23 0 001.507-.87l.643-2.399a7.09 7.09 0 00.152-.714 9.7 9.7 0 01-4.82-2.117zm-14.098 0a9.722 9.722 0 01-4.819 2.117c.038.24.088.478.152.714l.643 2.4a1.23 1.23 0 001.507.869l2.399-.643a7.11 7.11 0 00.694-.224 9.659 9.659 0 01-.576-5.233zm24.716-5.042a7.178 7.178 0 00-5.064-5.062l-4.995-1.339a7.643 7.643 0 01-3.144 5.438l3.659 3.66a7.182 7.182 0 006.918 1.853l2.399-.643a1.23 1.23 0 00.87-1.507l-.643-2.4zM154.86 28.032a7.59 7.59 0 013.14-.675c1.119 0 2.183.241 3.141.676l1.34-5a7.183 7.183 0 00-1.854-6.916l-1.757-1.756a1.226 1.226 0 00-1.74 0l-1.757 1.756a7.181 7.181 0 00-1.853 6.916l1.34 4.999zm7.602.765a7.642 7.642 0 013.145 5.437l4.996-1.339a7.18 7.18 0 005.064-5.062l.643-2.4a1.23 1.23 0 00-.871-1.507l-2.398-.642a7.182 7.182 0 00-6.918 1.853l-3.661 3.66zm-22.128-.964a7.176 7.176 0 005.064 5.062l4.996 1.339a7.642 7.642 0 013.145-5.437l-3.661-3.66a7.181 7.181 0 00-6.917-1.853l-2.4.642a1.229 1.229 0 00-.87 1.507l.643 2.4zm13.202 13.371a7.643 7.643 0 01-3.144-5.438l-4.995 1.339a7.178 7.178 0 00-5.064 5.062l-.643 2.4a1.23 1.23 0 00.87 1.507l2.4.643a7.183 7.183 0 006.917-1.853l3.659-3.66zm7.606.766a7.6 7.6 0 01-3.142.676 7.585 7.585 0 01-3.141-.675l-1.339 4.995a7.18 7.18 0 001.853 6.916l1.757 1.757a1.228 1.228 0 001.74 0l1.757-1.756a7.184 7.184 0 001.854-6.916l-1.339-4.996zM158 29.817a5.19 5.19 0 00-5.185 5.184A5.19 5.19 0 00158 40.185a5.19 5.19 0 005.184-5.184A5.19 5.19 0 00158 29.817z"/></g><g clip-path="url(#clip1)" fill="#B1C9D9"><path d="M293.377 70c-.777 0-1.406.63-1.406 1.406v17.907a.47.47 0 01-.469.468h-3.75V71.406a1.407 1.407 0 00-2.813 0v18.375h-3.75a.469.469 0 01-.468-.468V71.406a1.407 1.407 0 00-2.813 0v17.907a3.285 3.285 0 003.281 3.281h3.75V95.5h-1.406c-.776 0-1.406.63-1.406 1.406v13.636c-.03.132-1.606 2.488.049 5.145 1.918 3.082 6.41 3.088 8.332-.002 1.623-2.609.069-5.049.047-5.143V96.906c0-.776-.63-1.406-1.406-1.406h-1.397v-2.906h3.75a3.285 3.285 0 003.281-3.281V71.406c0-.776-.629-1.406-1.406-1.406zm17.66.246a1.407 1.407 0 00-1.585-.003 20.642 20.642 0 00-9.044 17.086v7.62a3.285 3.285 0 003.281 3.282h5.157v-9.853a1.406 1.406 0 112.812 0v9.853h5.152a3.285 3.285 0 003.281-3.282v-7.611a20.64 20.64 0 00-9.054-17.092z"/><path d="M308.845 101.125h-1.411c-.776 0-1.406.63-1.406 1.406v8.018c-.03.133-1.602 2.487.052 5.14 1.922 3.085 6.411 3.079 8.329-.004 1.619-2.603.068-5.048.047-5.138v-8.016c0-.776-.629-1.406-1.406-1.406h-1.392v-2.894h-2.813v2.894z"/></g><defs><clipPath id="clip0"><path fill="#fff" transform="translate(137 14)" d="M0 0h42v42H0z"/></clipPath><clipPath id="clip1"><path fill="#fff" transform="translate(275 70)" d="M0 0h48v48H0z"/></clipPath></defs></svg>