<svg width="159" height="103" viewBox="0 0 159 103" fill="none" xmlns="http://www.w3.org/2000/svg"><path d="M117.595 103c-8.661 0-15.914-5.98-17.956-14H58.446c-2.042 8.02-9.366 14-17.957 14-8.66 0-15.984-5.98-18.026-14H7.393c-1.9 0-3.66-.704-5.07-1.9C.846 85.833 0 83.934 0 81.964V0h116.187v17.167c6.197.14 12.886.351 16.055.844 6.056.915 12.816 4.714 18.66 10.553 5.211 5.206 8.168 12.242 8.168 19.63v29.549c0 3.025-1.197 5.91-3.309 8.02-2.113 2.11-5 3.307-8.028 3.307h-12.111c-2.113 8.02-9.436 13.93-18.027 13.93z" fill="#fff"/><path d="M40.419 68.104c5.845 0 10.915 3.025 13.872 7.668h49.432c1.831-2.955 4.648-5.276 7.887-6.543V4.573H4.577v71.2h22.04a16.217 16.217 0 0113.802-7.67zM4.577 81.964c0 .633.282 1.266.845 1.829a3.07 3.07 0 002.042.774h16.618c0-2.252.423-4.362 1.268-6.262H4.577v3.659zm52.179 2.532h44.362c0-2.25.422-4.361 1.267-6.261H55.559c.774 1.9 1.197 4.01 1.197 6.261zM147.592 31.8c-4.506-4.502-10.421-8.442-16.125-9.287-5.633-.844-16.689-.914-16.689-.914v46.716a17.36 17.36 0 012.747-.211c9.013 0 16.407 7.317 16.407 16.392h13.731c1.76 0 3.45-.633 4.788-1.97 1.338-1.336 1.972-3.025 1.972-4.784V48.193c0-5.98-2.254-11.89-6.831-16.393zm2.042 21.951c0 .704-.281 1.407-.915 1.9-.563.492-1.338.633-1.972.492l-24.223-4.854a1.997 1.997 0 01-1.408-.845 2.458 2.458 0 01-.564-1.547V28.212s8.098 0 12.253.634c4.154.633 8.52 3.447 11.83 6.824a16.993 16.993 0 014.999 12.03v6.051z" fill="#245E63"/><path d="M52.038 76.687c-.211-.281-.423-.633-.704-.915-2.535-3.236-6.479-5.276-10.915-5.276-4.436 0-8.38 2.04-10.914 5.276-.212.282-.423.634-.705.915a11.2 11.2 0 00-.915 1.548c-.986 1.9-1.479 4.01-1.479 6.261 0 7.74 6.267 14.001 14.013 14.001 7.746 0 14.013-6.261 14.013-14 0-2.252-.563-4.362-1.479-6.262a11.2 11.2 0 00-.915-1.548zM40.419 91.743a7.24 7.24 0 01-7.253-7.246c0-2.674 1.479-4.996 3.662-6.262a7.06 7.06 0 013.591-.985c1.338 0 2.535.352 3.591.985 2.183 1.266 3.662 3.588 3.662 6.261a7.24 7.24 0 01-7.253 7.247zm77.106-21.247c-.916 0-1.831.07-2.747.281-1.126.211-2.253.563-3.239 1.056-2.324 1.055-4.225 2.743-5.633 4.854-1.479 2.252-2.394 4.925-2.394 7.81 0 7.739 6.267 14 14.013 14 7.745 0 14.012-6.261 14.012-14 0-7.74-6.267-14.001-14.012-14.001zm0 21.247a7.24 7.24 0 01-7.253-7.246c0-1.548.493-2.955 1.267-4.151.775-1.126 1.901-2.04 3.239-2.604a7.097 7.097 0 012.747-.562 7.24 7.24 0 017.252 7.246c0 4.08-3.239 7.317-7.252 7.317z" fill="#245E63"/><path d="M111.61 10.694H4.577v1.83H111.61v-1.83zM22.181 23.499v.492c0 1.478-.493 2.462-1.479 2.955 1.268.492 1.69 1.618 1.69 3.166v1.196c0 2.251-1.197 3.518-3.52 3.518H15.21V20.122h3.52c2.465 0 3.451 1.125 3.451 3.377zm-4.577-1.267v3.87h.916c.845 0 1.408-.352 1.408-1.548v-.844c0-1.056-.352-1.548-1.197-1.548h-1.127v.07zm0 5.98v4.503h1.338c.775 0 1.197-.352 1.197-1.477V29.97c0-1.336-.422-1.759-1.479-1.759h-1.056zm8.521-1.899h3.168v2.11h-3.168v4.292h4.013v2.11h-6.337V20.123h6.337v2.11h-4.014v4.08zm9.929-2.533c0-1.337-.493-1.688-1.198-1.688-.704 0-1.197.422-1.197 1.477v1.196h-2.112V23.64c0-2.321 1.127-3.658 3.38-3.658s3.45 1.337 3.45 3.729v.352c0 1.547-.493 2.532-1.62 3.025 1.127.492 1.62 1.618 1.62 3.096v1.125c0 2.322-1.197 3.729-3.45 3.729s-3.45-1.337-3.45-3.729V29.69h2.183v1.759c0 1.055.492 1.477 1.197 1.477.704 0 1.197-.352 1.197-1.688v-1.126c0-1.337-.493-1.9-1.55-1.9h-.563v-2.11h.704c.845 0 1.409-.352 1.409-1.548v-.774zm6.126 2.533h3.168v2.11h-3.169v4.292h4.014v2.11h-6.337V20.123h6.337v2.11h-4.014v4.08zm.28-9.006v2.04h-2.04v-2.04h2.042zm3.17 0v2.04h-2.043v-2.04h2.043zm6.9 13.298l1.55-10.413h3.239v14.704h-2.183V24.343l-1.62 10.553h-2.182l-1.69-10.412v10.412h-2.042V20.122h3.239l1.69 10.483zM15.28 60.083V45.38h6.479v2.11h-4.155v3.73h1.338c2.324 0 3.52 1.266 3.52 3.658v1.548c0 2.322-1.196 3.658-3.52 3.658H15.28zm3.662-2.11c.704 0 1.197-.352 1.197-1.407v-1.9c0-1.055-.422-1.407-1.197-1.407h-1.338v4.643h1.338v.07zm7.393-6.403h3.17v2.111h-3.17v4.292h4.014v2.11h-6.337V45.38h6.337v2.11h-4.014v4.081zm12.113 3.026v1.97c0 2.321-1.197 3.728-3.45 3.728-2.254 0-3.451-1.336-3.451-3.728v-7.67c0-2.32 1.197-3.728 3.45-3.728 2.254 0 3.45 1.337 3.45 3.729v1.407h-2.182v-1.548c0-1.055-.493-1.477-1.197-1.477-.704 0-1.197.422-1.197 1.477v7.95c0 1.055.492 1.407 1.197 1.407.704 0 1.197-.352 1.197-1.407v-2.11h2.183zm3.732 5.487h-2.325V45.38h7.324v14.704h-2.324V47.42H42.25v12.663h-.07zm6.056-2.11c1.056 0 1.408-.141 1.408-1.548l.352-11.046h6.549v14.704H54.22V47.42h-2.042l-.282 8.864c-.07 2.674-1.056 3.729-3.38 3.729h-.352v-2.04h.07zm17.533 2.11h-2.324l-.423-2.673h-2.816l-.352 2.673H57.74l2.324-14.704h3.38l2.324 14.704zm-5.211-4.713h2.253l-1.127-7.458-1.126 7.458zm5.633-9.99h7.183v2.11H70.98v12.593h-2.324V47.42h-2.465v-2.04zm10.492 14.703H74.36V45.38h2.324v6.332h2.605V45.38h2.324v14.704H79.29v-6.332h-2.606v6.332zm6.479-11.186c0-2.322 1.268-3.729 3.52-3.729 2.254 0 3.522 1.337 3.522 3.729v7.669c0 2.321-1.268 3.728-3.521 3.728s-3.52-1.336-3.52-3.728v-7.67zm2.324 7.81c0 1.054.493 1.477 1.197 1.477.704 0 1.197-.422 1.197-1.478v-7.95c0-1.055-.493-1.477-1.197-1.477-.704 0-1.197.422-1.197 1.477v7.95z" fill="#fff"/></svg>