<svg width="47" height="47" viewBox="0 0 47 47" fill="none" xmlns="http://www.w3.org/2000/svg"><path d="M45.623 44.246h-5.967v-4.093c.733.54 1.677 1.005 2.754 1.005 2.417 0 4.165-2.342 4.356-2.609a1.252 1.252 0 000-1.458c-.191-.267-1.939-2.609-4.356-2.609-1.077 0-2.021.466-2.754 1.005V32.46c.78-.724 1.961-2.102 1.961-3.818 0-2.417-2.342-4.165-2.609-4.356a1.252 1.252 0 00-1.458 0c-.267.191-2.609 1.939-2.609 4.356 0 1.716 1.181 3.094 1.961 3.818v3.028c-.732-.54-1.676-1.005-2.754-1.005-2.416 0-4.164 2.342-4.355 2.61a1.252 1.252 0 000 1.457c.191.267 1.939 2.61 4.355 2.61 1.078 0 2.022-.466 2.754-1.006v4.093H19.92v-4.093c.733.54 1.676 1.005 2.754 1.005 2.417 0 4.164-2.342 4.355-2.609a1.252 1.252 0 000-1.458c-.19-.267-1.938-2.609-4.355-2.609-1.078 0-2.021.466-2.754 1.005V32.46c.78-.724 1.961-2.102 1.961-3.818 0-2.417-2.342-4.165-2.609-4.356a1.252 1.252 0 00-1.458 0c-.267.191-2.609 1.939-2.609 4.356 0 1.716 1.18 3.094 1.961 3.818v3.028c-.733-.54-1.677-1.005-2.754-1.005-2.417 0-4.164 2.342-4.356 2.61a1.252 1.252 0 000 1.457c.192.267 1.94 2.61 4.356 2.61 1.078 0 2.021-.466 2.754-1.006v4.093H1.376A1.377 1.377 0 001.378 47h44.246a1.377 1.377 0 100-2.754zM6.426 27.54h-5.05a1.377 1.377 0 00.001 2.754h5.049a6.433 6.433 0 006.426-6.426 6.433 6.433 0 00-6.426-6.426 3.676 3.676 0 01-3.672-3.672 3.676 3.676 0 013.672-3.67h1.836v.458a1.377 1.377 0 002.754 0v-.459h1.377a1.377 1.377 0 000-2.753h-1.377v-.46a1.377 1.377 0 00-2.754 0v.46H6.426A6.433 6.433 0 000 13.77a6.433 6.433 0 006.426 6.426 3.676 3.676 0 013.672 3.672 3.676 3.676 0 01-3.672 3.672zm18.818-17.442a1.377 1.377 0 100-2.753 1.377 1.377 0 000 2.753zm5.508 0a1.377 1.377 0 100-2.753 1.377 1.377 0 000 2.753zm-4.59-7.344a1.377 1.377 0 100-2.754 1.377 1.377 0 000 2.754zm0 14.687a1.377 1.377 0 100-2.754 1.377 1.377 0 000 2.754zm-4.59-3.671a1.377 1.377 0 100-2.754 1.377 1.377 0 000 2.754zm-4.59-3.672a1.377 1.377 0 100-2.753 1.377 1.377 0 000 2.753zm4.59-3.671a1.377 1.377 0 100-2.754 1.377 1.377 0 000 2.754z" fill="#fff"/></svg>