<svg width="41" height="47" viewBox="0 0 41 47" fill="none" xmlns="http://www.w3.org/2000/svg"><path d="M41 26.253c0-6.422-3.97-12.385-10.358-15.561-2.69-1.34-4.625-3.77-5.303-6.507l-.117-.47a4.89 4.89 0 00-.582-1.343l.001.374a21.616 21.616 0 004.892 12.45l2.24 2.708a16.34 16.34 0 012.035 17.66c-2.002 4.036-5.422 6.973-9.379 8.057-1.29.353-2.61.532-3.929.532s-2.64-.178-3.93-.532c-3.956-1.084-7.376-4.02-9.378-8.057a16.34 16.34 0 012.034-17.66l2.241-2.709c2.927-3.54 4.62-7.93 4.894-12.526l.003-.306a4.9 4.9 0 00-.587 1.352l-.115.47c-.68 2.737-2.613 5.168-5.302 6.507C3.97 13.868 0 19.832 0 26.253c0 8.055 6.126 14.88 14.523 17.12-.498.362-.977.846-1.405 1.297a1.385 1.385 0 00.043 1.947c.55.529 1.412.506 1.933-.043a6.736 6.736 0 011.317-1.056c-.001.035-.01.069-.01.104 0 .761.61 1.377 1.366 1.377.755 0 1.367-.616 1.367-1.377 0-.533.31-1.074.75-1.303a8.02 8.02 0 011.232 0c.44.229.751.77.751 1.303 0 .761.611 1.377 1.367 1.377a1.37 1.37 0 001.366-1.377c0-.035-.01-.069-.01-.104.474.299.923.64 1.317 1.056a1.358 1.358 0 001.933.043 1.385 1.385 0 00.042-1.947c-.428-.451-.907-.935-1.405-1.297C34.874 41.133 41 34.308 41 26.253z" fill="#fff"/><path d="M23.39 18.036a39.95 39.95 0 01-1.524-10.933V1.387c0-.695-.513-1.282-1.197-1.367L20.5 0l-.17.02a1.37 1.37 0 00-1.196 1.365v5.718c0 3.699-.512 7.377-1.524 10.933a36.205 36.205 0 00.56 21.688 2.468 2.468 0 002.33 1.675 2.468 2.468 0 002.331-1.675 36.204 36.204 0 00.56-21.688zm6.282 1.632l-2.24-2.71a24.541 24.541 0 01-2.228-3.174c.215 1.175.485 2.341.812 3.494a38.94 38.94 0 01-.49 23.004c2.432-1.171 4.502-3.262 5.836-5.95a13.564 13.564 0 00-1.69-14.664zm-14.69-2.39c.327-1.152.598-2.32.813-3.495a24.345 24.345 0 01-2.228 3.175l-2.24 2.71a13.565 13.565 0 00-1.69 14.664c1.333 2.688 3.403 4.779 5.835 5.95a38.954 38.954 0 01-.49-23.004z" fill="#fff"/></svg>