<svg width="47" height="47" viewBox="0 0 47 47" fill="none" xmlns="http://www.w3.org/2000/svg"><g clip-path="url(#clip0)" fill="#fff"><path d="M36.306 7.356c.678 2.52 2.71 7.643 1.059 15.118-1.609 7.476-12.064 10.71-14.646 11.76-2.54 1.049 7.111 7.096 9.65 4.115 2.583-2.982 1.736-4.872 5.885-6.846 4.148-1.973 6.984-5.039 6.73-7.769-.254-2.688-2.074-2.898-2.37-3.821-.297-.924 1.65-.378.592-7.434-1.016-7.097-6.392-6.593-6.9-5.123z"/><path d="M33.259 10.715c4.02 6.72 2.412 11.843 1.185 13.9-1.27 2.184-8 8.61-12.784 5.712-6.01-3.57-4.783-4.872-8.508-5.166 0-.546 0-4.703 6.096-4.41 5.926.295 13.503 1.387 13.63-9.91-.043-.294.211-.378.38-.126zm.889-2.183C33.98 6.096 33.471.259 25.344.007 19.672-.203 15.439 4.5 14 7.566c-1.397 3.108.042 9.827 1.777 9.869 1.016 0 .847-1.722.974-3.864.127-2.015.339-4.031 1.1-5.711 1.567-3.57 4.488-4.074 8.466-4.074 4.022 0 6.096 3.696 7.366 5.166.296.336.508.21.465-.42z"/><path d="M13.027 16.259C9.894 5.676 15.905 4.122 15.44 3.366c-.508-.798-4.022-1.344-5.63-.042-1.61 1.302-2.455 2.814-2.37 6.51.042 2.813 3.301 5.543 4.994 6.845.508.378.72-.042.593-.42zm9.269 16.631c-.084-.799-3.81-2.52-5.672-4.41-1.82-1.848-5.714-2.856-5.714-2.856s1.354-3.906.55-6.047c-.804-2.142-3.048-5.208-3.725-5.376-.677-.168-4.614 1.176-3.555 4.284 1.058 3.107-1.397 5.501.93 9.995 2.329 4.451 17.271 5.207 17.186 4.41zm-3.468-13.944c.72.42 4.571.756 5.29.084.72-.672 3.556-5.081 3.81-6.93.297-1.847.254-2.225-.846-3.359-1.1-1.176-3.895-.63-4.784.798-.888 1.428-.211 2.142.212 2.268.423.126-.042-.966.508-1.596.55-.672 2.201-1.302 2.794-.336.592.966.423 3.99-2.286 4.032-3.09.042-2.836-3.318-2.159-4.62s4.148-3.78 7.196-.966c2.498 2.31-.338 7.308-.931 7.853-.55.588-1.609 3.15.38 2.268 2.033-.924 3.81-3.107 3.557-7.265-.297-4.2-4.106-6.551-8.255-5.291-4.148 1.301-4.486 3.863-5.206 6.803-.677 2.897.042 5.837.72 6.257zm-1.95 16.464l2.92-.63s.466-.168.297.63c-.17.84-2.413 11.59-2.413 11.59l-2.54-.462s1.059-9.532 1.143-10.33c0-.798.593-.798.593-.798z"/><path d="M23.228 11.387c-.254.336.169 1.344 1.27 1.05 1.1-.294 1.185-1.302.93-1.848-.253-.546-.888-.294-.803.378.084 1.176-1.016-.042-1.397.42z"/></g><defs><clipPath id="clip0"><path fill="#fff" d="M0 0h47v47H0z"/></clipPath></defs></svg>