<svg width="47" height="47" viewBox="0 0 47 47" fill="none" xmlns="http://www.w3.org/2000/svg"><path d="M37.613 26.41H24.365c.374-1.194.514-2.372.42-3.775 6.531-.835 11.908-11.563 8.589-13.279C28.635 6.924 22.9 14.727 22.9 14.727a6.485 6.485 0 00-.171-.507c-.889-2.76-.5-5.565 1.168-8.34 1.294-2.164 2.915-3.491 2.93-3.506.593-.478.67-1.328.172-1.895a1.45 1.45 0 00-1.98-.164c-.17.134-2.477 2.044-4.067 5.117-1.17-1.507-5.642-6.759-9.523-4.834-3.21 1.582 1.917 12.1 8.198 12.697.094.567.234 1.134.436 1.73 2.182 6.655 2.354 8.878 1.34 11.385h-12c-.78 0-1.403.597-1.403 1.343s.623 1.343 1.403 1.343h28.194c.78 0 1.403-.597 1.403-1.343s-.608-1.343-1.387-1.343zm-3.429 4.924H12.988a.808.808 0 00-.795.94l1.402 8.982c0 3.163 2.525 5.744 5.658 5.744h8.634c3.118 0 5.658-2.566 5.658-5.744l1.403-8.982a.787.787 0 00-.764-.94z" fill="#fff"/></svg>