<svg width="47" height="47" viewBox="0 0 47 47" fill="none" xmlns="http://www.w3.org/2000/svg"><path d="M46.558 17.059a1.537 1.537 0 00-1.098-.44c-.486 0-.971.206-1.332.567l-5.905 5.905c-.052.052-.13.114-.207.114a.163.163 0 01-.093-.03l-.656-.656c-.088-.088-.159-.225 0-.384l7.375-7.375c.705-.705.762-1.795.127-2.43a1.537 1.537 0 00-1.098-.441c-.486 0-.97.207-1.332.568l-7.375 7.375c-.13.13-.204.153-.227.157l-.85-.85c-.022-.046-.003-.14.121-.263l8.699-8.699c.704-.704.761-1.795.126-2.43a1.537 1.537 0 00-1.098-.44c-.485 0-.97.207-1.331.567l-8.699 8.699c-.081.081-.159.126-.218.126a.107.107 0 01-.054-.015l-.753-.752c-.026-.059-.059-.187.07-.315l7.669-7.67c.704-.704.761-1.794.126-2.43a1.537 1.537 0 00-1.098-.44c-.486 0-.97.207-1.332.568L27.73 14.03l.178-2.381c.048-.638-.096-1.228-.404-1.66l-.007-.01c-.356-.543-.965-.847-1.714-.855h-.013c-.652 0-1.619.525-1.738 1.51l-.082.695c-.372 3.163-.995 8.457-2.528 10.632-1.147 1.63-6.087 5.097-6.137 5.132l-.016.012a.459.459 0 00-.032.672L26.333 38.94a.46.46 0 00.324.134h.019a.456.456 0 00.33-.163l.014-.017c.033-.048 3.35-4.785 4.726-6.19.617-.629 1.35-1.012 2.125-1.417.783-.409 1.593-.832 2.295-1.533L46.43 19.489c.705-.705.762-1.795.127-2.43z" fill="#fff"/><path d="M21.999 36.255l-7.753-7.8a1.42 1.42 0 01-.411-1.056c.019-.401.205-.777.51-1.03l.078-.06c1.347-.942 5.032-3.66 5.904-4.898.934-1.326 1.385-3.306 1.774-5.87.102-.419.088-.692-.043-.859a.38.38 0 00-.444-.12c-.167.067-.279.142-.326.173l-.01.007c-.452.28-.813.767-1.016 1.374l-.758 2.264L15.018 7.4c-.285-.698-.94-1.167-1.63-1.167a1.46 1.46 0 00-.56.11c-.408.166-.716.5-.87.94-.15.43-.135.91.045 1.35l4.103 10.04c.069.169-.013.275-.058.316l-.985.403a.095.095 0 01-.014.001c-.095 0-.163-.13-.194-.209L10.201 7.797C9.916 7.1 9.26 6.63 8.57 6.63a1.47 1.47 0 00-.56.11c-.407.166-.715.5-.87.94-.15.43-.133.91.046 1.35l4.653 11.387c.067.162.049.255.01.289l-1.11.454-.002.001c-.025-.015-.084-.076-.149-.233l-3.945-9.655c-.285-.698-.94-1.168-1.631-1.168-.194 0-.383.037-.56.11-.832.34-1.201 1.367-.824 2.29l3.945 9.655c.085.208-.034.307-.151.355l-.856.35a.167.167 0 01-.037.004c-.032 0-.127-.001-.207-.197L3.163 14.94c-.285-.698-.94-1.167-1.631-1.167-.194 0-.383.037-.56.11-.832.339-1.201 1.366-.824 2.289l5.492 13.44c.375.918.958 1.622 1.522 2.302.558.674 1.085 1.31 1.41 2.13.725 1.826 1.95 7.478 1.963 7.535l.005.021a.456.456 0 00.61.287c.082-.034 8.08-3.388 10.758-4.433.334-.13.43-.332.453-.478.054-.35-.27-.646-.362-.722z" fill="#fff"/></svg>