<svg width="47" height="47" viewBox="0 0 47 47" fill="none" xmlns="http://www.w3.org/2000/svg"><path d="M35.08 18.84A6.927 6.927 0 0042 11.92a6.927 6.927 0 00-6.92-6.919 6.927 6.927 0 00-6.92 6.92 6.927 6.927 0 006.92 6.92zm-2.95-8.175l1.825 1.825 3.863-3.863 1.45 1.45-5.313 5.313-3.276-3.275 1.45-1.45z" fill="#fff"/><path d="M15.086 30.586h22.11l1.026-10.264a8.924 8.924 0 01-3.141.568 8.975 8.975 0 01-8.694-11.183H14.131L13.661 5H7v2.05h4.804l2.168 21.675a3.384 3.384 0 00-2.265 3.19 3.383 3.383 0 003.379 3.378h1.586A3.383 3.383 0 0019.78 40a3.383 3.383 0 003.107-4.707h5.582A3.383 3.383 0 0031.575 40a3.383 3.383 0 003.106-4.707h2.514v-2.05H15.086a1.33 1.33 0 01-1.328-1.329 1.33 1.33 0 011.328-1.328zm14.286-6.758h2.051v2.05h-2.05v-2.05zm-4.72 0h2.05v2.05h-2.05v-2.05zm-4.722 0h2.051v2.05h-2.05v-2.05z" fill="#fff"/></svg>