<svg width="47" height="47" viewBox="0 0 47 47" fill="none" xmlns="http://www.w3.org/2000/svg"><g clip-path="url(#clip0)"><path d="M45.393 45.483c0 .838-.679 1.517-1.517 1.517H3.124a1.516 1.516 0 110-3.033h2.915c.886-5.05 4.231-8.251 8.522-9.023 2.186-6.367 11.074-6.784 13.874-.66 2.302-.191 4.386 1.296 5.016 3.397 4.324-.539 7.798 2.417 8.444 6.286h1.981c.838 0 1.517.678 1.517 1.516zm-21.355-7.166c0-.838-.68-1.517-1.517-1.517a4.496 4.496 0 00-4.428 3.696 1.516 1.516 0 002.984.54 1.465 1.465 0 011.444-1.203c.838 0 1.517-.679 1.517-1.516zM40.706 4.979l-.937 2.274a5.301 5.301 0 01-5.434 3.253c-.132.318-4.634 11.232-6.607 16.018a1.515 1.515 0 102.803 1.156l.94-2.279a.935.935 0 011.222-.508l1.259.52a1.517 1.517 0 01.823 1.98c-1.362 3.305-1.899 4.613-2.155 5.222a.943.943 0 01-1.016.56 6.068 6.068 0 00-.87-.068.925.925 0 01-.807-.495c-2.29-4.313-7.36-6.09-11.72-4.494-.744.272-1.464-.449-1.198-1.195.38-1.067 1.049-2.615 2.391-5.871a1.517 1.517 0 011.98-.824l4.84 1.996L31.53 9.35a5.303 5.303 0 01-1.56-6.14l.938-2.272a1.517 1.517 0 011.98-.823l6.995 2.884a1.518 1.518 0 01.823 1.98zm-3.381.246l-4.191-1.73-.36.873c-.77 1.868 1.112 3.727 2.966 2.957 1.005-.42 1.21-1.19 1.585-2.1z" fill="#fff"/></g><defs><clipPath id="clip0"><path fill="#fff" d="M0 0h47v47H0z"/></clipPath></defs></svg>