<svg width="45" height="47" viewBox="0 0 45 47" fill="none" xmlns="http://www.w3.org/2000/svg"><path d="M22.5 1.62a.807.807 0 00.803-.81c0-.447-.36-.81-.803-.81a.807.807 0 00-.804.81c0 .448.36.81.804.81zm-6.428 4.052a.807.807 0 00.803-.81c0-.448-.36-.81-.803-.81a.807.807 0 00-.804.81c0 .448.36.81.804.81zM4.018 12.155a.807.807 0 00.804-.81c0-.448-.36-.81-.804-.81a.807.807 0 00-.803.81c0 .447.36.81.803.81zm24.91-6.483a.807.807 0 00.803-.81c0-.448-.36-.81-.803-.81a.807.807 0 00-.804.81c0 .448.36.81.804.81zm12.055 6.483a.807.807 0 00.803-.81c0-.448-.36-.81-.803-.81a.807.807 0 00-.804.81c0 .447.36.81.803.81zm1.558 7.99c-.217 3.104-1.213 8.606-5.295 11.613a12.95 12.95 0 01-7.57 2.69c7.08-2.618 10.037-8.995 11.25-13.46a3.79 3.79 0 001.615-.843zm-2.676-1.507c-1.607 8.914-7.152 15.016-16.513 15.356.217-2.301 1.366-8.727 7.417-10.535a24.264 24.264 0 009.096-4.821zm-3.664-5.672c.54 2.08.56 4.263.056 6.353a23.661 23.661 0 01-3.359 1.685 12.657 12.657 0 00-2.483-6.037 14.807 14.807 0 015.786-2.001zm-4.412-3.242c.43.745.767 1.54 1.005 2.366-1.2.366-2.338.912-3.375 1.621a27.147 27.147 0 00-1.278-1.402 7.956 7.956 0 013.648-2.585zm-9.289 0c.892.584 8.574 5.81 8.84 11.855-.338.114-.668.227-1.03.333-4.708 1.426-6.846 5.194-7.81 8.298-.964-3.104-3.102-6.872-7.803-8.33-.361-.106-.69-.22-1.028-.333.257-6.013 7.939-11.24 8.831-11.823zm-9.305 0a7.681 7.681 0 013.68 2.569c-.426.438-.86.9-1.27 1.394a12.673 12.673 0 00-3.383-1.62 11.25 11.25 0 01.973-2.343zM8.79 12.966c2.044.272 4.014.953 5.794 2.001a12.633 12.633 0 00-2.483 6.03 22.93 22.93 0 01-3.367-1.695 13.35 13.35 0 01.056-6.336zM14.23 23.5c6.124 1.848 7.232 8.241 7.425 10.535-9.337-.349-14.898-6.483-16.521-15.397A23.625 23.625 0 0014.23 23.5zM4.066 20.988c1.213 4.457 4.163 10.81 11.202 13.444a12.958 12.958 0 01-7.481-2.675c-4.083-2.998-5.087-8.5-5.32-11.604a3.71 3.71 0 001.6.835zm3.97 14.667c-3.158 0-6.533-2.115-8.036-3.363a26.374 26.374 0 014.388-1.62 13.774 13.774 0 005.142 4.051c-.28.268-.602.592-.94.965l-.554-.033zm-.804 6.483c.378-3.541 3.07-6.029 3.978-6.774 1.278.434 2.613.672 3.961.705a9.055 9.055 0 00-.65 4.335 19.95 19.95 0 01-7.289 1.734zM22.5 47c-2.41-1.32-6.429-4.335-6.429-7.293a8.053 8.053 0 01.916-3.72 11 11 0 002.411-.534c2.057.271 4.14.271 6.196 0 .78.274 1.589.456 2.41.543a8.051 8.051 0 01.925 3.71c0 2.959-4.018 5.973-6.429 7.294zm7.971-6.604a9.104 9.104 0 00-.65-4.336c1.366-.03 2.72-.264 4.017-.697a10.626 10.626 0 013.93 6.775 20.184 20.184 0 01-7.288-1.742h-.009zm6.493-4.74h-.554a14.99 14.99 0 00-.932-.957 13.677 13.677 0 005.207-4.052A20.71 20.71 0 0145 32.268c-.41.348-4.138 3.387-8.036 3.387z" fill="#fff"/></svg>