<svg width="259" height="20" viewBox="0 0 259 20" fill="none" xmlns="http://www.w3.org/2000/svg"><path d="M139.481 10.123c0 5.433-4.436 10.124-10.104 10.124-5.421 0-10.103-4.444-10.103-10.123C119.274 4.69 123.709 0 129.377 0s10.104 4.444 10.104 10.123zm84.032.001c0-2.222 1.725-4.197 4.189-4.197 2.218 0 4.189 1.728 4.189 4.197 0 2.222-1.725 4.198-4.189 4.198-2.464-.247-4.189-1.976-4.189-4.198zm-53.475 0c0-2.222 1.725-4.197 4.189-4.197 2.218 0 4.19 1.728 4.19 4.197 0 2.222-1.725 4.198-4.19 4.198-2.464-.247-4.189-1.976-4.189-4.198z" fill="#96D1D6"/><path d="M258.262 10.865H143.178c-.493 0-.739-.247-.739-.74 0-.494.246-.741.739-.741h115.084c.493 0 .739.247.739.74 0 .247-.246.741-.739.741zm-222.53-.741c0 2.222-1.725 4.198-4.19 4.198-2.217 0-4.189-1.729-4.189-4.198 0-2.222 1.725-4.197 4.19-4.197 2.218 0 4.189 1.728 4.189 4.197zm53.475 0c0 2.222-1.725 4.198-4.19 4.198-2.218 0-4.19-1.729-4.19-4.198 0-2.222 1.726-4.197 4.19-4.197 2.218 0 4.19 1.728 4.19 4.197z" fill="#96D1D6"/><path d="M115.823 10.865H.739c-.493 0-.739-.494-.739-.74 0-.494.246-.741.74-.741h115.083c.493 0 .739.247.739.74 0 .247-.246.741-.739.741z" fill="#96D1D6"/></svg>