<svg width="1920" height="2181" viewBox="0 0 1920 2181" fill="none" xmlns="http://www.w3.org/2000/svg"><path opacity=".7" d="M1338.2 1863.59c70.38 343.67 713.86 340.93 1026.8 296.6v-927.78L1023.37 1177c-208.168 29.91-583.357 153.78-418.74 410.06 205.771 320.34 645.61-153.05 733.57 276.53z" fill="#F6F9FF"/><path d="M1031.5 1349c-383.6 146.8-904.833 51.83-1117.5-14v-319h2051l67 420c-173.67-90.17-616.9-233.8-1000.5-87zm229.46-949.306c319.6-195.979 573.86-124.636 661.04-64.467V967H-2V0c287.817 214.889 943.351 595.673 1262.96 399.694z" fill="#B5E0E3"/><path fill-rule="evenodd" clip-rule="evenodd" d="M-2 118.859C320.807 416.47 812.427 497.923 1107.5 450.5l.03-.205C763.633 491.49 245.195 184.56-2 0v118.859z" fill="#A2D9DD"/><path d="M0 909h1920v404l-355-90L0 1313V909z" fill="#B5E0E3"/></svg>