<svg width="45" height="45" viewBox="0 0 45 45" fill="none" xmlns="http://www.w3.org/2000/svg"><path d="M22.5 0C10.074 0 0 10.074 0 22.5 0 34.925 10.074 45 22.5 45S45 34.925 45 22.5C45 10.074 34.926 0 22.5 0zm12.325 33.396h-.001c0 1.22-.99 2.21-2.211 2.21h-1.367v-9.563h-6.458v9.563H12.162a2.21 2.21 0 01-2.21-2.21V21.924a4.307 4.307 0 002.813-1.351 4.307 4.307 0 003.152 1.369 4.307 4.307 0 003.152-1.37 4.308 4.308 0 003.152 1.37 4.308 4.308 0 003.152-1.37 4.307 4.307 0 003.153 1.37 4.308 4.308 0 003.152-1.37 4.309 4.309 0 003.147 1.37v11.453zm.004-13.787a1.987 1.987 0 01-1.985-1.985 1.167 1.167 0 10-2.335 0c0 1.094-.89 1.985-1.985 1.985a1.987 1.987 0 01-1.984-1.985 1.167 1.167 0 10-2.335 0c0 1.094-.89 1.985-1.985 1.985a1.988 1.988 0 01-1.985-1.985 1.167 1.167 0 10-2.334 0c0 1.094-.89 1.985-1.985 1.985a1.987 1.987 0 01-1.985-1.985 1.167 1.167 0 10-2.334 0c0 1.094-.89 1.985-1.985 1.985-.978 0-1.792-.71-1.955-1.641l6.025-8.166H31.16l5.638 8.065a1.986 1.986 0 01-1.97 1.742z" fill="#51BCC3"/><path d="M20.498 26.123h-7.142v4.99h7.142v-4.99z" fill="#51BCC3"/></svg>