<svg width="30" height="30" viewBox="0 0 30 30" fill="none" xmlns="http://www.w3.org/2000/svg"><path d="M17.196 15.86a1.948 1.948 0 000 2.752l1.376 1.376 1.375-1.376c.761-.76.76-1.991 0-2.75a1.947 1.947 0 00-2.75-.001z" fill="#fff"/><path d="M24.622 8.469H12.523a.879.879 0 00-.878.879V29.12c0 .486.393.879.878.879h12.099a.879.879 0 00.878-.879V9.348a.879.879 0 00-.878-.88zm-2.604 14.964a.879.879 0 11-1.243 1.243l-2.203-2.202-2.203 2.202a.879.879 0 01-1.243-1.243l2.203-2.203-1.376-1.375a3.707 3.707 0 010-5.237 3.707 3.707 0 015.237 0 3.7 3.7 0 010 5.237l-1.375 1.375 2.203 2.203zM17.628 6.71V.883c0 .685-.267 1.356-.773 1.861l-3.968 3.968h4.741z" fill="#fff"/><path d="M14.99 0H5.379A.879.879 0 004.5.879v19.773c0 .486.393.88.878.88h4.509V8.681c0-.932.37-1.827 1.03-2.486L15.611 1.5c.554-.553.162-1.5-.621-1.5zm-.385 28.026l-1.579-15.79 9.474-.789.79 11.448-.79 5.131h-7.895z" fill="#fff"/><path d="M16.875 17.344a1.406 1.406 0 112.813 0v7.5a1.406 1.406 0 01-2.813 0v-7.5zm0-3.75a1.406 1.406 0 112.813 0 1.406 1.406 0 01-2.813 0z" fill="#EFBC59"/></svg>