<svg width="367" height="214" viewBox="0 0 367 214" fill="none" xmlns="http://www.w3.org/2000/svg"><rect opacity=".9" width="367" height="214" rx="10" fill="#DAE8F1"/><path d="M211.087 57h-54.17c-4.366 0-7.917 3.516-7.917 7.847v49.315c0 4.326 3.551 7.838 7.917 7.838h54.17c4.366 0 7.913-3.512 7.913-7.838V64.846c0-4.33-3.547-7.846-7.913-7.846zm-16.821 11.67c4.222 0 7.647 3.392 7.647 7.574 0 4.183-3.425 7.575-7.647 7.575-4.224 0-7.647-3.392-7.647-7.575 0-4.182 3.423-7.575 7.647-7.575zm14.338 46.081h-48.113c-2.112 0-3.052-1.514-2.1-3.382l13.123-25.748c.951-1.867 2.763-2.034 4.047-.373l13.196 17.083c1.284 1.662 3.527 1.803 5.011.314l3.229-3.238c1.483-1.489 3.669-1.304 4.88.41l8.359 11.828c1.209 1.715.48 3.106-1.632 3.106zM107.274 152h-1.834v-4.116c0-1.195.089-2.413.266-3.654l-3.29 7.77h-2.282v-9.674h1.834v4.158c0 .775-.023 1.419-.07 1.932a36.814 36.814 0 01-.196 1.68l3.346-7.77h2.226V152zm4.324-7.616c.794 0 1.456.182 1.988.546.542.364.812.859.812 1.484 0 .42-.13.765-.392 1.036-.252.261-.644.457-1.176.588.654.103 1.139.299 1.456.588.327.28.49.686.49 1.218 0 .765-.308 1.353-.924 1.764-.606.401-1.4.602-2.38.602-1.148 0-2.132-.303-2.954-.91l.882-1.036c.327.215.644.373.952.476.308.093.658.14 1.05.14.999 0 1.498-.369 1.498-1.106 0-.663-.527-.994-1.582-.994h-1.078l.112-1.232h.812c.439 0 .784-.079 1.036-.238.252-.168.378-.42.378-.756 0-.308-.112-.532-.336-.672-.214-.14-.504-.21-.868-.21-.354 0-.667.047-.938.14a3.62 3.62 0 00-.826.42l-.826-.994a4.216 4.216 0 011.274-.644c.458-.14.971-.21 1.54-.21zm7.815 0c1.092 0 1.941.35 2.548 1.05.616.691.924 1.643.924 2.856 0 .775-.14 1.461-.42 2.058a3.203 3.203 0 01-1.204 1.372c-.523.327-1.144.49-1.862.49-1.092 0-1.946-.345-2.562-1.036-.616-.7-.924-1.661-.924-2.884 0-.775.14-1.456.42-2.044a3.196 3.196 0 011.204-1.372c.532-.327 1.157-.49 1.876-.49zm0 1.358c-1.074 0-1.61.849-1.61 2.548 0 .877.13 1.526.392 1.946.27.411.672.616 1.204.616.532 0 .928-.21 1.19-.63.27-.42.406-1.064.406-1.932 0-.868-.136-1.507-.406-1.918-.262-.42-.654-.63-1.176-.63zm8.763-.658c.532 0 1.008.135 1.428.406.42.271.747.667.98 1.19.243.513.364 1.125.364 1.834 0 .765-.144 1.428-.434 1.988-.28.551-.676.975-1.19 1.274-.513.289-1.11.434-1.792.434-1.054 0-1.894-.355-2.52-1.064-.616-.719-.924-1.806-.924-3.262 0-1.073.084-1.955.252-2.646.178-.691.481-1.255.91-1.694.43-.448 1.032-.798 1.806-1.05.57-.187 1.018-.35 1.344-.49.327-.149.682-.341 1.064-.574l.686 1.204a7.866 7.866 0 01-1.036.574c-.364.159-.802.322-1.316.49-.429.14-.774.303-1.036.49-.252.187-.452.453-.602.798-.149.336-.252.793-.308 1.372.551-.849 1.326-1.274 2.324-1.274zm-.658 5.768c.476 0 .85-.168 1.12-.504.28-.345.42-.938.42-1.778 0-.775-.112-1.321-.336-1.638-.224-.327-.56-.49-1.008-.49-.345 0-.672.093-.98.28-.298.187-.55.471-.756.854v.938c0 .765.136 1.349.406 1.75.271.392.649.588 1.134.588zm8.949-6.468c.933 0 1.624.341 2.072 1.022.448.681.672 1.638.672 2.87 0 .765-.117 1.447-.35 2.044-.224.588-.56 1.05-1.008 1.386-.439.336-.962.504-1.568.504-.784 0-1.405-.271-1.862-.812v3.458l-1.792.196v-10.458h1.568l.098.91a2.9 2.9 0 01.994-.84 2.59 2.59 0 011.176-.28zm-.686 6.454c1.036 0 1.554-.849 1.554-2.548 0-.905-.117-1.559-.35-1.96-.234-.401-.584-.602-1.05-.602-.299 0-.579.093-.84.28-.262.177-.486.42-.672.728v3.332c.345.513.798.77 1.358.77zm10.527-.798c0 .289.042.504.126.644a.912.912 0 00.434.308l-.378 1.19c-.42-.037-.765-.14-1.036-.308-.261-.168-.462-.425-.602-.77a2.418 2.418 0 01-.952.84 2.903 2.903 0 01-1.26.266c-.737 0-1.321-.21-1.75-.63-.429-.42-.644-.971-.644-1.652 0-.803.289-1.414.868-1.834.588-.429 1.423-.644 2.506-.644h.924v-.42c0-.476-.112-.807-.336-.994-.215-.196-.565-.294-1.05-.294-.541 0-1.195.131-1.96.392l-.42-1.218c.924-.355 1.82-.532 2.688-.532 1.895 0 2.842.849 2.842 2.548v3.108zm-3.192.868c.607 0 1.083-.303 1.428-.91V148.5h-.742c-1.157 0-1.736.429-1.736 1.288 0 .355.089.63.266.826.177.196.439.294.784.294zm14.264-6.314l-1.764 3.458 1.988 3.948h-1.876l-1.54-3.248h-.812V152h-1.61v-3.248h-.798L149.414 152h-1.848l1.974-3.948-1.764-3.458h1.75l1.414 2.968h.826v-2.968h1.61v2.968h.84l1.428-2.968h1.736zm7.385 3.528c0 .093-.014.336-.042.728h-4.648c.056.719.243 1.232.56 1.54.318.308.738.462 1.26.462.327 0 .635-.051.924-.154.29-.112.598-.28.924-.504l.742 1.022c-.821.663-1.736.994-2.744.994-1.129 0-2.002-.345-2.618-1.036-.606-.691-.91-1.633-.91-2.828 0-.756.131-1.433.392-2.03.262-.607.64-1.078 1.134-1.414.495-.345 1.083-.518 1.764-.518 1.036 0 1.839.331 2.408.994.57.653.854 1.568.854 2.744zm-1.778-.518c0-1.297-.48-1.946-1.442-1.946-.438 0-.784.163-1.036.49-.242.317-.387.831-.434 1.54h2.912v-.084zm7.684 4.396v-3.094h-2.506V152h-1.792v-7.406h1.792v2.954h2.506v-2.954h1.792V152h-1.792zm10.12 0h-1.722v-2.968c0-.541.023-1.05.07-1.526.047-.485.098-.849.154-1.092L176.535 152h-1.918v-7.406h1.736v2.968c0 .513-.028 1.022-.084 1.526-.047.504-.098.863-.154 1.078l2.73-5.572h1.946V152zm8.228-3.878c0 .093-.014.336-.042.728h-4.648c.056.719.243 1.232.56 1.54.318.308.738.462 1.26.462.327 0 .635-.051.924-.154.29-.112.598-.28.924-.504l.742 1.022c-.821.663-1.736.994-2.744.994-1.129 0-2.002-.345-2.618-1.036-.606-.691-.91-1.633-.91-2.828 0-.756.131-1.433.392-2.03.262-.607.64-1.078 1.134-1.414.495-.345 1.083-.518 1.764-.518 1.036 0 1.839.331 2.408.994.57.653.854 1.568.854 2.744zm-1.778-.518c0-1.297-.48-1.946-1.442-1.946-.438 0-.784.163-1.036.49-.242.317-.387.831-.434 1.54h2.912v-.084zm9.91-3.22c1.092 0 1.941.35 2.548 1.05.616.691.924 1.643.924 2.856 0 .775-.14 1.461-.42 2.058a3.203 3.203 0 01-1.204 1.372c-.523.327-1.144.49-1.862.49-1.092 0-1.946-.345-2.562-1.036-.616-.7-.924-1.661-.924-2.884 0-.775.14-1.456.42-2.044a3.196 3.196 0 011.204-1.372c.532-.327 1.157-.49 1.876-.49zm0 1.358c-1.074 0-1.61.849-1.61 2.548 0 .877.13 1.526.392 1.946.27.411.672.616 1.204.616.532 0 .928-.21 1.19-.63.27-.42.406-1.064.406-1.932 0-.868-.136-1.507-.406-1.918-.262-.42-.654-.63-1.176-.63zm10.242-1.148l-.224 1.372h-2.17V152h-1.792v-6.034h-2.296v-1.372h6.482zm3.661-.21c.485 0 .919.07 1.302.21.392.14.761.359 1.106.658l-.798 1.078a2.875 2.875 0 00-.728-.406 2.257 2.257 0 00-.77-.126c-1.111 0-1.666.845-1.666 2.534 0 .859.145 1.479.434 1.862.289.373.7.56 1.232.56.261 0 .499-.042.714-.126.224-.084.485-.219.784-.406l.798 1.134c-.7.569-1.498.854-2.394.854-.709 0-1.325-.154-1.848-.462a3.116 3.116 0 01-1.204-1.344c-.28-.579-.42-1.26-.42-2.044s.14-1.475.42-2.072c.28-.607.681-1.073 1.204-1.4.523-.336 1.134-.504 1.834-.504zm7.288 7.644c-.299.915-.752 1.624-1.358 2.128-.607.513-1.438.812-2.492.896l-.182-1.302c.485-.075.872-.182 1.162-.322.298-.131.536-.308.714-.532.177-.224.34-.523.49-.896h-.616l-2.352-7.406h1.904l1.61 6.216 1.68-6.216h1.848l-2.408 7.434zm8.944-7.434l-.224 1.372h-2.17V152H223.1v-6.034h-2.296v-1.372h6.482zm3.661-.21c.485 0 .919.07 1.302.21.392.14.76.359 1.106.658l-.798 1.078a2.875 2.875 0 00-.728-.406 2.261 2.261 0 00-.77-.126c-1.111 0-1.666.845-1.666 2.534 0 .859.144 1.479.434 1.862.289.373.7.56 1.232.56.261 0 .499-.042.714-.126.224-.084.485-.219.784-.406l.798 1.134c-.7.569-1.498.854-2.394.854-.71 0-1.326-.154-1.848-.462a3.116 3.116 0 01-1.204-1.344c-.28-.579-.42-1.26-.42-2.044s.14-1.475.42-2.072c.28-.607.681-1.073 1.204-1.4.522-.336 1.134-.504 1.834-.504zm9.149.21l-.224 1.372h-2.17V152h-1.792v-6.034h-2.296v-1.372h6.482zm5.291 3.36c1.269.14 1.904.733 1.904 1.778 0 .765-.294 1.335-.882 1.708-.579.373-1.363.56-2.352.56h-2.926v-7.322c.998-.196 1.899-.294 2.702-.294.961 0 1.717.173 2.268.518.55.345.826.845.826 1.498 0 .42-.131.761-.392 1.022-.262.261-.644.439-1.148.532zm-1.568-2.352a6.76 6.76 0 00-.896.07v1.876h1.064c.774 0 1.162-.331 1.162-.994 0-.635-.444-.952-1.33-.952zm.196 5.152c.942 0 1.414-.378 1.414-1.134 0-.345-.108-.597-.322-.756-.215-.168-.57-.252-1.064-.252h-1.12v2.142h1.092zm8.315 1.274c-.299.915-.751 1.624-1.358 2.128-.607.513-1.437.812-2.492.896l-.182-1.302c.485-.075.873-.182 1.162-.322.299-.131.537-.308.714-.532a3.61 3.61 0 00.49-.896h-.616l-2.352-7.406h1.904l1.61 6.216 1.68-6.216h1.848l-2.408 7.434zm9.492-3.906c0 .093-.014.336-.042.728h-4.648c.056.719.243 1.232.56 1.54.317.308.737.462 1.26.462.327 0 .635-.051.924-.154.289-.112.597-.28.924-.504l.742 1.022c-.821.663-1.736.994-2.744.994-1.129 0-2.002-.345-2.618-1.036-.607-.691-.91-1.633-.91-2.828 0-.756.131-1.433.392-2.03.261-.607.639-1.078 1.134-1.414.495-.345 1.083-.518 1.764-.518 1.036 0 1.839.331 2.408.994.569.653.854 1.568.854 2.744zm-1.778-.518c0-1.297-.481-1.946-1.442-1.946-.439 0-.784.163-1.036.49-.243.317-.387.831-.434 1.54h2.912v-.084zm8.476-3.01l-.224 1.372h-2.17V152h-1.792v-6.034h-2.296v-1.372h6.482z" fill="#B1C9D9"/></svg>