<svg width="25" height="25" viewBox="0 0 25 25" fill="none" xmlns="http://www.w3.org/2000/svg"><path d="M20.974 5.195a1.885 1.885 0 001.883-1.883 1.885 1.885 0 00-1.883-1.884 1.885 1.885 0 00-1.884 1.884c0 .29.072.561.19.807l-1.81 1.809-.444-.444a.628.628 0 00-.888 0l-.633.633a6.787 6.787 0 00-1.479-.618v-.89a.627.627 0 00-.628-.628h-2.51a.627.627 0 00-.629.628v.89a6.785 6.785 0 00-1.478.618l-.634-.633a.628.628 0 00-.887 0l-.444.444-1.81-1.81a1.85 1.85 0 00.19-.806 1.885 1.885 0 00-1.884-1.884 1.885 1.885 0 00-1.884 1.884c0 1.038.887 1.883 1.926 1.883.29 0 .52-.071.765-.189l1.809 1.81-.444.444a.628.628 0 000 .887l.633.634c-.265.47-.472.965-.618 1.478h-.89a.627.627 0 00-.628.628v2.511c0 .347.281.628.628.628h.89c.146.513.353 1.008.618 1.479l-.633.633a.628.628 0 000 .888l.444.444-1.81 1.81a1.861 1.861 0 00-.806-.19 1.885 1.885 0 00-1.884 1.884c0 1.038.845 1.883 1.884 1.883a1.885 1.885 0 001.883-1.883c0-.29-.071-.562-.189-.807l1.81-1.81.444.444a.627.627 0 00.887 0l.634-.633c.47.265.965.472 1.478.618v.89c0 .347.281.628.628.628h2.511c.347 0 .628-.28.628-.628v-.89a6.784 6.784 0 001.479-.618l.633.633a.627.627 0 00.888 0l.444-.443 1.81 1.809a1.861 1.861 0 00-.19.807c0 1.038.845 1.883 1.884 1.883a1.885 1.885 0 001.883-1.883 1.885 1.885 0 00-1.883-1.884c-.29 0-.562.072-.807.19l-1.81-1.81.444-.444a.627.627 0 000-.888l-.633-.633c.265-.471.472-.966.618-1.479h.89c.347 0 .628-.28.628-.628v-2.51a.627.627 0 00-.628-.629h-.89a6.783 6.783 0 00-.618-1.478l.633-.634a.627.627 0 000-.887l-.443-.444 1.809-1.81c.245.118.517.19.807.19zm-8.831 11.342a4.4 4.4 0 01-4.395-4.394 4.4 4.4 0 014.395-4.395 4.4 4.4 0 014.394 4.395 4.4 4.4 0 01-4.394 4.394z" fill="#245E63"/></svg>