<svg width="25" height="25" viewBox="0 0 25 25" fill="none" xmlns="http://www.w3.org/2000/svg"><path d="M20.714 1.428H3.571a2.15 2.15 0 00-2.143 2.143v17.143a2.15 2.15 0 002.143 2.143h17.143a2.15 2.15 0 002.143-2.143V3.571a2.15 2.15 0 00-2.143-2.143zM7.211 20.287H3.928v-2.92h3.283v2.92zm0-3.9H3.928V13.47h3.283v2.919zm-.247-11.71a.909.909 0 110-1.818.909.909 0 010 1.817zm4.628 15.61H8.31v-2.92h3.282v2.92zm0-3.9H8.31V13.47h3.282v2.919zm0-3.896H8.31V9.573h3.282v2.918zm-.359-8.725a.909.909 0 111.818 0 .909.909 0 01-1.818 0zm4.743 12.622h-3.283v-2.919h3.283v2.919zm0-3.897h-3.283V9.573h3.283v2.918zm.436-8.725a.909.909 0 111.818 0 .909.909 0 01-1.818 0zm3.945 12.622h-3.283v-2.919h3.283v2.919zm0-3.897h-3.283V9.573h3.283v2.918z" fill="#245E63"/></svg>