<svg width="25" height="25" viewBox="0 0 25 25" fill="none" xmlns="http://www.w3.org/2000/svg"><path d="M22.857 12.586c0 .958-.772 1.735-1.717 1.735-19.056 0-18.023.002-18.126-.005a1.73 1.73 0 01-1.586-1.73c0-.956.77-1.735 1.717-1.735H21.14c.947 0 1.717.779 1.717 1.735zm-1.989 2.543c.216 0 .382.193.352.41l-.744 5.404a2.19 2.19 0 01-2.16 1.914H5.97a2.191 2.191 0 01-2.16-1.918l-.651-5.407a.358.358 0 01.353-.403h17.357zm-11.21 1.272a1.716 1.716 0 001.667 1.323h1.636c.793 0 1.479-.544 1.667-1.323a.4.4 0 10-.777-.192.916.916 0 01-.89.706h-1.636a.916.916 0 01-.89-.705.4.4 0 10-.778.191zM19.714 1.428H4.57c-.832 0-1.509.684-1.509 1.524 0 .842.678 1.524 1.509 1.524 16.312 0 15.242.02 15.494-.041a1.524 1.524 0 001.158-1.483c0-.84-.676-1.524-1.508-1.524zm.158 4.27c-.683 4.498-.628 4.158-.659 4.286a.354.354 0 01-.344.269H5.415a.354.354 0 01-.344-.27c-.042-.171 0 .12-.553-4.294a.358.358 0 01.353-.404h14.65c.218 0 .385.196.352.413zm-5.952.56a.402.402 0 00-.4-.404h-2.756c-.221 0-.4.181-.4.404 0 .224.179.405.4.405h2.756c.22 0 .4-.181.4-.405z" fill="#245E63"/></svg>