<svg width="25" height="25" viewBox="0 0 25 25" fill="none" xmlns="http://www.w3.org/2000/svg"><g clip-path="url(#clip0)" fill="#245E63"><path d="M12.76 2.083h-1.145A2.878 2.878 0 008.855 0a2.878 2.878 0 00-2.761 2.083H4.948a.787.787 0 00-.781.782v1.562c0 1 .823 1.823 1.823 1.823h5.729c1 0 1.823-.823 1.823-1.823V2.865a.787.787 0 00-.781-.782z"/><path d="M14.844 3.125h-.26v1.302a2.863 2.863 0 01-2.865 2.865h-5.73a2.863 2.863 0 01-2.864-2.865V3.125h-.26A2.863 2.863 0 000 5.99v13.02a2.863 2.863 0 002.865 2.865h6.864a9.102 9.102 0 01-.864-3.646H3.906a.787.787 0 01-.781-.781c0-.427.354-.781.781-.781h5.042a9.56 9.56 0 01.458-1.823h-5.5a.787.787 0 01-.781-.781c0-.428.354-.782.781-.782h6.25a9.066 9.066 0 011.448-1.823H3.906a.787.787 0 01-.781-.78c0-.428.354-.782.781-.782h9.834a8.981 8.981 0 013.968-1.031V5.99a2.863 2.863 0 00-2.864-2.865z"/><path d="M17.969 10.938a7.04 7.04 0 00-7.032 7.03A7.04 7.04 0 0017.97 25 7.04 7.04 0 0025 17.969a7.04 7.04 0 00-7.031-7.032zm1.041 9.895a1.041 1.041 0 11-2.083 0v-3.645a1.041 1.041 0 112.083 0v3.645zm-1.041-5.208a1.042 1.042 0 110-2.084 1.042 1.042 0 010 2.084z"/></g><defs><clipPath id="clip0"><path fill="#fff" d="M0 0h25v25H0z"/></clipPath></defs></svg>