<svg width="25" height="25" viewBox="0 0 25 25" fill="none" xmlns="http://www.w3.org/2000/svg"><path d="M.56 12.5a.519.519 0 00-.509.518v9.594c0 .143.116.26.26.26h2.46a.518.518 0 00.5-.377l2.295-8.09a1.037 1.037 0 00-.643-1.258c-.94-.343-2.382-.68-4.362-.648zm22.314 5.703c-2.075 0-6.224 2.625-8.3 2.625-2.074 0-4.408-1.588-4.408-1.588s2.795.519 4.409.519c1.614 0 2.075-.55 2.075-1.297 0-1.815-3.083-2.097-4.644-2.335-1.531-.853-2.327-1.527-4.863-1.742a2.503 2.503 0 01-.079.442L4.98 22.172c2.36 1.074 6.425 2.774 8.557 2.774 3.113 0 11.412-4.15 11.412-5.187s-1.038-1.556-2.075-1.556zM23.827.754c-.089-.29-.39-.508-.69-.548-1.838-.242-4.353-.573-6.366 1.238-1.313 1.182-1.508 3.154-.535 4.58-.859.883-1.446 1.93-1.843 2.884-.17-.33-.367-.67-.59-1.02a17.27 17.27 0 00-.76-1.104 4.333 4.333 0 00.291-1.621c-.012-1.2-.498-2.376-1.299-3.146C9.578-.343 6.5-.035 4.025.214l-.128.014a.78.78 0 00-.462 1.335C4.543 2.626 4.77 3.758 5.008 4.955c.213 1.065.433 2.166 1.331 3.03a4.441 4.441 0 003.068 1.229c.93 0 1.837-.306 2.546-.905a.434.434 0 01.11-.1c.73 1.052 1.543 2.495 1.543 3.579a.816.816 0 001.625.102c.005-.037.403-2.986 2.263-4.814l.018.011a3.312 3.312 0 001.302.26c.905 0 1.806-.331 2.444-.906.756-.68.96-1.551 1.155-2.392.208-.888.403-1.727 1.241-2.482.225-.201.264-.524.173-.813z" fill="#245E63"/></svg>