<?xml version="1.0" encoding="utf-8"?><svg xmlns="http://www.w3.org/2000/svg" xmlns:xlink="http://www.w3.org/1999/xlink"><symbol viewBox="0 0 24 12" id="arrow-right" xmlns="http://www.w3.org/2000/svg"><path d="M17.5.464a.937.937 0 00.003 1.326l3.289 3.273H.937a.937.937 0 100 1.875h19.855l-3.29 3.272a.938.938 0 001.324 1.33l4.898-4.875.001-.001a.938.938 0 000-1.328L18.824.46A.937.937 0 0017.5.464z"/></symbol><symbol viewBox="0 0 14 24" id="arrow-right-2" xmlns="http://www.w3.org/2000/svg"><path d="M14 12c0 .43-.168.86-.504 1.188l-10.56 10.32a1.748 1.748 0 01-2.432 0 1.654 1.654 0 010-2.377L9.848 12 .504 2.87a1.654 1.654 0 010-2.377 1.748 1.748 0 012.432 0l10.56 10.319c.336.328.504.758.504 1.188z"/></symbol><symbol viewBox="0 0 24 30" id="click" xmlns="http://www.w3.org/2000/svg"><path d="M2.727 8.848a6.897 6.897 0 016.89-6.889 6.897 6.897 0 016.62 8.795l1.883.543a8.837 8.837 0 00.345-2.449C18.465 3.97 14.495 0 9.617 0 4.737 0 .768 3.97.768 8.848c0 2.166.794 4.252 2.236 5.873l1.464-1.302a6.875 6.875 0 01-1.74-4.57z"/><path d="M15.157 9.53a5.59 5.59 0 00-5.54-6.265 5.59 5.59 0 00-5.584 5.583c0 1.257.411 2.446 1.188 3.438l1.542-1.208a3.583 3.583 0 01-.77-2.23 3.628 3.628 0 013.624-3.624 3.628 3.628 0 013.596 4.067l1.944.238z"/><path d="M21.567 14.755c-.92 0-1.665.745-1.665 1.665h-.653v-1.794a1.665 1.665 0 00-3.33 0v1.794h-.654v-3.433a1.665 1.665 0 10-3.33 0v3.433h-.653V8.848a1.665 1.665 0 10-3.33 0v12.33h-.654v-4.021a1.665 1.665 0 10-3.33 0v6.128A6.723 6.723 0 0010.683 30h5.834a6.722 6.722 0 006.715-6.715V16.42c0-.92-.745-1.665-1.665-1.665z"/></symbol><symbol viewBox="0 0 20 20" id="close" xmlns="http://www.w3.org/2000/svg"><path d="M11.832 10.016L19.62 2.23A1.294 1.294 0 1017.788.397L10 8.183 2.212.396A1.294 1.294 0 10.38 2.23l7.788 7.787L.38 17.804a1.294 1.294 0 00.916 2.212c.332 0 .664-.127.916-.38L10 11.85l7.788 7.787a1.292 1.292 0 001.832 0 1.294 1.294 0 000-1.832l-7.788-7.788z"/></symbol><symbol viewBox="0 0 20 20" id="facebook" xmlns="http://www.w3.org/2000/svg"><path d="M5.271 10.652h2.192v9.025c0 .179.145.323.323.323h3.717a.323.323 0 00.323-.323v-8.982h2.52a.323.323 0 00.32-.286l.383-3.323a.323.323 0 00-.32-.36h-2.903V4.645c0-.628.338-.947 1.005-.947h1.898a.323.323 0 00.322-.322V.325a.323.323 0 00-.322-.323h-2.616L11.993 0c-.454 0-2.031.09-3.277 1.236-1.381 1.27-1.19 2.791-1.143 3.055v2.436H5.27a.323.323 0 00-.323.322v3.28c0 .178.145.323.323.323z"/></symbol><symbol viewBox="0 0 24 24" id="file-add" xmlns="http://www.w3.org/2000/svg"><g clip-path="url(#fclip0)"><path d="M15.25 0H2.75C1.23 0 0 1.23 0 2.75v16.5C0 20.77 1.23 22 2.75 22h10.4c-.1-.48-.15-.99-.15-1.5v-5.25c0-.08 0-.17.01-.25H4c-.55 0-1-.45-1-1s.45-1 1-1h9.42A6.237 6.237 0 0118 9.13V2.75C18 1.23 16.77 0 15.25 0zM4 5h5c.55 0 1 .45 1 1s-.45 1-1 1H4c-.55 0-1-.45-1-1s.45-1 1-1zm10 6H4c-.55 0-1-.45-1-1s.45-1 1-1h10c.55 0 1 .45 1 1s-.45 1-1 1zm6.5 13c-1.93 0-3.5-1.57-3.5-3.5v-5.25c0-1.24 1.01-2.25 2.25-2.25s2.25 1.01 2.25 2.25v5a.75.75 0 01-1.5 0v-5a.75.75 0 00-1.5 0v5.25c0 1.103.897 2 2 2s2-.897 2-2v-6.75a.75.75 0 011.5 0v6.75c0 1.93-1.57 3.5-3.5 3.5z"/></g><defs><clipPath id="fclip0"><path d="M0 0h24v24H0z"/></clipPath></defs></symbol><symbol viewBox="0 0 20 20" id="instagram" xmlns="http://www.w3.org/2000/svg"><path d="M13.669 2H6.33A4.336 4.336 0 002 6.331v7.338A4.336 4.336 0 006.331 18h7.338A4.336 4.336 0 0018 13.67V6.33A4.336 4.336 0 0013.669 2zM10 14.375A4.38 4.38 0 015.625 10 4.38 4.38 0 0110 5.625 4.38 4.38 0 0114.375 10 4.38 4.38 0 0110 14.375zm4.48-7.718a1.294 1.294 0 010-2.586 1.294 1.294 0 01-.001 2.586z"/><path d="M10 7c-1.654 0-3 1.346-3 3s1.346 3 3 3 3-1.346 3-3-1.346-3-3-3zm4.5-2a.5.5 0 10.001 1.001A.5.5 0 0014.5 5z"/></symbol><symbol viewBox="0 0 24 18" id="mail" xmlns="http://www.w3.org/2000/svg"><path d="M23.965 1.776l-7.332 7.286 7.332 7.285a2.1 2.1 0 00.213-.91V2.687a2.1 2.1 0 00-.213-.91zM22.053.563H2.125a2.1 2.1 0 00-.91.212l9.372 9.325a2.127 2.127 0 003.005 0L22.964.775a2.1 2.1 0 00-.91-.213zM.213 1.776a2.1 2.1 0 00-.213.91v12.75c0 .328.08.634.213.911l7.333-7.285L.213 1.776z"/><path d="M15.631 10.064L14.593 11.1a3.545 3.545 0 01-5.008 0l-1.037-1.037-7.333 7.285c.277.133.583.213.91.213h19.928c.327 0 .634-.08.91-.213l-7.332-7.285z"/></symbol><symbol viewBox="0 0 20 20" id="phone" xmlns="http://www.w3.org/2000/svg"><path d="M17.232 13.92c-1.208-1.033-2.434-1.66-3.627-.627l-.713.623c-.521.453-1.49 2.568-5.239-1.743-3.747-4.306-1.517-4.977-.995-5.426l.717-.624c1.187-1.034.739-2.336-.117-3.676l-.517-.812C5.881.298 4.944-.58 3.754.453l-.643.562C2.585 1.398 1.115 2.644.758 5.01c-.43 2.84.925 6.091 4.027 9.659 3.099 3.569 6.133 5.362 9.006 5.33 2.389-.025 3.83-1.307 4.282-1.773l.645-.563c1.188-1.032.45-2.082-.759-3.118l-.727-.625z"/></symbol><symbol viewBox="0 0 16 16" id="plus" xmlns="http://www.w3.org/2000/svg"><path d="M8.227.727a1.25 1.25 0 00-1.25 1.25v5h-5a1.25 1.25 0 000 2.5h5v5a1.25 1.25 0 002.5 0v-5h5a1.25 1.25 0 100-2.5h-5v-5a1.25 1.25 0 00-1.25-1.25z"/></symbol><symbol viewBox="0 0 20 20" id="question" xmlns="http://www.w3.org/2000/svg"><path d="M10 0C4.486 0 0 4.486 0 10s4.486 10 10 10 10-4.486 10-10S15.514 0 10 0zm0 15.833a.833.833 0 110-1.667.833.833 0 010 1.667zm1.32-5.298a.837.837 0 00-.487.758v.374a.833.833 0 11-1.666 0v-.374A2.51 2.51 0 0110.62 9.02c.849-.39 1.462-1.429 1.462-1.938A2.086 2.086 0 0010 5c-1.15 0-2.083.935-2.083 2.083a.833.833 0 11-1.667 0A3.755 3.755 0 0110 3.333a3.755 3.755 0 013.75 3.75c0 1.126-.977 2.781-2.43 3.452z"/></symbol><symbol viewBox="0 0 30 26" id="registration" xmlns="http://www.w3.org/2000/svg"><path d="M7.5 14.934a1.465 1.465 0 100-2.93 1.465 1.465 0 000 2.93zm0 1.757a1.936 1.936 0 00-1.934 1.934v1.465h3.868v-1.465A1.936 1.936 0 007.5 16.691z"/><path d="M23.027 16.105c-4.814 0-8.73-3.916-8.73-8.73 0-.79.106-1.556.304-2.285H2.637A2.64 2.64 0 000 7.727V22.96a2.64 2.64 0 002.637 2.637h21.855a2.64 2.64 0 002.637-2.637v-7.88a8.676 8.676 0 01-4.102 1.025zm-8.496.235h3.281a.879.879 0 010 1.758h-3.28a.879.879 0 010-1.758zm-3.34 4.629a.879.879 0 01-.879.879H4.689a.879.879 0 01-.88-.88v-2.343c0-1.17.549-2.215 1.402-2.892a3.212 3.212 0 01-.933-2.264A3.226 3.226 0 017.5 10.246a3.226 3.226 0 013.223 3.223 3.21 3.21 0 01-.933 2.264 3.686 3.686 0 011.401 2.892v2.344zm8.028.879H14.53a.879.879 0 010-1.758h4.688a.88.88 0 010 1.758z"/><path d="M23.027.402a6.98 6.98 0 00-6.972 6.973 6.98 6.98 0 006.972 6.973A6.98 6.98 0 0030 7.375 6.98 6.98 0 0023.027.402zm2.082 6.13l-2.344 2.812a.879.879 0 01-1.461-.17L20.366 7.3a.879.879 0 111.572-.786l.337.673 1.483-1.78a.879.879 0 111.35 1.125z"/></symbol><symbol viewBox="0 0 20 20" id="search" xmlns="http://www.w3.org/2000/svg"><path d="M19.756 18.578l-5.688-5.688a7.878 7.878 0 001.765-4.973C15.833 3.552 12.282 0 7.917 0S0 3.552 0 7.917s3.552 7.916 7.917 7.916a7.878 7.878 0 004.973-1.765l5.688 5.688a.831.831 0 001.178 0 .832.832 0 000-1.178zm-11.84-4.411a6.257 6.257 0 01-6.25-6.25 6.257 6.257 0 016.25-6.25 6.257 6.257 0 016.25 6.25 6.257 6.257 0 01-6.25 6.25z"/></symbol><symbol viewBox="0 0 20 20" id="user" xmlns="http://www.w3.org/2000/svg"><g clip-path="url(#nclip0)"><path d="M9.857 9.634c1.324 0 2.47-.475 3.407-1.411.936-.937 1.41-2.082 1.41-3.406 0-1.323-.474-2.47-1.41-3.406C12.326.475 11.18 0 9.856 0 8.534 0 7.388.475 6.452 1.411c-.937.937-1.412 2.082-1.412 3.406 0 1.324.475 2.47 1.412 3.406.936.936 2.082 1.411 3.405 1.411zm8.429 5.745c-.027-.39-.081-.815-.162-1.264a9.968 9.968 0 00-.31-1.27 6.281 6.281 0 00-.523-1.186 4.473 4.473 0 00-.788-1.026 3.473 3.473 0 00-1.131-.71 3.91 3.91 0 00-1.444-.262c-.205 0-.402.084-.783.332-.235.153-.51.33-.816.526-.262.167-.617.323-1.055.465a4.19 4.19 0 01-1.29.208c-.43 0-.864-.07-1.292-.208-.438-.142-.793-.298-1.054-.465-.304-.194-.578-.371-.817-.526-.38-.249-.578-.332-.782-.332-.52 0-1.006.088-1.444.261a3.47 3.47 0 00-1.132.711c-.297.285-.562.63-.787 1.027a6.29 6.29 0 00-.523 1.185c-.125.39-.23.818-.31 1.27-.08.448-.135.874-.162 1.264-.027.383-.04.78-.04 1.181 0 1.044.331 1.89.986 2.513.646.615 1.502.927 2.542.927h9.63c1.04 0 1.895-.312 2.541-.927.655-.623.987-1.468.987-2.513 0-.403-.014-.8-.04-1.181z"/></g><defs><clipPath id="nclip0"><path d="M0 0h20v20H0z"/></clipPath></defs></symbol><symbol viewBox="0 0 20 20" id="vk" xmlns="http://www.w3.org/2000/svg"><g clip-path="url(#oclip0)"><path fill-rule="evenodd" clip-rule="evenodd" d="M17.213 11.538c.663.647 1.363 1.257 1.958 1.97.263.317.512.644.703 1.011.27.523.025 1.098-.444 1.13l-2.913-.002c-.752.063-1.351-.24-1.855-.754-.404-.41-.778-.848-1.165-1.273a2.762 2.762 0 00-.525-.466c-.397-.258-.743-.179-.97.236-.232.422-.284.89-.307 1.36-.031.685-.238.866-.928.897-1.472.07-2.87-.153-4.169-.896-1.145-.655-2.032-1.58-2.805-2.627-1.505-2.038-2.657-4.278-3.692-6.58-.233-.52-.063-.798.51-.808.95-.018 1.9-.017 2.852-.001.387.005.642.227.791.592.515 1.264 1.144 2.468 1.934 3.583.21.297.425.593.73.802.338.232.595.155.754-.221.101-.239.145-.496.168-.752.075-.88.085-1.757-.047-2.633-.081-.547-.39-.901-.935-1.005-.278-.053-.237-.156-.102-.315.234-.274.454-.445.894-.445h3.293c.518.102.633.335.704.857l.003 3.658c-.006.202.1.8.464.934.291.096.483-.137.658-.322.788-.837 1.351-1.826 1.854-2.85.223-.45.415-.917.6-1.385.138-.346.354-.517.745-.51l3.17.003c.093 0 .188.002.28.017.533.091.68.321.515.843-.26.818-.766 1.5-1.26 2.185-.529.73-1.094 1.437-1.618 2.173-.482.672-.443 1.01.155 1.594z"/></g><defs><clipPath id="oclip0"><path d="M0 0h20v20H0z"/></clipPath></defs></symbol><symbol viewBox="0 0 25 25" id="warning" xmlns="http://www.w3.org/2000/svg"><path d="M24.48 17.492L15.653 2.785A3.64 3.64 0 0012.5 1a3.64 3.64 0 00-3.153 1.785L.521 17.492a3.59 3.59 0 00-.035 3.665A3.63 3.63 0 003.673 23h17.654a3.63 3.63 0 003.187-1.843 3.592 3.592 0 00-.034-3.665zM12.5 5.496c.81 0 1.466.653 1.466 1.459v5.835c0 .805-.656 1.458-1.466 1.458-.81 0-1.466-.653-1.466-1.458V6.955c0-.806.656-1.459 1.466-1.459zm0 14.587c-1.213 0-2.2-.982-2.2-2.188 0-1.207.987-2.188 2.2-2.188s2.2.981 2.2 2.188a2.196 2.196 0 01-2.2 2.188z"/></symbol></svg>